<?xml version="1.0" encoding="utf-8" standalone="no"?>
<!DOCTYPE svg PUBLIC "-//W3C//DTD SVG 1.1//EN"
  "http://www.w3.org/Graphics/SVG/1.1/DTD/svg11.dtd">
<svg height="464.22pt" version="1.1" viewBox="0 0 587.315457 464.22" width="587.315457pt" xmlns="http://www.w3.org/2000/svg" xmlns:xlink="http://www.w3.org/1999/xlink">
 <metadata>
  <rdf:RDF xmlns:cc="http://creativecommons.org/ns#" xmlns:dc="http://purl.org/dc/elements/1.1/" xmlns:rdf="http://www.w3.org/1999/02/22-rdf-syntax-ns#">
   <cc:Work>
    <dc:type rdf:resource="http://purl.org/dc/dcmitype/StillImage"/>
    <dc:date>2026-05-12T20:39:45.111430</dc:date>
    <dc:format>image/svg+xml</dc:format>
    <dc:creator>
     <cc:Agent>
      <dc:title>Matplotlib v3.4.2, https://matplotlib.org/</dc:title>
     </cc:Agent>
    </dc:creator>
   </cc:Work>
  </rdf:RDF>
 </metadata>
 <defs>
  <style type="text/css">*{stroke-linecap:butt;stroke-linejoin:round;}</style>
 </defs>
 <g id="figure_1">
  <g id="patch_1">
   <path d="M 0 464.22 
L 587.315457 464.22 
L 587.315457 -0 
L 0 -0 
z
" style="fill:#ffffff;"/>
  </g>
  <g id="axes_1">
   <g id="patch_2">
    <path d="M 110.069688 222.061875 
L 288.20976 222.061875 
L 288.20976 49.242558 
L 110.069688 49.242558 
z
" style="fill:#ffffff;"/>
   </g>
   <g id="matplotlib.axis_1">
    <g id="xtick_1">
     <g id="line2d_1">
      <path clip-path="url(#p9ddd6f7df6)" d="M 119.29307 222.061875 
L 119.29307 49.242558 
" style="fill:none;stroke:#cccccc;stroke-linecap:round;stroke-opacity:0.25;"/>
     </g>
     <g id="text_1">
      <!-- −1000 -->
      <g style="fill:#262626;" transform="translate(109.282524 229.171875)scale(0.07 -0.07)">
       <defs>
        <path d="M 3488 2266 
L 3488 1786 
L 378 1786 
L 378 2266 
L 3488 2266 
z
" id="WorkSans-Regular-2212" transform="scale(0.015625)"/>
        <path d="M 1331 0 
L 1331 3098 
Q 1331 3206 1334 3331 
Q 1338 3456 1344 3590 
Q 1126 3379 838 3222 
Q 550 3066 250 2995 
L 115 3462 
Q 230 3475 406 3548 
Q 582 3622 777 3734 
Q 973 3846 1139 3974 
Q 1306 4102 1395 4224 
L 1843 4224 
L 1843 0 
L 1331 0 
z
" id="WorkSans-Regular-31" transform="scale(0.015625)"/>
        <path d="M 1990 -64 
Q 1274 -64 845 493 
Q 416 1050 416 2112 
Q 416 3174 845 3731 
Q 1274 4288 1990 4288 
Q 2714 4288 3139 3731 
Q 3565 3174 3565 2112 
Q 3565 1050 3139 493 
Q 2714 -64 1990 -64 
z
M 1990 397 
Q 2330 397 2563 592 
Q 2797 787 2915 1171 
Q 3034 1555 3034 2112 
Q 3034 2669 2915 3053 
Q 2797 3437 2563 3632 
Q 2330 3827 1990 3827 
Q 1651 3827 1417 3632 
Q 1184 3437 1065 3053 
Q 947 2669 947 2112 
Q 947 1555 1065 1171 
Q 1184 787 1417 592 
Q 1651 397 1990 397 
z
" id="WorkSans-Regular-30" transform="scale(0.015625)"/>
       </defs>
       <use xlink:href="#WorkSans-Regular-2212"/>
       <use x="60.399994" xlink:href="#WorkSans-Regular-31"/>
       <use x="99.399979" xlink:href="#WorkSans-Regular-30"/>
       <use x="161.599976" xlink:href="#WorkSans-Regular-30"/>
       <use x="223.799973" xlink:href="#WorkSans-Regular-30"/>
      </g>
     </g>
    </g>
    <g id="xtick_2">
     <g id="line2d_2">
      <path clip-path="url(#p9ddd6f7df6)" d="M 150.619304 222.061875 
L 150.619304 49.242558 
" style="fill:none;stroke:#cccccc;stroke-linecap:round;stroke-opacity:0.25;"/>
     </g>
     <g id="text_2">
      <!-- −800 -->
      <g style="fill:#262626;" transform="translate(141.995085 229.171875)scale(0.07 -0.07)">
       <defs>
        <path d="M 1971 4282 
Q 2381 4282 2681 4147 
Q 2982 4013 3148 3766 
Q 3315 3520 3315 3174 
Q 3315 2848 3158 2601 
Q 3002 2355 2720 2227 
L 2720 2221 
Q 3078 2086 3292 1811 
Q 3507 1536 3507 1139 
Q 3507 768 3315 499 
Q 3123 230 2780 83 
Q 2438 -64 1971 -64 
Q 1510 -64 1164 83 
Q 819 230 627 499 
Q 435 768 435 1139 
Q 435 1530 646 1808 
Q 858 2086 1229 2221 
L 1229 2227 
Q 954 2349 790 2595 
Q 627 2842 627 3174 
Q 627 3520 793 3766 
Q 960 4013 1264 4147 
Q 1568 4282 1971 4282 
z
M 1971 3802 
Q 1600 3802 1379 3622 
Q 1158 3443 1158 3123 
Q 1158 2810 1382 2630 
Q 1606 2451 1971 2451 
Q 2336 2451 2560 2630 
Q 2784 2810 2784 3123 
Q 2784 3443 2566 3622 
Q 2349 3802 1971 3802 
z
M 1971 416 
Q 2285 416 2509 509 
Q 2733 602 2854 778 
Q 2976 954 2976 1190 
Q 2976 1434 2851 1610 
Q 2726 1786 2502 1878 
Q 2278 1971 1971 1971 
Q 1670 1971 1443 1878 
Q 1216 1786 1091 1610 
Q 966 1434 966 1190 
Q 966 954 1088 778 
Q 1210 602 1437 509 
Q 1664 416 1971 416 
z
" id="WorkSans-Regular-38" transform="scale(0.015625)"/>
       </defs>
       <use xlink:href="#WorkSans-Regular-2212"/>
       <use x="60.399994" xlink:href="#WorkSans-Regular-38"/>
       <use x="121.999985" xlink:href="#WorkSans-Regular-30"/>
       <use x="184.199982" xlink:href="#WorkSans-Regular-30"/>
      </g>
     </g>
    </g>
    <g id="xtick_3">
     <g id="line2d_3">
      <path clip-path="url(#p9ddd6f7df6)" d="M 181.945537 222.061875 
L 181.945537 49.242558 
" style="fill:none;stroke:#cccccc;stroke-linecap:round;stroke-opacity:0.25;"/>
     </g>
     <g id="text_3">
      <!-- −600 -->
      <g style="fill:#262626;" transform="translate(173.349209 229.171875)scale(0.07 -0.07)">
       <defs>
        <path d="M 2067 4288 
Q 2406 4288 2659 4195 
Q 2912 4102 3097 3907 
Q 3283 3712 3411 3398 
L 2938 3174 
Q 2842 3469 2627 3638 
Q 2413 3808 2035 3808 
Q 1760 3808 1549 3670 
Q 1338 3533 1190 3289 
Q 1043 3046 969 2720 
Q 896 2394 896 2016 
Q 896 2003 896 1977 
Q 896 1952 896 1901 
L 922 1901 
Q 992 2176 1181 2345 
Q 1370 2515 1610 2595 
Q 1850 2675 2080 2675 
Q 2509 2675 2829 2508 
Q 3149 2342 3325 2035 
Q 3501 1728 3501 1306 
Q 3501 890 3321 579 
Q 3142 269 2819 102 
Q 2496 -64 2048 -64 
Q 1517 -64 1152 217 
Q 787 499 601 988 
Q 416 1478 416 2112 
Q 416 2822 633 3305 
Q 851 3789 1225 4038 
Q 1600 4288 2067 4288 
z
M 2042 2182 
Q 1766 2182 1558 2070 
Q 1350 1958 1235 1763 
Q 1120 1568 1120 1312 
Q 1120 1069 1241 867 
Q 1363 666 1571 547 
Q 1779 429 2042 429 
Q 2477 429 2720 662 
Q 2963 896 2963 1312 
Q 2963 1581 2854 1776 
Q 2746 1971 2541 2076 
Q 2336 2182 2042 2182 
z
" id="WorkSans-Regular-36" transform="scale(0.015625)"/>
       </defs>
       <use xlink:href="#WorkSans-Regular-2212"/>
       <use x="60.399994" xlink:href="#WorkSans-Regular-36"/>
       <use x="121.199982" xlink:href="#WorkSans-Regular-30"/>
       <use x="183.399979" xlink:href="#WorkSans-Regular-30"/>
      </g>
     </g>
    </g>
    <g id="xtick_4">
     <g id="line2d_4">
      <path clip-path="url(#p9ddd6f7df6)" d="M 213.271771 222.061875 
L 213.271771 49.242558 
" style="fill:none;stroke:#cccccc;stroke-linecap:round;stroke-opacity:0.25;"/>
     </g>
     <g id="text_4">
      <!-- −400 -->
      <g style="fill:#262626;" transform="translate(204.665052 229.171875)scale(0.07 -0.07)">
       <defs>
        <path d="M 2342 0 
L 2342 1107 
L 282 1107 
L 282 1485 
Q 282 1485 282 1485 
Q 282 1485 282 1485 
L 2208 4224 
L 2854 4224 
L 2854 1549 
L 3603 1549 
L 3603 1107 
L 2854 1107 
L 2854 0 
L 2342 0 
z
M 826 1549 
L 2342 1549 
L 2342 3130 
Q 2342 3296 2352 3469 
Q 2362 3642 2368 3808 
L 2355 3808 
Q 2278 3648 2156 3449 
Q 2035 3251 1933 3104 
L 826 1549 
Q 826 1549 826 1549 
Q 826 1549 826 1549 
z
" id="WorkSans-Regular-34" transform="scale(0.015625)"/>
       </defs>
       <use xlink:href="#WorkSans-Regular-2212"/>
       <use x="60.399994" xlink:href="#WorkSans-Regular-34"/>
       <use x="121.499985" xlink:href="#WorkSans-Regular-30"/>
       <use x="183.699982" xlink:href="#WorkSans-Regular-30"/>
      </g>
     </g>
    </g>
    <g id="xtick_5">
     <g id="line2d_5">
      <path clip-path="url(#p9ddd6f7df6)" d="M 244.598004 222.061875 
L 244.598004 49.242558 
" style="fill:none;stroke:#cccccc;stroke-linecap:round;stroke-opacity:0.25;"/>
     </g>
     <g id="text_5">
      <!-- −200 -->
      <g style="fill:#262626;" transform="translate(236.089176 229.171875)scale(0.07 -0.07)">
       <defs>
        <path d="M 474 0 
L 474 416 
Q 1107 883 1532 1235 
Q 1958 1587 2214 1875 
Q 2470 2163 2579 2422 
Q 2688 2682 2688 2963 
Q 2688 3341 2448 3574 
Q 2208 3808 1792 3808 
Q 1357 3808 1094 3523 
Q 832 3238 787 2765 
L 339 3034 
Q 397 3405 579 3686 
Q 762 3968 1072 4128 
Q 1382 4288 1811 4288 
Q 2138 4288 2397 4192 
Q 2656 4096 2841 3920 
Q 3027 3744 3126 3501 
Q 3226 3258 3226 2963 
Q 3226 2566 3034 2185 
Q 2842 1805 2400 1389 
Q 1958 973 1203 467 
L 1203 461 
Q 1274 467 1398 470 
Q 1523 474 1648 477 
Q 1773 480 1837 480 
L 3315 480 
L 3315 0 
L 474 0 
z
" id="WorkSans-Regular-32" transform="scale(0.015625)"/>
       </defs>
       <use xlink:href="#WorkSans-Regular-2212"/>
       <use x="60.399994" xlink:href="#WorkSans-Regular-32"/>
       <use x="118.699982" xlink:href="#WorkSans-Regular-30"/>
       <use x="180.899979" xlink:href="#WorkSans-Regular-30"/>
      </g>
     </g>
    </g>
    <g id="xtick_6">
     <g id="line2d_6">
      <path clip-path="url(#p9ddd6f7df6)" d="M 275.924238 222.061875 
L 275.924238 49.242558 
" style="fill:none;stroke:#cccccc;stroke-linecap:round;stroke-opacity:0.25;"/>
     </g>
     <g id="text_6">
      <!-- 0 -->
      <g style="fill:#262626;" transform="translate(273.747128 229.171875)scale(0.07 -0.07)">
       <use xlink:href="#WorkSans-Regular-30"/>
      </g>
     </g>
    </g>
   </g>
   <g id="matplotlib.axis_2">
    <g id="ytick_1">
     <g id="text_7">
      <!-- Asian -->
      <g style="fill:#262626;" transform="translate(81.69 60.747982)scale(0.1 -0.1)">
       <defs>
        <path d="M 4058 0 
L 3514 0 
L 3066 1171 
L 1152 1171 
L 704 0 
L 166 0 
L 1811 4224 
L 2419 4224 
L 4058 0 
z
M 1338 1651 
L 2880 1651 
L 2106 3731 
L 1338 1651 
z
" id="WorkSans-Regular-41" transform="scale(0.015625)"/>
        <path d="M 1747 -64 
Q 1280 -64 886 134 
Q 493 333 282 698 
L 717 1011 
Q 858 717 1130 550 
Q 1402 384 1786 384 
Q 2125 384 2317 515 
Q 2509 646 2509 858 
Q 2509 992 2422 1104 
Q 2336 1216 2093 1267 
L 1325 1427 
Q 858 1523 656 1747 
Q 454 1971 454 2304 
Q 454 2566 604 2784 
Q 755 3002 1033 3133 
Q 1312 3264 1690 3264 
Q 2163 3264 2489 3078 
Q 2816 2893 2976 2554 
L 2547 2272 
Q 2438 2554 2195 2685 
Q 1952 2816 1690 2816 
Q 1459 2816 1296 2752 
Q 1133 2688 1046 2576 
Q 960 2464 960 2323 
Q 960 2182 1056 2064 
Q 1152 1946 1414 1894 
L 2214 1728 
Q 2662 1638 2841 1433 
Q 3021 1229 3021 934 
Q 3021 634 2861 406 
Q 2701 179 2413 57 
Q 2125 -64 1747 -64 
z
" id="WorkSans-Regular-73" transform="scale(0.015625)"/>
        <path d="M 851 3814 
Q 678 3814 572 3920 
Q 467 4026 467 4198 
Q 467 4371 572 4476 
Q 678 4582 851 4582 
Q 1024 4582 1129 4476 
Q 1235 4371 1235 4198 
Q 1235 4026 1129 3920 
Q 1024 3814 851 3814 
z
M 1107 3200 
L 1107 0 
L 595 0 
L 595 3200 
L 1107 3200 
z
" id="WorkSans-Regular-69" transform="scale(0.015625)"/>
        <path d="M 2464 2067 
Q 2464 2426 2272 2621 
Q 2080 2816 1728 2816 
Q 1395 2816 1164 2672 
Q 934 2528 826 2208 
L 410 2464 
Q 538 2822 883 3043 
Q 1229 3264 1741 3264 
Q 2086 3264 2368 3145 
Q 2650 3027 2813 2787 
Q 2976 2547 2976 2170 
L 2976 621 
Q 2976 390 3219 390 
Q 3341 390 3456 422 
L 3430 19 
Q 3302 -45 3098 -45 
Q 2912 -45 2765 25 
Q 2618 96 2534 240 
Q 2451 384 2451 602 
L 2451 666 
L 2579 646 
Q 2502 397 2316 240 
Q 2131 83 1900 9 
Q 1670 -64 1446 -64 
Q 1165 -64 921 32 
Q 678 128 534 323 
Q 390 518 390 806 
Q 390 1165 630 1398 
Q 870 1632 1299 1715 
L 2566 1965 
L 2566 1542 
L 1536 1331 
Q 1222 1267 1068 1152 
Q 915 1037 915 832 
Q 915 634 1072 509 
Q 1229 384 1517 384 
Q 1702 384 1872 432 
Q 2042 480 2176 579 
Q 2310 678 2387 828 
Q 2464 979 2464 1184 
L 2464 2067 
z
" id="WorkSans-Regular-61" transform="scale(0.015625)"/>
        <path d="M 595 0 
L 595 3200 
L 1043 3200 
L 1088 2483 
L 1005 2554 
Q 1107 2810 1280 2966 
Q 1453 3123 1680 3193 
Q 1907 3264 2150 3264 
Q 2496 3264 2777 3133 
Q 3059 3002 3228 2733 
Q 3398 2464 3398 2048 
L 3398 0 
L 2886 0 
L 2886 1869 
Q 2886 2400 2659 2608 
Q 2432 2816 2099 2816 
Q 1869 2816 1638 2707 
Q 1408 2598 1257 2355 
Q 1107 2112 1107 1702 
L 1107 0 
L 595 0 
z
" id="WorkSans-Regular-6e" transform="scale(0.015625)"/>
       </defs>
       <use xlink:href="#WorkSans-Regular-41"/>
       <use x="65.999985" xlink:href="#WorkSans-Regular-73"/>
       <use x="118.699982" xlink:href="#WorkSans-Regular-69"/>
       <use x="145.299973" xlink:href="#WorkSans-Regular-61"/>
       <use x="201.899963" xlink:href="#WorkSans-Regular-6e"/>
      </g>
     </g>
    </g>
    <g id="ytick_2">
     <g id="text_8">
      <!-- Black -->
      <g style="fill:#262626;" transform="translate(81.550938 113.117472)scale(0.1 -0.1)">
       <defs>
        <path d="M 691 0 
L 691 4224 
L 2195 4224 
Q 2944 4224 3289 3910 
Q 3635 3597 3635 3059 
Q 3635 2739 3449 2480 
Q 3264 2221 2925 2150 
L 2925 2144 
Q 3302 2074 3523 1802 
Q 3744 1530 3744 1184 
Q 3744 646 3341 323 
Q 2938 0 2189 0 
L 691 0 
z
M 1203 480 
L 2310 480 
Q 2765 480 2985 665 
Q 3206 851 3206 1184 
Q 3206 1523 2985 1705 
Q 2765 1888 2310 1888 
L 1203 1888 
L 1203 480 
z
M 1203 2368 
L 2202 2368 
Q 3098 2368 3098 3059 
Q 3098 3744 2202 3744 
L 1203 3744 
L 1203 2368 
z
" id="WorkSans-Regular-42" transform="scale(0.015625)"/>
        <path d="M 1082 4672 
L 1082 813 
Q 1082 570 1171 477 
Q 1261 384 1459 384 
Q 1587 384 1670 403 
Q 1754 422 1894 474 
L 1811 26 
Q 1709 -19 1587 -41 
Q 1466 -64 1338 -64 
Q 947 -64 758 147 
Q 570 358 570 794 
L 570 4672 
L 1082 4672 
z
" id="WorkSans-Regular-6c" transform="scale(0.015625)"/>
        <path d="M 1920 3264 
Q 2253 3264 2505 3161 
Q 2758 3059 2944 2867 
Q 3130 2675 3245 2413 
L 2758 2182 
Q 2656 2490 2448 2653 
Q 2240 2816 1907 2816 
Q 1587 2816 1356 2672 
Q 1126 2528 1004 2256 
Q 883 1984 883 1600 
Q 883 1222 1004 947 
Q 1126 672 1356 528 
Q 1587 384 1907 384 
Q 2157 384 2339 461 
Q 2522 538 2640 685 
Q 2758 832 2803 1043 
L 3277 877 
Q 3168 582 2979 371 
Q 2790 160 2524 48 
Q 2259 -64 1920 -64 
Q 1472 -64 1120 134 
Q 768 333 569 707 
Q 371 1082 371 1600 
Q 371 2118 569 2492 
Q 768 2867 1120 3065 
Q 1472 3264 1920 3264 
z
" id="WorkSans-Regular-63" transform="scale(0.015625)"/>
        <path d="M 3405 3200 
L 2022 1818 
L 1901 1696 
L 851 646 
L 851 1286 
L 2758 3200 
L 3405 3200 
z
M 1107 4672 
L 1107 0 
L 595 0 
L 595 4672 
L 1107 4672 
z
M 2067 2080 
L 3482 0 
L 2861 0 
L 1638 1792 
L 2067 2080 
z
" id="WorkSans-Regular-6b" transform="scale(0.015625)"/>
       </defs>
       <use xlink:href="#WorkSans-Regular-42"/>
       <use x="65.299988" xlink:href="#WorkSans-Regular-6c"/>
       <use x="95.899979" xlink:href="#WorkSans-Regular-61"/>
       <use x="152.499969" xlink:href="#WorkSans-Regular-63"/>
       <use x="208.499954" xlink:href="#WorkSans-Regular-6b"/>
      </g>
     </g>
    </g>
    <g id="ytick_3">
     <g id="text_9">
      <!-- Other -->
      <g style="fill:#262626;" transform="translate(80.35875 165.486962)scale(0.1 -0.1)">
       <defs>
        <path d="M 2394 4288 
Q 2995 4288 3433 4022 
Q 3872 3757 4112 3270 
Q 4352 2784 4352 2112 
Q 4352 1440 4112 953 
Q 3872 467 3433 201 
Q 2995 -64 2394 -64 
Q 1792 -64 1353 201 
Q 915 467 675 953 
Q 435 1440 435 2112 
Q 435 2784 675 3270 
Q 915 3757 1353 4022 
Q 1792 4288 2394 4288 
z
M 2394 3808 
Q 1958 3808 1638 3606 
Q 1318 3405 1145 3024 
Q 973 2643 973 2112 
Q 973 1581 1145 1200 
Q 1318 819 1638 617 
Q 1958 416 2394 416 
Q 2835 416 3152 617 
Q 3469 819 3641 1200 
Q 3814 1581 3814 2112 
Q 3814 2643 3641 3024 
Q 3469 3405 3152 3606 
Q 2835 3808 2394 3808 
z
" id="WorkSans-Regular-4f" transform="scale(0.015625)"/>
        <path d="M 1350 4109 
L 1350 883 
Q 1350 646 1484 531 
Q 1619 416 1830 416 
Q 2016 416 2150 480 
Q 2285 544 2394 653 
L 2573 224 
Q 2426 90 2224 13 
Q 2022 -64 1760 -64 
Q 1517 -64 1305 22 
Q 1094 109 969 297 
Q 845 486 838 794 
L 838 3968 
L 1350 4109 
z
M 2515 3200 
L 2515 2758 
L 198 2758 
L 198 3200 
L 2515 3200 
z
" id="WorkSans-Regular-74" transform="scale(0.015625)"/>
        <path d="M 595 0 
L 595 4672 
L 1107 4672 
L 1107 2720 
Q 1274 3008 1549 3136 
Q 1824 3264 2150 3264 
Q 2496 3264 2777 3133 
Q 3059 3002 3228 2733 
Q 3398 2464 3398 2048 
L 3398 0 
L 2886 0 
L 2886 1869 
Q 2886 2400 2659 2608 
Q 2432 2816 2099 2816 
Q 1869 2816 1638 2707 
Q 1408 2598 1257 2352 
Q 1107 2106 1107 1696 
L 1107 0 
L 595 0 
z
" id="WorkSans-Regular-68" transform="scale(0.015625)"/>
        <path d="M 1933 -64 
Q 1478 -64 1123 134 
Q 768 333 569 707 
Q 371 1082 371 1600 
Q 371 2118 569 2492 
Q 768 2867 1113 3065 
Q 1459 3264 1901 3264 
Q 2349 3264 2665 3072 
Q 2982 2880 3148 2550 
Q 3315 2221 3315 1811 
Q 3315 1702 3308 1612 
Q 3302 1523 3290 1453 
L 704 1453 
L 704 1907 
L 3066 1907 
L 2803 1856 
Q 2803 2317 2550 2566 
Q 2298 2816 1888 2816 
Q 1574 2816 1347 2672 
Q 1120 2528 995 2256 
Q 870 1984 870 1600 
Q 870 1222 998 947 
Q 1126 672 1360 528 
Q 1594 384 1920 384 
Q 2272 384 2493 518 
Q 2714 653 2848 883 
L 3251 646 
Q 3130 429 2941 269 
Q 2752 109 2499 22 
Q 2246 -64 1933 -64 
z
" id="WorkSans-Regular-65" transform="scale(0.015625)"/>
        <path d="M 595 0 
L 595 3200 
L 1011 3200 
L 1082 2675 
Q 1216 2970 1475 3117 
Q 1734 3264 2106 3264 
Q 2189 3264 2288 3251 
Q 2387 3238 2458 3200 
L 2368 2733 
Q 2298 2758 2214 2771 
Q 2131 2784 1978 2784 
Q 1779 2784 1577 2669 
Q 1376 2554 1241 2320 
Q 1107 2086 1107 1728 
L 1107 0 
L 595 0 
z
" id="WorkSans-Regular-72" transform="scale(0.015625)"/>
       </defs>
       <use xlink:href="#WorkSans-Regular-4f"/>
       <use x="74.799988" xlink:href="#WorkSans-Regular-74"/>
       <use x="116.699982" xlink:href="#WorkSans-Regular-68"/>
       <use x="178.599976" xlink:href="#WorkSans-Regular-65"/>
       <use x="236.299973" xlink:href="#WorkSans-Regular-72"/>
      </g>
     </g>
    </g>
    <g id="ytick_4">
     <g id="text_10">
      <!-- Hispanic -->
      <g style="fill:#262626;" transform="translate(66.419687 217.856452)scale(0.1 -0.1)">
       <defs>
        <path d="M 4006 4224 
L 4006 0 
L 3494 0 
L 3494 4224 
L 4006 4224 
z
M 1203 4224 
L 1203 0 
L 691 0 
L 691 4224 
L 1203 4224 
z
M 3731 2381 
L 3731 1901 
L 960 1901 
L 960 2381 
L 3731 2381 
z
" id="WorkSans-Regular-48" transform="scale(0.015625)"/>
        <path d="M 595 -1344 
L 595 3200 
L 1043 3200 
L 1088 2419 
L 1018 2509 
Q 1101 2733 1267 2902 
Q 1434 3072 1670 3168 
Q 1907 3264 2182 3264 
Q 2573 3264 2902 3065 
Q 3232 2867 3430 2496 
Q 3629 2125 3629 1600 
Q 3629 1082 3427 707 
Q 3226 333 2893 134 
Q 2560 -64 2163 -64 
Q 1766 -64 1468 131 
Q 1171 326 1043 627 
L 1107 723 
L 1107 -1344 
L 595 -1344 
z
M 2112 384 
Q 2586 384 2851 717 
Q 3117 1050 3117 1600 
Q 3117 2150 2857 2483 
Q 2598 2816 2131 2816 
Q 1824 2816 1593 2665 
Q 1363 2515 1235 2243 
Q 1107 1971 1107 1600 
Q 1107 1235 1232 960 
Q 1357 685 1584 534 
Q 1811 384 2112 384 
z
" id="WorkSans-Regular-70" transform="scale(0.015625)"/>
       </defs>
       <use xlink:href="#WorkSans-Regular-48"/>
       <use x="73.399994" xlink:href="#WorkSans-Regular-69"/>
       <use x="99.999985" xlink:href="#WorkSans-Regular-73"/>
       <use x="152.699982" xlink:href="#WorkSans-Regular-70"/>
       <use x="215.399979" xlink:href="#WorkSans-Regular-61"/>
       <use x="271.999969" xlink:href="#WorkSans-Regular-6e"/>
       <use x="333.899963" xlink:href="#WorkSans-Regular-69"/>
       <use x="360.499954" xlink:href="#WorkSans-Regular-63"/>
      </g>
     </g>
    </g>
   </g>
   <g id="LineCollection_1">
    <path clip-path="url(#p9ddd6f7df6)" d="M 119.021221 57.097982 
L 125.689198 57.097982 
" style="fill:none;stroke:#118ab2;"/>
   </g>
   <g id="LineCollection_2">
    <path clip-path="url(#p9ddd6f7df6)" d="M 144.881528 109.467472 
L 153.747604 109.467472 
" style="fill:none;stroke:#118ab2;"/>
   </g>
   <g id="LineCollection_3">
    <path clip-path="url(#p9ddd6f7df6)" d="M 275.924238 214.206452 
L 275.924238 214.206452 
" style="fill:none;stroke:#118ab2;"/>
   </g>
   <g id="LineCollection_4">
    <path clip-path="url(#p9ddd6f7df6)" d="M 210.990407 161.836962 
L 219.199509 161.836962 
" style="fill:none;stroke:#118ab2;"/>
   </g>
   <g id="LineCollection_5">
    <path clip-path="url(#p9ddd6f7df6)" d="M 171.077652 57.097982 
L 214.437921 57.097982 
" style="fill:none;stroke:#ff6f61;"/>
   </g>
   <g id="LineCollection_6">
    <path clip-path="url(#p9ddd6f7df6)" d="M 198.242446 109.467472 
L 214.458033 109.467472 
" style="fill:none;stroke:#ff6f61;"/>
   </g>
   <g id="LineCollection_7">
    <path clip-path="url(#p9ddd6f7df6)" d="M 250.735252 214.206452 
L 265.821089 214.206452 
" style="fill:none;stroke:#ff6f61;"/>
   </g>
   <g id="LineCollection_8">
    <path clip-path="url(#p9ddd6f7df6)" d="M 202.515094 161.836962 
L 236.358453 161.836962 
" style="fill:none;stroke:#ff6f61;"/>
   </g>
   <g id="line2d_7">
    <path clip-path="url(#p9ddd6f7df6)" d="M 275.924238 222.061875 
L 275.924238 49.242558 
" style="fill:none;stroke:#808080;stroke-dasharray:3.7,1.6;stroke-dashoffset:0;stroke-opacity:0.7;"/>
   </g>
   <g id="line2d_8">
    <defs>
     <path d="M 0 2.5 
C 0.663008 2.5 1.29895 2.236584 1.767767 1.767767 
C 2.236584 1.29895 2.5 0.663008 2.5 0 
C 2.5 -0.663008 2.236584 -1.29895 1.767767 -1.767767 
C 1.29895 -2.236584 0.663008 -2.5 0 -2.5 
C -0.663008 -2.5 -1.29895 -2.236584 -1.767767 -1.767767 
C -2.236584 -1.29895 -2.5 -0.663008 -2.5 0 
C -2.5 0.663008 -2.236584 1.29895 -1.767767 1.767767 
C -1.29895 2.236584 -0.663008 2.5 0 2.5 
z
" id="mbbee8f1bd8" style="stroke:#118ab2;"/>
    </defs>
    <g clip-path="url(#p9ddd6f7df6)">
     <use style="fill:#118ab2;stroke:#118ab2;" x="122.35521" xlink:href="#mbbee8f1bd8" y="57.097982"/>
    </g>
   </g>
   <g id="line2d_9">
    <g clip-path="url(#p9ddd6f7df6)">
     <use style="fill:#118ab2;stroke:#118ab2;" x="149.314566" xlink:href="#mbbee8f1bd8" y="109.467472"/>
    </g>
   </g>
   <g id="line2d_10">
    <g clip-path="url(#p9ddd6f7df6)">
     <use style="fill:#118ab2;stroke:#118ab2;" x="275.924238" xlink:href="#mbbee8f1bd8" y="214.206452"/>
    </g>
   </g>
   <g id="line2d_11">
    <g clip-path="url(#p9ddd6f7df6)">
     <use style="fill:#118ab2;stroke:#118ab2;" x="215.094958" xlink:href="#mbbee8f1bd8" y="161.836962"/>
    </g>
   </g>
   <g id="line2d_12">
    <defs>
     <path d="M 0 2.5 
C 0.663008 2.5 1.29895 2.236584 1.767767 1.767767 
C 2.236584 1.29895 2.5 0.663008 2.5 0 
C 2.5 -0.663008 2.236584 -1.29895 1.767767 -1.767767 
C 1.29895 -2.236584 0.663008 -2.5 0 -2.5 
C -0.663008 -2.5 -1.29895 -2.236584 -1.767767 -1.767767 
C -2.236584 -1.29895 -2.5 -0.663008 -2.5 0 
C -2.5 0.663008 -2.236584 1.29895 -1.767767 1.767767 
C -1.29895 2.236584 -0.663008 2.5 0 2.5 
z
" id="mc2d746a111" style="stroke:#ff6f61;"/>
    </defs>
    <g clip-path="url(#p9ddd6f7df6)">
     <use style="fill:#ff6f61;stroke:#ff6f61;" x="192.757787" xlink:href="#mc2d746a111" y="57.097982"/>
    </g>
   </g>
   <g id="line2d_13">
    <g clip-path="url(#p9ddd6f7df6)">
     <use style="fill:#ff6f61;stroke:#ff6f61;" x="206.35024" xlink:href="#mc2d746a111" y="109.467472"/>
    </g>
   </g>
   <g id="line2d_14">
    <g clip-path="url(#p9ddd6f7df6)">
     <use style="fill:#ff6f61;stroke:#ff6f61;" x="258.27817" xlink:href="#mc2d746a111" y="214.206452"/>
    </g>
   </g>
   <g id="line2d_15">
    <g clip-path="url(#p9ddd6f7df6)">
     <use style="fill:#ff6f61;stroke:#ff6f61;" x="219.436774" xlink:href="#mc2d746a111" y="161.836962"/>
    </g>
   </g>
   <g id="patch_3">
    <path d="M 110.069688 222.061875 
L 110.069688 49.242558 
" style="fill:none;stroke:#333333;stroke-linecap:square;stroke-linejoin:miter;stroke-width:0.5;"/>
   </g>
   <g id="patch_4">
    <path d="M 110.069688 222.061875 
L 288.20976 222.061875 
" style="fill:none;stroke:#333333;stroke-linecap:square;stroke-linejoin:miter;stroke-width:0.5;"/>
   </g>
   <g id="text_11">
    <!-- a -->
    <g style="fill:#262626;" transform="translate(70.878872 30.439973)scale(0.1 -0.1)">
     <defs>
      <path d="M 2176 2029 
Q 2176 2253 2051 2384 
Q 1926 2515 1715 2515 
Q 1504 2515 1353 2409 
Q 1203 2304 1146 2035 
L 224 2253 
Q 314 2714 698 2989 
Q 1082 3264 1779 3264 
Q 2246 3264 2576 3126 
Q 2906 2989 3082 2717 
Q 3258 2445 3258 2048 
L 3258 877 
Q 3258 627 3482 627 
Q 3597 627 3667 653 
L 3603 32 
Q 3411 -58 3136 -58 
Q 2886 -58 2694 22 
Q 2502 102 2393 265 
Q 2285 429 2285 678 
L 2285 717 
L 2406 762 
Q 2406 486 2243 300 
Q 2080 115 1821 25 
Q 1562 -64 1280 -64 
Q 954 -64 710 38 
Q 467 141 336 336 
Q 205 531 205 819 
Q 205 1165 413 1392 
Q 621 1619 1069 1709 
L 2278 1958 
L 2272 1382 
L 1658 1254 
Q 1466 1216 1373 1142 
Q 1280 1069 1280 922 
Q 1280 781 1382 710 
Q 1485 640 1626 640 
Q 1734 640 1833 672 
Q 1933 704 2009 771 
Q 2086 838 2131 940 
Q 2176 1043 2176 1184 
L 2176 2029 
z
" id="WorkSans-Bold-61" transform="scale(0.015625)"/>
     </defs>
     <use xlink:href="#WorkSans-Bold-61"/>
    </g>
   </g>
   <g id="text_12">
    <g id="patch_5">
     <path d="M 192.114302 221.305489 
L 284.646959 221.305489 
Q 287.346959 221.305489 287.346959 218.605489 
L 287.346959 190.507489 
Q 287.346959 187.807489 284.646959 187.807489 
L 192.114302 187.807489 
Q 189.414302 187.807489 189.414302 190.507489 
L 189.414302 218.605489 
Q 189.414302 221.305489 192.114302 221.305489 
z
" style="fill:#ffffff;opacity:0.8;stroke:#dddddd;stroke-linejoin:miter;"/>
    </g>
    <!-- White Average FVC: -->
    <g style="fill:#262626;" transform="translate(198.213209 197.122489)scale(0.09 -0.09)">
     <defs>
      <path d="M 1478 0 
L 230 4224 
L 762 4224 
L 1805 467 
L 2797 4224 
L 3379 4224 
L 4371 454 
L 5414 4224 
L 5920 4224 
L 4678 0 
L 4045 0 
L 3296 2739 
L 3078 3693 
L 3072 3693 
L 2854 2739 
L 2112 0 
L 1478 0 
z
" id="WorkSans-Regular-57" transform="scale(0.015625)"/>
      <path id="WorkSans-Regular-20" transform="scale(0.015625)"/>
      <path d="M 2714 3200 
L 3251 3200 
L 1920 0 
L 1408 0 
L 77 3200 
L 659 3200 
L 1670 518 
L 2714 3200 
z
" id="WorkSans-Regular-76" transform="scale(0.015625)"/>
      <path d="M 3290 3789 
L 3405 3334 
Q 3398 3334 3385 3334 
Q 3373 3334 3360 3334 
Q 3046 3334 2876 3209 
Q 2707 3085 2707 2810 
L 2394 2970 
Q 2394 3219 2509 3404 
Q 2624 3590 2822 3689 
Q 3021 3789 3258 3789 
Q 3264 3789 3273 3789 
Q 3283 3789 3290 3789 
z
M 2317 410 
Q 2771 410 3027 202 
Q 3283 -6 3283 -352 
Q 3283 -666 3075 -896 
Q 2867 -1126 2518 -1251 
Q 2170 -1376 1734 -1376 
Q 979 -1376 604 -1120 
Q 230 -864 230 -506 
Q 230 -250 400 -48 
Q 570 154 973 179 
L 928 83 
Q 710 141 560 278 
Q 410 416 410 678 
Q 410 941 605 1129 
Q 800 1318 1184 1363 
L 1523 1190 
L 1459 1190 
Q 1146 1158 1014 1033 
Q 883 909 883 762 
Q 883 582 1014 496 
Q 1146 410 1382 410 
L 2317 410 
z
M 1728 -947 
Q 2099 -947 2339 -870 
Q 2579 -794 2694 -672 
Q 2810 -550 2810 -410 
Q 2810 -237 2672 -134 
Q 2534 -32 2176 -32 
L 1190 -32 
Q 986 -32 845 -137 
Q 704 -243 704 -429 
Q 704 -666 976 -806 
Q 1248 -947 1728 -947 
z
M 1683 3264 
Q 2067 3264 2364 3126 
Q 2662 2989 2828 2745 
Q 2995 2502 2995 2182 
Q 2995 1869 2828 1622 
Q 2662 1376 2364 1238 
Q 2067 1101 1683 1101 
Q 1050 1101 710 1405 
Q 371 1709 371 2182 
Q 371 2502 540 2745 
Q 710 2989 1004 3126 
Q 1299 3264 1683 3264 
z
M 1683 2848 
Q 1350 2848 1126 2665 
Q 902 2483 902 2182 
Q 902 1888 1126 1702 
Q 1350 1517 1683 1517 
Q 2016 1517 2240 1702 
Q 2464 1888 2464 2182 
Q 2464 2483 2240 2665 
Q 2016 2848 1683 2848 
z
" id="WorkSans-Regular-67" transform="scale(0.015625)"/>
      <path d="M 3648 3744 
L 1203 3744 
L 1203 2381 
L 3110 2381 
L 3110 1901 
L 1203 1901 
L 1203 0 
L 691 0 
L 691 4224 
L 3648 4224 
L 3648 3744 
z
" id="WorkSans-Regular-46" transform="scale(0.015625)"/>
      <path d="M 3968 4224 
L 2368 0 
L 1786 0 
L 179 4224 
L 730 4224 
L 1805 1306 
L 2074 467 
L 2342 1299 
L 3418 4224 
L 3968 4224 
z
" id="WorkSans-Regular-56" transform="scale(0.015625)"/>
      <path d="M 4096 1082 
Q 3962 723 3712 464 
Q 3462 205 3126 70 
Q 2790 -64 2394 -64 
Q 1792 -64 1353 201 
Q 915 467 675 953 
Q 435 1440 435 2112 
Q 435 2784 675 3270 
Q 915 3757 1353 4022 
Q 1792 4288 2381 4288 
Q 2790 4288 3110 4176 
Q 3430 4064 3657 3843 
Q 3885 3622 4019 3302 
L 3514 3066 
Q 3373 3430 3107 3619 
Q 2842 3808 2419 3808 
Q 1990 3808 1664 3606 
Q 1338 3405 1155 3027 
Q 973 2650 973 2112 
Q 973 1581 1145 1200 
Q 1318 819 1638 617 
Q 1958 416 2394 416 
Q 2816 416 3129 630 
Q 3443 845 3584 1274 
L 4096 1082 
z
" id="WorkSans-Regular-43" transform="scale(0.015625)"/>
      <path d="M 947 3264 
Q 1133 3264 1248 3149 
Q 1363 3034 1363 2848 
Q 1363 2662 1248 2547 
Q 1133 2432 947 2432 
Q 762 2432 646 2547 
Q 531 2662 531 2848 
Q 531 3034 646 3149 
Q 762 3264 947 3264 
z
M 947 768 
Q 1133 768 1248 653 
Q 1363 538 1363 352 
Q 1363 166 1248 51 
Q 1133 -64 947 -64 
Q 762 -64 646 51 
Q 531 166 531 352 
Q 531 538 646 653 
Q 762 768 947 768 
z
" id="WorkSans-Regular-3a" transform="scale(0.015625)"/>
     </defs>
     <use xlink:href="#WorkSans-Regular-57"/>
     <use x="96.099991" xlink:href="#WorkSans-Regular-68"/>
     <use x="157.999985" xlink:href="#WorkSans-Regular-69"/>
     <use x="184.599976" xlink:href="#WorkSans-Regular-74"/>
     <use x="226.499969" xlink:href="#WorkSans-Regular-65"/>
     <use x="284.199966" xlink:href="#WorkSans-Regular-20"/>
     <use x="318.299957" xlink:href="#WorkSans-Regular-41"/>
     <use x="384.299942" xlink:href="#WorkSans-Regular-76"/>
     <use x="436.299927" xlink:href="#WorkSans-Regular-65"/>
     <use x="493.999924" xlink:href="#WorkSans-Regular-72"/>
     <use x="534.799911" xlink:href="#WorkSans-Regular-61"/>
     <use x="591.399902" xlink:href="#WorkSans-Regular-67"/>
     <use x="644.599899" xlink:href="#WorkSans-Regular-65"/>
     <use x="702.299896" xlink:href="#WorkSans-Regular-20"/>
     <use x="736.399887" xlink:href="#WorkSans-Regular-46"/>
     <use x="797.399872" xlink:href="#WorkSans-Regular-56"/>
     <use x="862.19986" xlink:href="#WorkSans-Regular-43"/>
     <use x="930.79985" xlink:href="#WorkSans-Regular-3a"/>
    </g>
    <!-- UK Biobank: 3718 mL -->
    <g style="fill:#262626;" transform="translate(192.114302 206.941489)scale(0.09 -0.09)">
     <defs>
      <path d="M 3923 4224 
L 3923 1574 
Q 3923 762 3494 349 
Q 3066 -64 2266 -64 
Q 1472 -64 1040 349 
Q 608 762 608 1574 
L 608 4224 
L 1120 4224 
L 1120 1702 
Q 1120 1043 1398 729 
Q 1677 416 2266 416 
Q 2854 416 3132 729 
Q 3411 1043 3411 1702 
L 3411 4224 
L 3923 4224 
z
" id="WorkSans-Regular-55" transform="scale(0.015625)"/>
      <path d="M 4000 4224 
L 2157 2336 
L 2080 2253 
L 947 1094 
L 947 1786 
L 3328 4224 
L 4000 4224 
z
M 1203 4224 
L 1203 0 
L 691 0 
L 691 4224 
L 1203 4224 
z
M 2208 2662 
L 4019 0 
L 3405 0 
L 1786 2374 
L 2208 2662 
z
" id="WorkSans-Regular-4b" transform="scale(0.015625)"/>
      <path d="M 1920 3264 
Q 2374 3264 2723 3065 
Q 3072 2867 3270 2492 
Q 3469 2118 3469 1600 
Q 3469 1082 3270 707 
Q 3072 333 2723 134 
Q 2374 -64 1920 -64 
Q 1472 -64 1120 134 
Q 768 333 569 707 
Q 371 1082 371 1600 
Q 371 2118 569 2492 
Q 768 2867 1120 3065 
Q 1472 3264 1920 3264 
z
M 1920 2822 
Q 1594 2822 1363 2675 
Q 1133 2528 1008 2256 
Q 883 1984 883 1600 
Q 883 1222 1008 947 
Q 1133 672 1363 525 
Q 1594 378 1920 378 
Q 2246 378 2476 525 
Q 2707 672 2832 947 
Q 2957 1222 2957 1600 
Q 2957 1984 2832 2256 
Q 2707 2528 2476 2675 
Q 2246 2822 1920 2822 
z
" id="WorkSans-Regular-6f" transform="scale(0.015625)"/>
      <path d="M 2163 -64 
Q 1894 -64 1664 32 
Q 1434 128 1267 301 
Q 1101 474 1018 691 
L 1088 781 
L 1043 0 
L 595 0 
L 595 4672 
L 1107 4672 
L 1107 2477 
L 1043 2573 
Q 1171 2874 1475 3069 
Q 1779 3264 2170 3264 
Q 2566 3264 2899 3065 
Q 3232 2867 3430 2496 
Q 3629 2125 3629 1600 
Q 3629 1082 3427 707 
Q 3226 333 2893 134 
Q 2560 -64 2163 -64 
z
M 2112 384 
Q 2586 384 2851 717 
Q 3117 1050 3117 1600 
Q 3117 2150 2854 2483 
Q 2592 2816 2118 2816 
Q 1818 2816 1590 2662 
Q 1363 2509 1235 2233 
Q 1107 1958 1107 1587 
Q 1107 1222 1232 950 
Q 1357 678 1584 531 
Q 1811 384 2112 384 
z
" id="WorkSans-Regular-62" transform="scale(0.015625)"/>
      <path d="M 1856 -64 
Q 1293 -64 861 201 
Q 429 467 275 934 
L 787 1197 
Q 864 960 998 784 
Q 1133 608 1353 512 
Q 1574 416 1907 416 
Q 2189 416 2381 518 
Q 2573 621 2675 797 
Q 2778 973 2778 1203 
Q 2778 1434 2691 1587 
Q 2605 1741 2419 1814 
Q 2234 1888 1933 1888 
Q 1862 1888 1779 1885 
Q 1696 1882 1606 1869 
L 1606 2381 
Q 1664 2374 1718 2374 
Q 1773 2374 1818 2374 
Q 2285 2374 2483 2556 
Q 2682 2739 2682 3130 
Q 2682 3462 2477 3635 
Q 2272 3808 1894 3808 
Q 1491 3808 1280 3632 
Q 1069 3456 947 3155 
L 461 3386 
Q 563 3654 768 3859 
Q 973 4064 1264 4179 
Q 1555 4294 1907 4294 
Q 2349 4294 2637 4144 
Q 2925 3994 3069 3744 
Q 3213 3494 3213 3194 
Q 3213 2963 3149 2780 
Q 3085 2598 2973 2464 
Q 2861 2330 2720 2250 
Q 2579 2170 2419 2144 
L 2419 2131 
Q 2630 2125 2793 2048 
Q 2957 1971 3072 1843 
Q 3187 1715 3248 1552 
Q 3309 1389 3309 1210 
Q 3309 838 3126 550 
Q 2944 262 2617 99 
Q 2291 -64 1856 -64 
z
" id="WorkSans-Regular-33" transform="scale(0.015625)"/>
      <path d="M 256 4224 
L 3366 4224 
L 3366 3744 
Q 2835 3181 2499 2589 
Q 2163 1997 2009 1357 
Q 1856 717 1856 0 
L 1331 0 
Q 1331 710 1507 1392 
Q 1683 2074 2041 2701 
Q 2400 3328 2931 3872 
L 3014 3744 
L 256 3744 
L 256 4224 
z
" id="WorkSans-Regular-37" transform="scale(0.015625)"/>
      <path d="M 595 0 
L 595 3200 
L 1043 3200 
L 1075 2701 
Q 1248 2995 1526 3129 
Q 1805 3264 2099 3264 
Q 2438 3264 2739 3110 
Q 3040 2957 3200 2637 
Q 3302 2854 3488 2992 
Q 3674 3130 3894 3197 
Q 4115 3264 4314 3264 
Q 4621 3264 4899 3136 
Q 5178 3008 5357 2739 
Q 5536 2470 5536 2048 
L 5536 0 
L 5024 0 
L 5024 1997 
Q 5024 2432 4806 2624 
Q 4589 2816 4269 2816 
Q 4019 2816 3801 2694 
Q 3584 2573 3453 2336 
Q 3322 2099 3322 1754 
L 3322 0 
L 2810 0 
L 2810 1997 
Q 2810 2432 2592 2624 
Q 2374 2816 2054 2816 
Q 1843 2816 1622 2704 
Q 1402 2592 1254 2349 
Q 1107 2106 1107 1709 
L 1107 0 
L 595 0 
z
" id="WorkSans-Regular-6d" transform="scale(0.015625)"/>
      <path d="M 1203 480 
L 3622 480 
L 3622 0 
L 691 0 
L 691 4224 
L 1203 4224 
L 1203 480 
z
" id="WorkSans-Regular-4c" transform="scale(0.015625)"/>
     </defs>
     <use xlink:href="#WorkSans-Regular-55"/>
     <use x="70.799988" xlink:href="#WorkSans-Regular-4b"/>
     <use x="136.399979" xlink:href="#WorkSans-Regular-20"/>
     <use x="170.499969" xlink:href="#WorkSans-Regular-42"/>
     <use x="235.799957" xlink:href="#WorkSans-Regular-69"/>
     <use x="262.399948" xlink:href="#WorkSans-Regular-6f"/>
     <use x="322.399933" xlink:href="#WorkSans-Regular-62"/>
     <use x="385.09993" xlink:href="#WorkSans-Regular-61"/>
     <use x="441.699921" xlink:href="#WorkSans-Regular-6e"/>
     <use x="503.599915" xlink:href="#WorkSans-Regular-6b"/>
     <use x="560.299911" xlink:href="#WorkSans-Regular-3a"/>
     <use x="589.899902" xlink:href="#WorkSans-Regular-20"/>
     <use x="623.999893" xlink:href="#WorkSans-Regular-33"/>
     <use x="682.299881" xlink:href="#WorkSans-Regular-37"/>
     <use x="738.399872" xlink:href="#WorkSans-Regular-31"/>
     <use x="777.399857" xlink:href="#WorkSans-Regular-38"/>
     <use x="838.999847" xlink:href="#WorkSans-Regular-20"/>
     <use x="873.099838" xlink:href="#WorkSans-Regular-6d"/>
     <use x="968.399826" xlink:href="#WorkSans-Regular-4c"/>
    </g>
    <!-- NHANES: 3747 mL -->
    <g style="fill:#262626;" transform="translate(203.776334 216.715489)scale(0.09 -0.09)">
     <defs>
      <path d="M 4006 4224 
L 4006 0 
L 3373 0 
L 1606 2829 
L 1158 3622 
L 1152 3622 
L 1178 2982 
L 1178 0 
L 691 0 
L 691 4224 
L 1325 4224 
L 3085 1408 
L 3539 595 
L 3546 595 
L 3520 1242 
L 3520 4224 
L 4006 4224 
z
" id="WorkSans-Regular-4e" transform="scale(0.015625)"/>
      <path d="M 691 0 
L 691 4224 
L 3654 4224 
L 3654 3744 
L 1203 3744 
L 1203 2381 
L 3110 2381 
L 3110 1901 
L 1203 1901 
L 1203 480 
L 3750 480 
L 3750 0 
L 691 0 
z
" id="WorkSans-Regular-45" transform="scale(0.015625)"/>
      <path d="M 2048 4288 
Q 2605 4288 3008 4061 
Q 3411 3834 3680 3392 
L 3251 3059 
Q 3014 3469 2716 3638 
Q 2419 3808 1997 3808 
Q 1658 3808 1437 3712 
Q 1216 3616 1113 3459 
Q 1011 3302 1011 3104 
Q 1011 2880 1152 2710 
Q 1293 2541 1715 2445 
L 2630 2240 
Q 3238 2106 3478 1834 
Q 3718 1562 3718 1158 
Q 3718 800 3516 521 
Q 3315 243 2950 89 
Q 2586 -64 2093 -64 
Q 1632 -64 1283 61 
Q 934 186 684 397 
Q 435 608 275 870 
L 723 1235 
Q 845 992 1037 806 
Q 1229 621 1501 518 
Q 1773 416 2125 416 
Q 2451 416 2691 496 
Q 2931 576 3059 733 
Q 3187 890 3187 1114 
Q 3187 1318 3052 1481 
Q 2918 1645 2547 1728 
L 1555 1952 
Q 1165 2042 925 2198 
Q 685 2355 579 2569 
Q 474 2784 474 3034 
Q 474 3373 662 3657 
Q 851 3942 1206 4115 
Q 1562 4288 2048 4288 
z
" id="WorkSans-Regular-53" transform="scale(0.015625)"/>
     </defs>
     <use xlink:href="#WorkSans-Regular-4e"/>
     <use x="73.399994" xlink:href="#WorkSans-Regular-48"/>
     <use x="146.799988" xlink:href="#WorkSans-Regular-41"/>
     <use x="212.799973" xlink:href="#WorkSans-Regular-4e"/>
     <use x="286.199966" xlink:href="#WorkSans-Regular-45"/>
     <use x="349.999954" xlink:href="#WorkSans-Regular-53"/>
     <use x="414.099945" xlink:href="#WorkSans-Regular-3a"/>
     <use x="443.699936" xlink:href="#WorkSans-Regular-20"/>
     <use x="477.799927" xlink:href="#WorkSans-Regular-33"/>
     <use x="536.099915" xlink:href="#WorkSans-Regular-37"/>
     <use x="592.199905" xlink:href="#WorkSans-Regular-34"/>
     <use x="653.299896" xlink:href="#WorkSans-Regular-37"/>
     <use x="709.399887" xlink:href="#WorkSans-Regular-20"/>
     <use x="743.499878" xlink:href="#WorkSans-Regular-6d"/>
     <use x="838.799866" xlink:href="#WorkSans-Regular-4c"/>
    </g>
   </g>
   <g id="text_13">
    <!-- Race -->
    <g style="fill:#262626;" transform="translate(186.115896 39.242558)scale(0.11 -0.11)">
     <defs>
      <path d="M 2291 4224 
Q 2938 4224 3328 3891 
Q 3718 3558 3718 2989 
Q 3718 2419 3324 2102 
Q 2931 1786 2285 1786 
L 2240 1754 
L 1203 1754 
L 1203 0 
L 691 0 
L 691 4224 
L 2291 4224 
z
M 2285 2234 
Q 2739 2234 2960 2422 
Q 3181 2611 3181 2989 
Q 3181 3366 2960 3555 
Q 2739 3744 2285 3744 
L 1203 3744 
L 1203 2234 
L 2285 2234 
z
M 2579 2131 
L 3974 0 
L 3366 0 
L 2150 1850 
L 2579 2131 
z
" id="WorkSans-Regular-52" transform="scale(0.015625)"/>
     </defs>
     <use xlink:href="#WorkSans-Regular-52"/>
     <use x="66.499985" xlink:href="#WorkSans-Regular-61"/>
     <use x="123.099976" xlink:href="#WorkSans-Regular-63"/>
     <use x="179.09996" xlink:href="#WorkSans-Regular-65"/>
    </g>
   </g>
  </g>
  <g id="axes_2">
   <g id="patch_6">
    <path d="M 407.735385 222.061875 
L 585.875458 222.061875 
L 585.875458 49.242558 
L 407.735385 49.242558 
z
" style="fill:#ffffff;"/>
   </g>
   <g id="matplotlib.axis_3">
    <g id="xtick_7">
     <g id="line2d_16">
      <path clip-path="url(#p1820063d89)" d="M 427.833368 222.061875 
L 427.833368 49.242558 
" style="fill:none;stroke:#cccccc;stroke-linecap:round;stroke-opacity:0.25;"/>
     </g>
     <g id="text_14">
      <!-- −100 -->
      <g style="fill:#262626;" transform="translate(419.99993 229.171875)scale(0.07 -0.07)">
       <use xlink:href="#WorkSans-Regular-2212"/>
       <use x="60.399994" xlink:href="#WorkSans-Regular-31"/>
       <use x="99.399979" xlink:href="#WorkSans-Regular-30"/>
       <use x="161.599976" xlink:href="#WorkSans-Regular-30"/>
      </g>
     </g>
    </g>
    <g id="xtick_8">
     <g id="line2d_17">
      <path clip-path="url(#p1820063d89)" d="M 452.918219 222.061875 
L 452.918219 49.242558 
" style="fill:none;stroke:#cccccc;stroke-linecap:round;stroke-opacity:0.25;"/>
     </g>
     <g id="text_15">
      <!-- 0 -->
      <g style="fill:#262626;" transform="translate(450.74111 229.171875)scale(0.07 -0.07)">
       <use xlink:href="#WorkSans-Regular-30"/>
      </g>
     </g>
    </g>
    <g id="xtick_9">
     <g id="line2d_18">
      <path clip-path="url(#p1820063d89)" d="M 478.003071 222.061875 
L 478.003071 49.242558 
" style="fill:none;stroke:#cccccc;stroke-linecap:round;stroke-opacity:0.25;"/>
     </g>
     <g id="text_16">
      <!-- 100 -->
      <g style="fill:#262626;" transform="translate(472.283852 229.171875)scale(0.07 -0.07)">
       <use xlink:href="#WorkSans-Regular-31"/>
       <use x="38.999985" xlink:href="#WorkSans-Regular-30"/>
       <use x="101.199982" xlink:href="#WorkSans-Regular-30"/>
      </g>
     </g>
    </g>
    <g id="xtick_10">
     <g id="line2d_19">
      <path clip-path="url(#p1820063d89)" d="M 503.087922 222.061875 
L 503.087922 49.242558 
" style="fill:none;stroke:#cccccc;stroke-linecap:round;stroke-opacity:0.25;"/>
     </g>
     <g id="text_17">
      <!-- 200 -->
      <g style="fill:#262626;" transform="translate(496.693313 229.171875)scale(0.07 -0.07)">
       <use xlink:href="#WorkSans-Regular-32"/>
       <use x="58.299988" xlink:href="#WorkSans-Regular-30"/>
       <use x="120.499985" xlink:href="#WorkSans-Regular-30"/>
      </g>
     </g>
    </g>
    <g id="xtick_11">
     <g id="line2d_20">
      <path clip-path="url(#p1820063d89)" d="M 528.172774 222.061875 
L 528.172774 49.242558 
" style="fill:none;stroke:#cccccc;stroke-linecap:round;stroke-opacity:0.25;"/>
     </g>
     <g id="text_18">
      <!-- 300 -->
      <g style="fill:#262626;" transform="translate(521.778164 229.171875)scale(0.07 -0.07)">
       <use xlink:href="#WorkSans-Regular-33"/>
       <use x="58.299988" xlink:href="#WorkSans-Regular-30"/>
       <use x="120.499985" xlink:href="#WorkSans-Regular-30"/>
      </g>
     </g>
    </g>
    <g id="xtick_12">
     <g id="line2d_21">
      <path clip-path="url(#p1820063d89)" d="M 553.257625 222.061875 
L 553.257625 49.242558 
" style="fill:none;stroke:#cccccc;stroke-linecap:round;stroke-opacity:0.25;"/>
     </g>
     <g id="text_19">
      <!-- 400 -->
      <g style="fill:#262626;" transform="translate(546.765125 229.171875)scale(0.07 -0.07)">
       <use xlink:href="#WorkSans-Regular-34"/>
       <use x="61.099991" xlink:href="#WorkSans-Regular-30"/>
       <use x="123.299988" xlink:href="#WorkSans-Regular-30"/>
      </g>
     </g>
    </g>
    <g id="xtick_13">
     <g id="line2d_22">
      <path clip-path="url(#p1820063d89)" d="M 578.342477 222.061875 
L 578.342477 49.242558 
" style="fill:none;stroke:#cccccc;stroke-linecap:round;stroke-opacity:0.25;"/>
     </g>
     <g id="text_20">
      <!-- 500 -->
      <g style="fill:#262626;" transform="translate(571.951148 229.171875)scale(0.07 -0.07)">
       <defs>
        <path d="M 1837 -64 
Q 1274 -64 931 192 
Q 589 448 403 902 
L 902 1165 
Q 1005 832 1219 624 
Q 1434 416 1850 416 
Q 2144 416 2352 525 
Q 2560 634 2675 835 
Q 2790 1037 2790 1318 
Q 2790 1619 2684 1820 
Q 2579 2022 2380 2124 
Q 2182 2227 1894 2227 
Q 1690 2227 1514 2185 
Q 1338 2144 1197 2054 
Q 1056 1965 954 1818 
L 506 1901 
L 755 4224 
L 3130 4224 
L 3130 3744 
L 1190 3744 
L 1024 2413 
L 1011 2355 
L 1024 2355 
Q 1178 2515 1418 2611 
Q 1658 2707 1990 2707 
Q 2394 2707 2691 2537 
Q 2989 2368 3155 2061 
Q 3322 1754 3322 1344 
Q 3322 1018 3213 755 
Q 3104 493 2905 310 
Q 2707 128 2435 32 
Q 2163 -64 1837 -64 
z
" id="WorkSans-Regular-35" transform="scale(0.015625)"/>
       </defs>
       <use xlink:href="#WorkSans-Regular-35"/>
       <use x="58.199997" xlink:href="#WorkSans-Regular-30"/>
       <use x="120.399994" xlink:href="#WorkSans-Regular-30"/>
      </g>
     </g>
    </g>
   </g>
   <g id="matplotlib.axis_4">
    <g id="ytick_5">
     <g id="text_21">
      <!-- Sitting Height -->
      <g style="fill:#262626;" transform="translate(339.233823 60.747982)scale(0.1 -0.1)">
       <use xlink:href="#WorkSans-Regular-53"/>
       <use x="64.099991" xlink:href="#WorkSans-Regular-69"/>
       <use x="90.699982" xlink:href="#WorkSans-Regular-74"/>
       <use x="132.599976" xlink:href="#WorkSans-Regular-74"/>
       <use x="174.499969" xlink:href="#WorkSans-Regular-69"/>
       <use x="201.09996" xlink:href="#WorkSans-Regular-6e"/>
       <use x="262.999954" xlink:href="#WorkSans-Regular-67"/>
       <use x="316.199951" xlink:href="#WorkSans-Regular-20"/>
       <use x="350.299942" xlink:href="#WorkSans-Regular-48"/>
       <use x="423.699936" xlink:href="#WorkSans-Regular-65"/>
       <use x="481.399933" xlink:href="#WorkSans-Regular-69"/>
       <use x="507.999924" xlink:href="#WorkSans-Regular-67"/>
       <use x="561.199921" xlink:href="#WorkSans-Regular-68"/>
       <use x="623.099915" xlink:href="#WorkSans-Regular-74"/>
      </g>
     </g>
    </g>
    <g id="ytick_6">
     <g id="text_22">
      <!-- Height -->
      <g style="fill:#262626;" transform="translate(374.26351 80.386541)scale(0.1 -0.1)">
       <use xlink:href="#WorkSans-Regular-48"/>
       <use x="73.399994" xlink:href="#WorkSans-Regular-65"/>
       <use x="131.099991" xlink:href="#WorkSans-Regular-69"/>
       <use x="157.699982" xlink:href="#WorkSans-Regular-67"/>
       <use x="210.899979" xlink:href="#WorkSans-Regular-68"/>
       <use x="272.799973" xlink:href="#WorkSans-Regular-74"/>
      </g>
     </g>
    </g>
    <g id="ytick_7">
     <g id="text_23">
      <!-- Arm Length -->
      <g style="fill:#262626;" transform="translate(348.474448 100.025099)scale(0.1 -0.1)">
       <use xlink:href="#WorkSans-Regular-41"/>
       <use x="65.999985" xlink:href="#WorkSans-Regular-72"/>
       <use x="106.799973" xlink:href="#WorkSans-Regular-6d"/>
       <use x="202.09996" xlink:href="#WorkSans-Regular-20"/>
       <use x="236.199951" xlink:href="#WorkSans-Regular-4c"/>
       <use x="295.999939" xlink:href="#WorkSans-Regular-65"/>
       <use x="353.699936" xlink:href="#WorkSans-Regular-6e"/>
       <use x="415.59993" xlink:href="#WorkSans-Regular-67"/>
       <use x="468.799927" xlink:href="#WorkSans-Regular-74"/>
       <use x="510.699921" xlink:href="#WorkSans-Regular-68"/>
      </g>
     </g>
    </g>
    <g id="ytick_8">
     <g id="text_24">
      <!-- Upper Leg Length -->
      <g style="fill:#262626;" transform="translate(318.733823 119.663658)scale(0.1 -0.1)">
       <use xlink:href="#WorkSans-Regular-55"/>
       <use x="70.799988" xlink:href="#WorkSans-Regular-70"/>
       <use x="133.499985" xlink:href="#WorkSans-Regular-70"/>
       <use x="196.199982" xlink:href="#WorkSans-Regular-65"/>
       <use x="253.899979" xlink:href="#WorkSans-Regular-72"/>
       <use x="294.699966" xlink:href="#WorkSans-Regular-20"/>
       <use x="328.799957" xlink:href="#WorkSans-Regular-4c"/>
       <use x="388.599945" xlink:href="#WorkSans-Regular-65"/>
       <use x="446.299942" xlink:href="#WorkSans-Regular-67"/>
       <use x="499.499939" xlink:href="#WorkSans-Regular-20"/>
       <use x="533.59993" xlink:href="#WorkSans-Regular-4c"/>
       <use x="593.399918" xlink:href="#WorkSans-Regular-65"/>
       <use x="651.099915" xlink:href="#WorkSans-Regular-6e"/>
       <use x="712.999908" xlink:href="#WorkSans-Regular-67"/>
       <use x="766.199905" xlink:href="#WorkSans-Regular-74"/>
       <use x="808.099899" xlink:href="#WorkSans-Regular-68"/>
      </g>
     </g>
    </g>
    <g id="ytick_9">
     <g id="text_25">
      <!-- BMI -->
      <g style="fill:#262626;" transform="translate(387.705698 139.302217)scale(0.1 -0.1)">
       <defs>
        <path d="M 4774 4224 
L 4774 0 
L 4288 0 
L 4288 2656 
L 4346 3770 
L 4339 3770 
L 2950 0 
L 2515 0 
L 1126 3770 
L 1120 3770 
L 1178 2656 
L 1178 0 
L 691 0 
L 691 4224 
L 1478 4224 
L 2406 1658 
L 2726 602 
L 2739 602 
L 3066 1651 
L 3987 4224 
L 4774 4224 
z
" id="WorkSans-Regular-4d" transform="scale(0.015625)"/>
        <path d="M 1203 4224 
L 1203 0 
L 691 0 
L 691 4224 
L 1203 4224 
z
" id="WorkSans-Regular-49" transform="scale(0.015625)"/>
       </defs>
       <use xlink:href="#WorkSans-Regular-42"/>
       <use x="65.299988" xlink:href="#WorkSans-Regular-4d"/>
       <use x="150.699982" xlink:href="#WorkSans-Regular-49"/>
      </g>
     </g>
    </g>
    <g id="ytick_10">
     <g id="text_26">
      <!-- Waist Circumference -->
      <g style="fill:#262626;" transform="translate(302.927573 158.940775)scale(0.1 -0.1)">
       <defs>
        <path d="M 1754 -64 
Q 1446 -64 1174 51 
Q 902 166 732 425 
Q 563 685 563 1101 
L 563 3200 
L 1075 3200 
L 1075 1235 
Q 1075 749 1286 566 
Q 1498 384 1882 384 
Q 2061 384 2233 445 
Q 2406 506 2544 637 
Q 2682 768 2762 973 
Q 2842 1178 2842 1459 
L 2842 3200 
L 3354 3200 
L 3354 0 
L 2906 0 
L 2874 486 
Q 2707 198 2422 67 
Q 2138 -64 1754 -64 
z
" id="WorkSans-Regular-75" transform="scale(0.015625)"/>
        <path d="M 1894 4704 
Q 2061 4704 2208 4665 
Q 2355 4627 2438 4557 
L 2304 4141 
Q 2227 4192 2137 4214 
Q 2048 4237 1939 4237 
Q 1664 4237 1510 4105 
Q 1357 3974 1357 3686 
L 1357 3200 
L 1357 3034 
L 1357 0 
L 845 0 
L 845 3738 
Q 845 3949 909 4128 
Q 973 4307 1104 4435 
Q 1235 4563 1433 4633 
Q 1632 4704 1894 4704 
z
M 2426 3200 
L 2426 2758 
L 205 2758 
L 205 3200 
L 2426 3200 
z
" id="WorkSans-Regular-66" transform="scale(0.015625)"/>
       </defs>
       <use xlink:href="#WorkSans-Regular-57"/>
       <use x="96.099991" xlink:href="#WorkSans-Regular-61"/>
       <use x="152.699982" xlink:href="#WorkSans-Regular-69"/>
       <use x="179.299973" xlink:href="#WorkSans-Regular-73"/>
       <use x="231.999969" xlink:href="#WorkSans-Regular-74"/>
       <use x="273.899963" xlink:href="#WorkSans-Regular-20"/>
       <use x="307.999954" xlink:href="#WorkSans-Regular-43"/>
       <use x="376.599945" xlink:href="#WorkSans-Regular-69"/>
       <use x="403.199936" xlink:href="#WorkSans-Regular-72"/>
       <use x="443.999924" xlink:href="#WorkSans-Regular-63"/>
       <use x="499.999908" xlink:href="#WorkSans-Regular-75"/>
       <use x="561.699905" xlink:href="#WorkSans-Regular-6d"/>
       <use x="656.999893" xlink:href="#WorkSans-Regular-66"/>
       <use x="696.299881" xlink:href="#WorkSans-Regular-65"/>
       <use x="753.999878" xlink:href="#WorkSans-Regular-72"/>
       <use x="794.799866" xlink:href="#WorkSans-Regular-65"/>
       <use x="852.499863" xlink:href="#WorkSans-Regular-6e"/>
       <use x="914.399857" xlink:href="#WorkSans-Regular-63"/>
       <use x="970.399841" xlink:href="#WorkSans-Regular-65"/>
      </g>
     </g>
    </g>
    <g id="ytick_11">
     <g id="text_27">
      <!-- Arm Circumference -->
      <g style="fill:#262626;" transform="translate(310.10726 178.579334)scale(0.1 -0.1)">
       <use xlink:href="#WorkSans-Regular-41"/>
       <use x="65.999985" xlink:href="#WorkSans-Regular-72"/>
       <use x="106.799973" xlink:href="#WorkSans-Regular-6d"/>
       <use x="202.09996" xlink:href="#WorkSans-Regular-20"/>
       <use x="236.199951" xlink:href="#WorkSans-Regular-43"/>
       <use x="304.799942" xlink:href="#WorkSans-Regular-69"/>
       <use x="331.399933" xlink:href="#WorkSans-Regular-72"/>
       <use x="372.199921" xlink:href="#WorkSans-Regular-63"/>
       <use x="428.199905" xlink:href="#WorkSans-Regular-75"/>
       <use x="489.899902" xlink:href="#WorkSans-Regular-6d"/>
       <use x="585.19989" xlink:href="#WorkSans-Regular-66"/>
       <use x="624.499878" xlink:href="#WorkSans-Regular-65"/>
       <use x="682.199875" xlink:href="#WorkSans-Regular-72"/>
       <use x="722.999863" xlink:href="#WorkSans-Regular-65"/>
       <use x="780.69986" xlink:href="#WorkSans-Regular-6e"/>
       <use x="842.599854" xlink:href="#WorkSans-Regular-63"/>
       <use x="898.599838" xlink:href="#WorkSans-Regular-65"/>
      </g>
     </g>
    </g>
    <g id="ytick_12">
     <g id="text_28">
      <!-- Weight -->
      <g style="fill:#262626;" transform="translate(371.99476 198.217893)scale(0.1 -0.1)">
       <use xlink:href="#WorkSans-Regular-57"/>
       <use x="96.099991" xlink:href="#WorkSans-Regular-65"/>
       <use x="153.799988" xlink:href="#WorkSans-Regular-69"/>
       <use x="180.399979" xlink:href="#WorkSans-Regular-67"/>
       <use x="233.599976" xlink:href="#WorkSans-Regular-68"/>
       <use x="295.499969" xlink:href="#WorkSans-Regular-74"/>
      </g>
     </g>
    </g>
    <g id="ytick_13">
     <g id="text_29">
      <!-- Hip Circumference -->
      <g style="fill:#262626;" transform="translate(314.046323 217.881452)scale(0.1 -0.1)">
       <use xlink:href="#WorkSans-Regular-48"/>
       <use x="73.399994" xlink:href="#WorkSans-Regular-69"/>
       <use x="99.999985" xlink:href="#WorkSans-Regular-70"/>
       <use x="162.699982" xlink:href="#WorkSans-Regular-20"/>
       <use x="196.799973" xlink:href="#WorkSans-Regular-43"/>
       <use x="265.399963" xlink:href="#WorkSans-Regular-69"/>
       <use x="291.999954" xlink:href="#WorkSans-Regular-72"/>
       <use x="332.799942" xlink:href="#WorkSans-Regular-63"/>
       <use x="388.799927" xlink:href="#WorkSans-Regular-75"/>
       <use x="450.499924" xlink:href="#WorkSans-Regular-6d"/>
       <use x="545.799911" xlink:href="#WorkSans-Regular-66"/>
       <use x="585.099899" xlink:href="#WorkSans-Regular-65"/>
       <use x="642.799896" xlink:href="#WorkSans-Regular-72"/>
       <use x="683.599884" xlink:href="#WorkSans-Regular-65"/>
       <use x="741.299881" xlink:href="#WorkSans-Regular-6e"/>
       <use x="803.199875" xlink:href="#WorkSans-Regular-63"/>
       <use x="859.19986" xlink:href="#WorkSans-Regular-65"/>
      </g>
     </g>
    </g>
   </g>
   <g id="LineCollection_9">
    <path clip-path="url(#p1820063d89)" d="M 419.46165 135.652217 
L 421.093971 135.652217 
" style="fill:none;stroke:#118ab2;"/>
   </g>
   <g id="LineCollection_10">
    <path clip-path="url(#p1820063d89)" d="M 567.586895 76.736541 
L 569.632213 76.736541 
" style="fill:none;stroke:#118ab2;"/>
   </g>
   <g id="LineCollection_11">
    <path clip-path="url(#p1820063d89)" d="M 445.866266 214.206452 
L 447.528087 214.206452 
" style="fill:none;stroke:#118ab2;"/>
   </g>
   <g id="LineCollection_12">
    <path clip-path="url(#p1820063d89)" d="M 540.303607 57.097982 
L 542.250593 57.097982 
" style="fill:none;stroke:#118ab2;"/>
   </g>
   <g id="LineCollection_13">
    <path clip-path="url(#p1820063d89)" d="M 426.941953 155.290775 
L 428.820106 155.290775 
" style="fill:none;stroke:#118ab2;"/>
   </g>
   <g id="LineCollection_14">
    <path clip-path="url(#p1820063d89)" d="M 456.434313 194.567893 
L 458.322299 194.567893 
" style="fill:none;stroke:#118ab2;"/>
   </g>
   <g id="LineCollection_15">
    <path clip-path="url(#p1820063d89)" d="M 434.675311 174.929334 
L 446.111395 174.929334 
" style="fill:none;stroke:#ff6f61;"/>
   </g>
   <g id="LineCollection_16">
    <path clip-path="url(#p1820063d89)" d="M 496.834068 96.375099 
L 509.843473 96.375099 
" style="fill:none;stroke:#ff6f61;"/>
   </g>
   <g id="LineCollection_17">
    <path clip-path="url(#p1820063d89)" d="M 421.617442 135.652217 
L 432.689695 135.652217 
" style="fill:none;stroke:#ff6f61;"/>
   </g>
   <g id="LineCollection_18">
    <path clip-path="url(#p1820063d89)" d="M 559.149354 76.736541 
L 572.601256 76.736541 
" style="fill:none;stroke:#ff6f61;"/>
   </g>
   <g id="LineCollection_19">
    <path clip-path="url(#p1820063d89)" d="M 566.897162 57.097982 
L 579.768902 57.097982 
" style="fill:none;stroke:#ff6f61;"/>
   </g>
   <g id="LineCollection_20">
    <path clip-path="url(#p1820063d89)" d="M 497.042072 116.013658 
L 509.540147 116.013658 
" style="fill:none;stroke:#ff6f61;"/>
   </g>
   <g id="LineCollection_21">
    <path clip-path="url(#p1820063d89)" d="M 433.440635 155.290775 
L 444.827552 155.290775 
" style="fill:none;stroke:#ff6f61;"/>
   </g>
   <g id="LineCollection_22">
    <path clip-path="url(#p1820063d89)" d="M 456.143028 194.567893 
L 468.080607 194.567893 
" style="fill:none;stroke:#ff6f61;"/>
   </g>
   <g id="line2d_23">
    <path clip-path="url(#p1820063d89)" d="M 452.918219 222.061875 
L 452.918219 49.242558 
" style="fill:none;stroke:#808080;stroke-dasharray:3.7,1.6;stroke-dashoffset:0;stroke-opacity:0.7;"/>
   </g>
   <g id="line2d_24">
    <g clip-path="url(#p1820063d89)">
     <use style="fill:#118ab2;stroke:#118ab2;" x="420.277811" xlink:href="#mbbee8f1bd8" y="135.652217"/>
    </g>
   </g>
   <g id="line2d_25">
    <g clip-path="url(#p1820063d89)">
     <use style="fill:#118ab2;stroke:#118ab2;" x="568.609554" xlink:href="#mbbee8f1bd8" y="76.736541"/>
    </g>
   </g>
   <g id="line2d_26">
    <g clip-path="url(#p1820063d89)">
     <use style="fill:#118ab2;stroke:#118ab2;" x="446.697176" xlink:href="#mbbee8f1bd8" y="214.206452"/>
    </g>
   </g>
   <g id="line2d_27">
    <g clip-path="url(#p1820063d89)">
     <use style="fill:#118ab2;stroke:#118ab2;" x="541.2771" xlink:href="#mbbee8f1bd8" y="57.097982"/>
    </g>
   </g>
   <g id="line2d_28">
    <g clip-path="url(#p1820063d89)">
     <use style="fill:#118ab2;stroke:#118ab2;" x="427.881029" xlink:href="#mbbee8f1bd8" y="155.290775"/>
    </g>
   </g>
   <g id="line2d_29">
    <g clip-path="url(#p1820063d89)">
     <use style="fill:#118ab2;stroke:#118ab2;" x="457.378306" xlink:href="#mbbee8f1bd8" y="194.567893"/>
    </g>
   </g>
   <g id="line2d_30">
    <g clip-path="url(#p1820063d89)">
     <use style="fill:#ff6f61;stroke:#ff6f61;" x="440.393353" xlink:href="#mc2d746a111" y="174.929334"/>
    </g>
   </g>
   <g id="line2d_31">
    <g clip-path="url(#p1820063d89)">
     <use style="fill:#ff6f61;stroke:#ff6f61;" x="503.338771" xlink:href="#mc2d746a111" y="96.375099"/>
    </g>
   </g>
   <g id="line2d_32">
    <g clip-path="url(#p1820063d89)">
     <use style="fill:#ff6f61;stroke:#ff6f61;" x="427.153568" xlink:href="#mc2d746a111" y="135.652217"/>
    </g>
   </g>
   <g id="line2d_33">
    <g clip-path="url(#p1820063d89)">
     <use style="fill:#ff6f61;stroke:#ff6f61;" x="565.875305" xlink:href="#mc2d746a111" y="76.736541"/>
    </g>
   </g>
   <g id="line2d_34">
    <g clip-path="url(#p1820063d89)">
     <use style="fill:#ff6f61;stroke:#ff6f61;" x="573.333032" xlink:href="#mc2d746a111" y="57.097982"/>
    </g>
   </g>
   <g id="line2d_35">
    <g clip-path="url(#p1820063d89)">
     <use style="fill:#ff6f61;stroke:#ff6f61;" x="503.29111" xlink:href="#mc2d746a111" y="116.013658"/>
    </g>
   </g>
   <g id="line2d_36">
    <g clip-path="url(#p1820063d89)">
     <use style="fill:#ff6f61;stroke:#ff6f61;" x="439.134094" xlink:href="#mc2d746a111" y="155.290775"/>
    </g>
   </g>
   <g id="line2d_37">
    <g clip-path="url(#p1820063d89)">
     <use style="fill:#ff6f61;stroke:#ff6f61;" x="462.111817" xlink:href="#mc2d746a111" y="194.567893"/>
    </g>
   </g>
   <g id="patch_7">
    <path d="M 407.735385 222.061875 
L 407.735385 49.242558 
" style="fill:none;stroke:#333333;stroke-linecap:square;stroke-linejoin:miter;stroke-width:0.5;"/>
   </g>
   <g id="patch_8">
    <path d="M 407.735385 222.061875 
L 585.875458 222.061875 
" style="fill:none;stroke:#333333;stroke-linecap:square;stroke-linejoin:miter;stroke-width:0.5;"/>
   </g>
   <g id="text_30">
    <!-- c -->
    <g style="fill:#262626;" transform="translate(368.544569 30.439973)scale(0.1 -0.1)">
     <defs>
      <path d="M 1907 3264 
Q 2394 3264 2717 3126 
Q 3040 2989 3222 2761 
Q 3405 2534 3450 2272 
L 2445 1939 
Q 2400 2214 2281 2352 
Q 2163 2490 1939 2490 
Q 1734 2490 1596 2397 
Q 1459 2304 1388 2102 
Q 1318 1901 1318 1587 
Q 1318 1274 1395 1078 
Q 1472 883 1613 796 
Q 1754 710 1946 710 
Q 2106 710 2211 771 
Q 2317 832 2387 947 
Q 2458 1062 2477 1229 
L 3456 915 
Q 3411 634 3216 413 
Q 3021 192 2701 64 
Q 2381 -64 1952 -64 
Q 1427 -64 1036 131 
Q 646 326 435 700 
Q 224 1075 224 1600 
Q 224 2125 435 2499 
Q 646 2874 1027 3069 
Q 1408 3264 1907 3264 
z
" id="WorkSans-Bold-63" transform="scale(0.015625)"/>
     </defs>
     <use xlink:href="#WorkSans-Bold-63"/>
    </g>
   </g>
   <g id="text_31">
    <!-- Anthropometrics -->
    <g style="fill:#262626;" transform="translate(451.36339 39.242558)scale(0.11 -0.11)">
     <use xlink:href="#WorkSans-Regular-41"/>
     <use x="65.999985" xlink:href="#WorkSans-Regular-6e"/>
     <use x="127.899979" xlink:href="#WorkSans-Regular-74"/>
     <use x="169.799973" xlink:href="#WorkSans-Regular-68"/>
     <use x="231.699966" xlink:href="#WorkSans-Regular-72"/>
     <use x="272.499954" xlink:href="#WorkSans-Regular-6f"/>
     <use x="332.499939" xlink:href="#WorkSans-Regular-70"/>
     <use x="395.199936" xlink:href="#WorkSans-Regular-6f"/>
     <use x="455.199921" xlink:href="#WorkSans-Regular-6d"/>
     <use x="550.499908" xlink:href="#WorkSans-Regular-65"/>
     <use x="608.199905" xlink:href="#WorkSans-Regular-74"/>
     <use x="650.099899" xlink:href="#WorkSans-Regular-72"/>
     <use x="690.899887" xlink:href="#WorkSans-Regular-69"/>
     <use x="717.499878" xlink:href="#WorkSans-Regular-63"/>
     <use x="773.499863" xlink:href="#WorkSans-Regular-73"/>
    </g>
   </g>
  </g>
  <g id="axes_3">
   <g id="patch_9">
    <path d="M 110.069688 440.461635 
L 288.20976 440.461635 
L 288.20976 267.642318 
L 110.069688 267.642318 
z
" style="fill:#ffffff;"/>
   </g>
   <g id="matplotlib.axis_5">
    <g id="xtick_14">
     <g id="line2d_38">
      <path clip-path="url(#pd5a5afa482)" d="M 131.196227 440.461635 
L 131.196227 267.642318 
" style="fill:none;stroke:#cccccc;stroke-linecap:round;stroke-opacity:0.25;"/>
     </g>
     <g id="text_32">
      <!-- −400 -->
      <g style="fill:#262626;" transform="translate(122.589508 447.571635)scale(0.07 -0.07)">
       <use xlink:href="#WorkSans-Regular-2212"/>
       <use x="60.399994" xlink:href="#WorkSans-Regular-34"/>
       <use x="121.499985" xlink:href="#WorkSans-Regular-30"/>
       <use x="183.699982" xlink:href="#WorkSans-Regular-30"/>
      </g>
     </g>
    </g>
    <g id="xtick_15">
     <g id="line2d_39">
      <path clip-path="url(#pd5a5afa482)" d="M 174.302112 440.461635 
L 174.302112 267.642318 
" style="fill:none;stroke:#cccccc;stroke-linecap:round;stroke-opacity:0.25;"/>
     </g>
     <g id="text_33">
      <!-- −200 -->
      <g style="fill:#262626;" transform="translate(165.793284 447.571635)scale(0.07 -0.07)">
       <use xlink:href="#WorkSans-Regular-2212"/>
       <use x="60.399994" xlink:href="#WorkSans-Regular-32"/>
       <use x="118.699982" xlink:href="#WorkSans-Regular-30"/>
       <use x="180.899979" xlink:href="#WorkSans-Regular-30"/>
      </g>
     </g>
    </g>
    <g id="xtick_16">
     <g id="line2d_40">
      <path clip-path="url(#pd5a5afa482)" d="M 217.407998 440.461635 
L 217.407998 267.642318 
" style="fill:none;stroke:#cccccc;stroke-linecap:round;stroke-opacity:0.25;"/>
     </g>
     <g id="text_34">
      <!-- 0 -->
      <g style="fill:#262626;" transform="translate(215.230889 447.571635)scale(0.07 -0.07)">
       <use xlink:href="#WorkSans-Regular-30"/>
      </g>
     </g>
    </g>
    <g id="xtick_17">
     <g id="line2d_41">
      <path clip-path="url(#pd5a5afa482)" d="M 260.513884 440.461635 
L 260.513884 267.642318 
" style="fill:none;stroke:#cccccc;stroke-linecap:round;stroke-opacity:0.25;"/>
     </g>
     <g id="text_35">
      <!-- 200 -->
      <g style="fill:#262626;" transform="translate(254.119274 447.571635)scale(0.07 -0.07)">
       <use xlink:href="#WorkSans-Regular-32"/>
       <use x="58.299988" xlink:href="#WorkSans-Regular-30"/>
       <use x="120.499985" xlink:href="#WorkSans-Regular-30"/>
      </g>
     </g>
    </g>
   </g>
   <g id="matplotlib.axis_6">
    <g id="ytick_14">
     <g id="text_36">
      <!-- Immigrant -->
      <g style="fill:#262626;" transform="translate(57.950937 279.122742)scale(0.1 -0.1)">
       <use xlink:href="#WorkSans-Regular-49"/>
       <use x="29.599991" xlink:href="#WorkSans-Regular-6d"/>
       <use x="124.899979" xlink:href="#WorkSans-Regular-6d"/>
       <use x="220.199966" xlink:href="#WorkSans-Regular-69"/>
       <use x="246.799957" xlink:href="#WorkSans-Regular-67"/>
       <use x="299.999954" xlink:href="#WorkSans-Regular-72"/>
       <use x="340.799942" xlink:href="#WorkSans-Regular-61"/>
       <use x="397.399933" xlink:href="#WorkSans-Regular-6e"/>
       <use x="459.299927" xlink:href="#WorkSans-Regular-74"/>
      </g>
     </g>
    </g>
    <g id="ytick_15">
     <g id="text_37">
      <!-- Income:Poverty -->
      <g style="fill:#262626;" transform="translate(32.560312 296.579239)scale(0.1 -0.1)">
       <defs>
        <path d="M 2182 4224 
Q 2611 4224 2928 4067 
Q 3245 3910 3424 3622 
Q 3603 3334 3603 2938 
Q 3603 2541 3424 2253 
Q 3245 1965 2928 1808 
Q 2611 1651 2182 1651 
L 1203 1651 
L 1203 0 
L 691 0 
L 691 4224 
L 2182 4224 
z
M 2106 2131 
Q 2605 2131 2835 2339 
Q 3066 2547 3066 2938 
Q 3066 3334 2835 3539 
Q 2605 3744 2106 3744 
L 1203 3744 
L 1203 2131 
L 2106 2131 
z
" id="WorkSans-Regular-50" transform="scale(0.015625)"/>
        <path d="M 3226 3200 
L 1722 -538 
Q 1600 -851 1456 -1033 
Q 1312 -1216 1136 -1296 
Q 960 -1376 730 -1376 
Q 512 -1376 329 -1315 
Q 147 -1254 6 -1152 
L 147 -704 
Q 275 -819 419 -873 
Q 563 -928 704 -928 
Q 870 -928 1017 -825 
Q 1165 -723 1286 -410 
L 1453 6 
L 1133 768 
L 115 3200 
L 698 3200 
L 1498 1114 
L 1696 544 
L 1926 1178 
L 2675 3200 
L 3226 3200 
z
" id="WorkSans-Regular-79" transform="scale(0.015625)"/>
       </defs>
       <use xlink:href="#WorkSans-Regular-49"/>
       <use x="29.599991" xlink:href="#WorkSans-Regular-6e"/>
       <use x="91.499985" xlink:href="#WorkSans-Regular-63"/>
       <use x="147.499969" xlink:href="#WorkSans-Regular-6f"/>
       <use x="207.499954" xlink:href="#WorkSans-Regular-6d"/>
       <use x="302.799942" xlink:href="#WorkSans-Regular-65"/>
       <use x="360.499939" xlink:href="#WorkSans-Regular-3a"/>
       <use x="390.09993" xlink:href="#WorkSans-Regular-50"/>
       <use x="451.099915" xlink:href="#WorkSans-Regular-6f"/>
       <use x="511.099899" xlink:href="#WorkSans-Regular-76"/>
       <use x="563.099884" xlink:href="#WorkSans-Regular-65"/>
       <use x="620.799881" xlink:href="#WorkSans-Regular-72"/>
       <use x="661.599869" xlink:href="#WorkSans-Regular-74"/>
       <use x="703.499863" xlink:href="#WorkSans-Regular-79"/>
      </g>
     </g>
    </g>
    <g id="ytick_16">
     <g id="text_38">
      <!-- Private Insurance -->
      <g style="fill:#262626;" transform="translate(23.110312 314.060735)scale(0.1 -0.1)">
       <use xlink:href="#WorkSans-Regular-50"/>
       <use x="60.999985" xlink:href="#WorkSans-Regular-72"/>
       <use x="101.799973" xlink:href="#WorkSans-Regular-69"/>
       <use x="128.399963" xlink:href="#WorkSans-Regular-76"/>
       <use x="180.399948" xlink:href="#WorkSans-Regular-61"/>
       <use x="236.999939" xlink:href="#WorkSans-Regular-74"/>
       <use x="278.899933" xlink:href="#WorkSans-Regular-65"/>
       <use x="336.59993" xlink:href="#WorkSans-Regular-20"/>
       <use x="370.699921" xlink:href="#WorkSans-Regular-49"/>
       <use x="400.299911" xlink:href="#WorkSans-Regular-6e"/>
       <use x="462.199905" xlink:href="#WorkSans-Regular-73"/>
       <use x="514.899902" xlink:href="#WorkSans-Regular-75"/>
       <use x="576.599899" xlink:href="#WorkSans-Regular-72"/>
       <use x="617.399887" xlink:href="#WorkSans-Regular-61"/>
       <use x="673.999878" xlink:href="#WorkSans-Regular-6e"/>
       <use x="735.899872" xlink:href="#WorkSans-Regular-63"/>
       <use x="791.899857" xlink:href="#WorkSans-Regular-65"/>
      </g>
     </g>
    </g>
    <g id="ytick_17">
     <g id="text_39">
      <!-- English Language -->
      <g style="fill:#262626;" transform="translate(23.519687 331.517232)scale(0.1 -0.1)">
       <use xlink:href="#WorkSans-Regular-45"/>
       <use x="63.799988" xlink:href="#WorkSans-Regular-6e"/>
       <use x="125.699982" xlink:href="#WorkSans-Regular-67"/>
       <use x="178.899979" xlink:href="#WorkSans-Regular-6c"/>
       <use x="209.499969" xlink:href="#WorkSans-Regular-69"/>
       <use x="236.09996" xlink:href="#WorkSans-Regular-73"/>
       <use x="288.799957" xlink:href="#WorkSans-Regular-68"/>
       <use x="350.699951" xlink:href="#WorkSans-Regular-20"/>
       <use x="384.799942" xlink:href="#WorkSans-Regular-4c"/>
       <use x="444.59993" xlink:href="#WorkSans-Regular-61"/>
       <use x="501.199921" xlink:href="#WorkSans-Regular-6e"/>
       <use x="563.099915" xlink:href="#WorkSans-Regular-67"/>
       <use x="616.299911" xlink:href="#WorkSans-Regular-75"/>
       <use x="677.999908" xlink:href="#WorkSans-Regular-61"/>
       <use x="734.599899" xlink:href="#WorkSans-Regular-67"/>
       <use x="787.799896" xlink:href="#WorkSans-Regular-65"/>
      </g>
     </g>
    </g>
    <g id="ytick_18">
     <g id="text_40">
      <!-- Veteran -->
      <g style="fill:#262626;" transform="translate(69.929063 348.973728)scale(0.1 -0.1)">
       <use xlink:href="#WorkSans-Regular-56"/>
       <use x="64.799988" xlink:href="#WorkSans-Regular-65"/>
       <use x="122.499985" xlink:href="#WorkSans-Regular-74"/>
       <use x="164.399979" xlink:href="#WorkSans-Regular-65"/>
       <use x="222.099976" xlink:href="#WorkSans-Regular-72"/>
       <use x="262.899963" xlink:href="#WorkSans-Regular-61"/>
       <use x="319.499954" xlink:href="#WorkSans-Regular-6e"/>
      </g>
     </g>
    </g>
    <g id="ytick_19">
     <g id="text_41">
      <!-- High School Graduate -->
      <g style="fill:#262626;" transform="translate(1.44 366.430225)scale(0.1 -0.1)">
       <defs>
        <path d="M 2394 -64 
Q 1792 -64 1353 201 
Q 915 467 675 953 
Q 435 1440 435 2112 
Q 435 2784 688 3270 
Q 941 3757 1395 4022 
Q 1850 4288 2438 4288 
Q 3066 4288 3459 4051 
Q 3853 3814 4096 3322 
L 3629 3066 
Q 3488 3430 3184 3619 
Q 2880 3808 2438 3808 
Q 2010 3808 1680 3606 
Q 1350 3405 1161 3024 
Q 973 2643 973 2112 
Q 973 1581 1136 1200 
Q 1299 819 1622 617 
Q 1946 416 2413 416 
Q 2675 416 2902 483 
Q 3130 550 3299 684 
Q 3469 819 3565 1024 
Q 3661 1229 3661 1504 
L 3661 1651 
L 2317 1651 
L 2317 2131 
L 4128 2131 
L 4128 0 
L 3725 0 
L 3699 787 
L 3808 768 
Q 3642 371 3283 153 
Q 2925 -64 2394 -64 
z
" id="WorkSans-Regular-47" transform="scale(0.015625)"/>
        <path d="M 1843 -64 
Q 1446 -64 1113 134 
Q 781 333 582 707 
Q 384 1082 384 1600 
Q 384 2131 595 2502 
Q 806 2874 1152 3069 
Q 1498 3264 1894 3264 
Q 2291 3264 2582 3059 
Q 2874 2854 2970 2515 
L 2906 2470 
L 2906 4672 
L 3418 4672 
L 3418 0 
L 2970 0 
L 2925 774 
L 2995 813 
Q 2950 531 2780 336 
Q 2611 141 2364 38 
Q 2118 -64 1843 -64 
z
M 1894 384 
Q 2202 384 2429 537 
Q 2656 691 2781 976 
Q 2906 1261 2906 1645 
Q 2906 2010 2781 2272 
Q 2656 2534 2435 2675 
Q 2214 2816 1920 2816 
Q 1434 2816 1165 2483 
Q 896 2150 896 1600 
Q 896 1050 1158 717 
Q 1421 384 1894 384 
z
" id="WorkSans-Regular-64" transform="scale(0.015625)"/>
       </defs>
       <use xlink:href="#WorkSans-Regular-48"/>
       <use x="73.399994" xlink:href="#WorkSans-Regular-69"/>
       <use x="99.999985" xlink:href="#WorkSans-Regular-67"/>
       <use x="153.199982" xlink:href="#WorkSans-Regular-68"/>
       <use x="215.099976" xlink:href="#WorkSans-Regular-20"/>
       <use x="249.199966" xlink:href="#WorkSans-Regular-53"/>
       <use x="313.299957" xlink:href="#WorkSans-Regular-63"/>
       <use x="369.299942" xlink:href="#WorkSans-Regular-68"/>
       <use x="431.199936" xlink:href="#WorkSans-Regular-6f"/>
       <use x="491.199921" xlink:href="#WorkSans-Regular-6f"/>
       <use x="551.199905" xlink:href="#WorkSans-Regular-6c"/>
       <use x="581.799896" xlink:href="#WorkSans-Regular-20"/>
       <use x="615.899887" xlink:href="#WorkSans-Regular-47"/>
       <use x="688.299881" xlink:href="#WorkSans-Regular-72"/>
       <use x="729.099869" xlink:href="#WorkSans-Regular-61"/>
       <use x="785.69986" xlink:href="#WorkSans-Regular-64"/>
       <use x="848.399857" xlink:href="#WorkSans-Regular-75"/>
       <use x="910.099854" xlink:href="#WorkSans-Regular-61"/>
       <use x="966.699844" xlink:href="#WorkSans-Regular-74"/>
       <use x="1008.599838" xlink:href="#WorkSans-Regular-65"/>
      </g>
     </g>
    </g>
    <g id="ytick_20">
     <g id="text_42">
      <!-- Health Insurance -->
      <g style="fill:#262626;" transform="translate(24.55875 383.886722)scale(0.1 -0.1)">
       <use xlink:href="#WorkSans-Regular-48"/>
       <use x="73.399994" xlink:href="#WorkSans-Regular-65"/>
       <use x="131.099991" xlink:href="#WorkSans-Regular-61"/>
       <use x="187.699982" xlink:href="#WorkSans-Regular-6c"/>
       <use x="218.299973" xlink:href="#WorkSans-Regular-74"/>
       <use x="260.199966" xlink:href="#WorkSans-Regular-68"/>
       <use x="322.09996" xlink:href="#WorkSans-Regular-20"/>
       <use x="356.199951" xlink:href="#WorkSans-Regular-49"/>
       <use x="385.799942" xlink:href="#WorkSans-Regular-6e"/>
       <use x="447.699936" xlink:href="#WorkSans-Regular-73"/>
       <use x="500.399933" xlink:href="#WorkSans-Regular-75"/>
       <use x="562.09993" xlink:href="#WorkSans-Regular-72"/>
       <use x="602.899918" xlink:href="#WorkSans-Regular-61"/>
       <use x="659.499908" xlink:href="#WorkSans-Regular-6e"/>
       <use x="721.399902" xlink:href="#WorkSans-Regular-63"/>
       <use x="777.399887" xlink:href="#WorkSans-Regular-65"/>
      </g>
     </g>
    </g>
    <g id="ytick_21">
     <g id="text_43">
      <!-- Married -->
      <g style="fill:#262626;" transform="translate(71.010312 401.343218)scale(0.1 -0.1)">
       <use xlink:href="#WorkSans-Regular-4d"/>
       <use x="85.399994" xlink:href="#WorkSans-Regular-61"/>
       <use x="141.999985" xlink:href="#WorkSans-Regular-72"/>
       <use x="182.799973" xlink:href="#WorkSans-Regular-72"/>
       <use x="223.59996" xlink:href="#WorkSans-Regular-69"/>
       <use x="250.199951" xlink:href="#WorkSans-Regular-65"/>
       <use x="307.899948" xlink:href="#WorkSans-Regular-64"/>
      </g>
     </g>
    </g>
    <g id="ytick_22">
     <g id="text_44">
      <!-- Household Size -->
      <g style="fill:#262626;" transform="translate(32.40875 418.799715)scale(0.1 -0.1)">
       <defs>
        <path d="M 365 0 
L 365 390 
L 2042 2355 
L 2445 2771 
L 1875 2758 
L 384 2758 
L 384 3200 
L 3014 3200 
L 3014 2810 
L 1338 845 
L 941 429 
L 1562 442 
L 3066 442 
L 3066 0 
L 365 0 
z
" id="WorkSans-Regular-7a" transform="scale(0.015625)"/>
       </defs>
       <use xlink:href="#WorkSans-Regular-48"/>
       <use x="73.399994" xlink:href="#WorkSans-Regular-6f"/>
       <use x="133.399979" xlink:href="#WorkSans-Regular-75"/>
       <use x="195.099976" xlink:href="#WorkSans-Regular-73"/>
       <use x="247.799973" xlink:href="#WorkSans-Regular-65"/>
       <use x="305.499969" xlink:href="#WorkSans-Regular-68"/>
       <use x="367.399963" xlink:href="#WorkSans-Regular-6f"/>
       <use x="427.399948" xlink:href="#WorkSans-Regular-6c"/>
       <use x="457.999939" xlink:href="#WorkSans-Regular-64"/>
       <use x="520.699936" xlink:href="#WorkSans-Regular-20"/>
       <use x="554.799927" xlink:href="#WorkSans-Regular-53"/>
       <use x="618.899918" xlink:href="#WorkSans-Regular-69"/>
       <use x="645.499908" xlink:href="#WorkSans-Regular-7a"/>
       <use x="698.899902" xlink:href="#WorkSans-Regular-65"/>
      </g>
     </g>
    </g>
    <g id="ytick_23">
     <g id="text_45">
      <!-- Military Health -->
      <g style="fill:#262626;" transform="translate(36.441563 436.256212)scale(0.1 -0.1)">
       <use xlink:href="#WorkSans-Regular-4d"/>
       <use x="85.399994" xlink:href="#WorkSans-Regular-69"/>
       <use x="111.999985" xlink:href="#WorkSans-Regular-6c"/>
       <use x="142.599976" xlink:href="#WorkSans-Regular-69"/>
       <use x="169.199966" xlink:href="#WorkSans-Regular-74"/>
       <use x="211.09996" xlink:href="#WorkSans-Regular-61"/>
       <use x="267.699951" xlink:href="#WorkSans-Regular-72"/>
       <use x="308.499939" xlink:href="#WorkSans-Regular-79"/>
       <use x="360.09993" xlink:href="#WorkSans-Regular-20"/>
       <use x="394.199921" xlink:href="#WorkSans-Regular-48"/>
       <use x="467.599915" xlink:href="#WorkSans-Regular-65"/>
       <use x="525.299911" xlink:href="#WorkSans-Regular-61"/>
       <use x="581.899902" xlink:href="#WorkSans-Regular-6c"/>
       <use x="612.499893" xlink:href="#WorkSans-Regular-74"/>
       <use x="654.399887" xlink:href="#WorkSans-Regular-68"/>
      </g>
     </g>
    </g>
   </g>
   <g id="LineCollection_23">
    <path clip-path="url(#pd5a5afa482)" d="M 236.335189 362.780225 
L 239.233111 362.780225 
" style="fill:none;stroke:#118ab2;"/>
   </g>
   <g id="LineCollection_24">
    <path clip-path="url(#pd5a5afa482)" d="M 119.706525 275.497742 
L 125.003894 275.497742 
" style="fill:none;stroke:#118ab2;"/>
   </g>
   <g id="LineCollection_25">
    <path clip-path="url(#pd5a5afa482)" d="M 242.107326 292.954239 
L 246.086689 292.954239 
" style="fill:none;stroke:#118ab2;"/>
   </g>
   <g id="LineCollection_26">
    <path clip-path="url(#pd5a5afa482)" d="M 217.407998 345.323728 
L 217.407998 345.323728 
" style="fill:none;stroke:#118ab2;"/>
   </g>
   <g id="LineCollection_27">
    <path clip-path="url(#pd5a5afa482)" d="M 248.597434 327.867232 
L 271.848404 327.867232 
" style="fill:none;stroke:#ff6f61;"/>
   </g>
   <g id="LineCollection_28">
    <path clip-path="url(#pd5a5afa482)" d="M 233.602965 380.236722 
L 258.324018 380.236722 
" style="fill:none;stroke:#ff6f61;"/>
   </g>
   <g id="LineCollection_29">
    <path clip-path="url(#pd5a5afa482)" d="M 244.658677 362.780225 
L 264.006323 362.780225 
" style="fill:none;stroke:#ff6f61;"/>
   </g>
   <g id="LineCollection_30">
    <path clip-path="url(#pd5a5afa482)" d="M 191.968629 415.149715 
L 202.276108 415.149715 
" style="fill:none;stroke:#ff6f61;"/>
   </g>
   <g id="LineCollection_31">
    <path clip-path="url(#pd5a5afa482)" d="M 141.756996 275.497742 
L 162.228326 275.497742 
" style="fill:none;stroke:#ff6f61;"/>
   </g>
   <g id="LineCollection_32">
    <path clip-path="url(#pd5a5afa482)" d="M 263.420082 292.954239 
L 288.428393 292.954239 
" style="fill:none;stroke:#ff6f61;"/>
   </g>
   <g id="LineCollection_33">
    <path clip-path="url(#pd5a5afa482)" d="M 231.239211 397.693218 
L 251.58381 397.693218 
" style="fill:none;stroke:#ff6f61;"/>
   </g>
   <g id="LineCollection_34">
    <path clip-path="url(#pd5a5afa482)" d="M 182.231871 432.606212 
L 242.471484 432.606212 
" style="fill:none;stroke:#ff6f61;"/>
   </g>
   <g id="LineCollection_35">
    <path clip-path="url(#pd5a5afa482)" d="M 254.16749 310.410735 
L 273.903779 310.410735 
" style="fill:none;stroke:#ff6f61;"/>
   </g>
   <g id="LineCollection_36">
    <path clip-path="url(#pd5a5afa482)" d="M 242.03646 345.323728 
L 276.034244 345.323728 
" style="fill:none;stroke:#ff6f61;"/>
   </g>
   <g id="line2d_42">
    <path clip-path="url(#pd5a5afa482)" d="M 217.407998 440.461635 
L 217.407998 267.642318 
" style="fill:none;stroke:#808080;stroke-dasharray:3.7,1.6;stroke-dashoffset:0;stroke-opacity:0.7;"/>
   </g>
   <g id="line2d_43">
    <g clip-path="url(#pd5a5afa482)">
     <use style="fill:#118ab2;stroke:#118ab2;" x="237.78415" xlink:href="#mbbee8f1bd8" y="362.780225"/>
    </g>
   </g>
   <g id="line2d_44">
    <g clip-path="url(#pd5a5afa482)">
     <use style="fill:#118ab2;stroke:#118ab2;" x="122.35521" xlink:href="#mbbee8f1bd8" y="275.497742"/>
    </g>
   </g>
   <g id="line2d_45">
    <g clip-path="url(#pd5a5afa482)">
     <use style="fill:#118ab2;stroke:#118ab2;" x="244.097007" xlink:href="#mbbee8f1bd8" y="292.954239"/>
    </g>
   </g>
   <g id="line2d_46">
    <g clip-path="url(#pd5a5afa482)">
     <use style="fill:#118ab2;stroke:#118ab2;" x="217.407998" xlink:href="#mbbee8f1bd8" y="345.323728"/>
    </g>
   </g>
   <g id="line2d_47">
    <g clip-path="url(#pd5a5afa482)">
     <use style="fill:#ff6f61;stroke:#ff6f61;" x="260.222919" xlink:href="#mc2d746a111" y="327.867232"/>
    </g>
   </g>
   <g id="line2d_48">
    <g clip-path="url(#pd5a5afa482)">
     <use style="fill:#ff6f61;stroke:#ff6f61;" x="245.963492" xlink:href="#mc2d746a111" y="380.236722"/>
    </g>
   </g>
   <g id="line2d_49">
    <g clip-path="url(#pd5a5afa482)">
     <use style="fill:#ff6f61;stroke:#ff6f61;" x="254.3325" xlink:href="#mc2d746a111" y="362.780225"/>
    </g>
   </g>
   <g id="line2d_50">
    <g clip-path="url(#pd5a5afa482)">
     <use style="fill:#ff6f61;stroke:#ff6f61;" x="197.122368" xlink:href="#mc2d746a111" y="415.149715"/>
    </g>
   </g>
   <g id="line2d_51">
    <g clip-path="url(#pd5a5afa482)">
     <use style="fill:#ff6f61;stroke:#ff6f61;" x="151.992661" xlink:href="#mc2d746a111" y="275.497742"/>
    </g>
   </g>
   <g id="line2d_52">
    <g clip-path="url(#pd5a5afa482)">
     <use style="fill:#ff6f61;stroke:#ff6f61;" x="275.924238" xlink:href="#mc2d746a111" y="292.954239"/>
    </g>
   </g>
   <g id="line2d_53">
    <g clip-path="url(#pd5a5afa482)">
     <use style="fill:#ff6f61;stroke:#ff6f61;" x="241.41151" xlink:href="#mc2d746a111" y="397.693218"/>
    </g>
   </g>
   <g id="line2d_54">
    <g clip-path="url(#pd5a5afa482)">
     <use style="fill:#ff6f61;stroke:#ff6f61;" x="212.351678" xlink:href="#mc2d746a111" y="432.606212"/>
    </g>
   </g>
   <g id="line2d_55">
    <g clip-path="url(#pd5a5afa482)">
     <use style="fill:#ff6f61;stroke:#ff6f61;" x="264.035635" xlink:href="#mc2d746a111" y="310.410735"/>
    </g>
   </g>
   <g id="line2d_56">
    <g clip-path="url(#pd5a5afa482)">
     <use style="fill:#ff6f61;stroke:#ff6f61;" x="259.035352" xlink:href="#mc2d746a111" y="345.323728"/>
    </g>
   </g>
   <g id="patch_10">
    <path d="M 110.069688 440.461635 
L 110.069688 267.642318 
" style="fill:none;stroke:#333333;stroke-linecap:square;stroke-linejoin:miter;stroke-width:0.5;"/>
   </g>
   <g id="patch_11">
    <path d="M 110.069688 440.461635 
L 288.20976 440.461635 
" style="fill:none;stroke:#333333;stroke-linecap:square;stroke-linejoin:miter;stroke-width:0.5;"/>
   </g>
   <g id="text_46">
    <!-- b -->
    <g style="fill:#262626;" transform="translate(70.878872 248.839733)scale(0.1 -0.1)">
     <defs>
      <path d="M 2445 -64 
Q 2131 -64 1891 77 
Q 1651 218 1497 464 
Q 1344 710 1299 1024 
L 1402 1158 
L 1344 0 
L 390 0 
L 390 4557 
L 1478 4557 
L 1478 2195 
L 1376 2349 
Q 1466 2746 1741 3005 
Q 2016 3264 2483 3264 
Q 2854 3264 3145 3065 
Q 3437 2867 3600 2492 
Q 3763 2118 3763 1587 
Q 3763 1069 3596 697 
Q 3430 326 3136 131 
Q 2842 -64 2445 -64 
z
M 2067 736 
Q 2349 736 2509 944 
Q 2669 1152 2669 1600 
Q 2669 2048 2509 2256 
Q 2349 2464 2067 2464 
Q 1882 2464 1750 2358 
Q 1619 2253 1548 2061 
Q 1478 1869 1478 1594 
Q 1478 1318 1548 1126 
Q 1619 934 1753 835 
Q 1888 736 2067 736 
z
" id="WorkSans-Bold-62" transform="scale(0.015625)"/>
     </defs>
     <use xlink:href="#WorkSans-Bold-62"/>
    </g>
   </g>
   <g id="text_47">
    <!-- Sociodemographics -->
    <g style="fill:#262626;" transform="translate(146.730739 257.642318)scale(0.11 -0.11)">
     <use xlink:href="#WorkSans-Regular-53"/>
     <use x="64.099991" xlink:href="#WorkSans-Regular-6f"/>
     <use x="124.099976" xlink:href="#WorkSans-Regular-63"/>
     <use x="180.09996" xlink:href="#WorkSans-Regular-69"/>
     <use x="206.699951" xlink:href="#WorkSans-Regular-6f"/>
     <use x="266.699936" xlink:href="#WorkSans-Regular-64"/>
     <use x="329.399933" xlink:href="#WorkSans-Regular-65"/>
     <use x="387.09993" xlink:href="#WorkSans-Regular-6d"/>
     <use x="482.399918" xlink:href="#WorkSans-Regular-6f"/>
     <use x="542.399902" xlink:href="#WorkSans-Regular-67"/>
     <use x="595.599899" xlink:href="#WorkSans-Regular-72"/>
     <use x="636.399887" xlink:href="#WorkSans-Regular-61"/>
     <use x="692.999878" xlink:href="#WorkSans-Regular-70"/>
     <use x="755.699875" xlink:href="#WorkSans-Regular-68"/>
     <use x="817.599869" xlink:href="#WorkSans-Regular-69"/>
     <use x="844.19986" xlink:href="#WorkSans-Regular-63"/>
     <use x="900.199844" xlink:href="#WorkSans-Regular-73"/>
    </g>
   </g>
  </g>
  <g id="axes_4">
   <g id="patch_12">
    <path d="M 407.735385 440.461635 
L 585.875458 440.461635 
L 585.875458 267.642318 
L 407.735385 267.642318 
z
" style="fill:#ffffff;"/>
   </g>
   <g id="matplotlib.axis_7">
    <g id="xtick_18">
     <g id="line2d_57">
      <path clip-path="url(#p0bd5e9b801)" d="M 424.319075 440.461635 
L 424.319075 267.642318 
" style="fill:none;stroke:#cccccc;stroke-linecap:round;stroke-opacity:0.25;"/>
     </g>
     <g id="text_48">
      <!-- −100 -->
      <g style="fill:#262626;" transform="translate(416.485637 447.571635)scale(0.07 -0.07)">
       <use xlink:href="#WorkSans-Regular-2212"/>
       <use x="60.399994" xlink:href="#WorkSans-Regular-31"/>
       <use x="99.399979" xlink:href="#WorkSans-Regular-30"/>
       <use x="161.599976" xlink:href="#WorkSans-Regular-30"/>
      </g>
     </g>
    </g>
    <g id="xtick_19">
     <g id="line2d_58">
      <path clip-path="url(#p0bd5e9b801)" d="M 468.448106 440.461635 
L 468.448106 267.642318 
" style="fill:none;stroke:#cccccc;stroke-linecap:round;stroke-opacity:0.25;"/>
     </g>
     <g id="text_49">
      <!-- −50 -->
      <g style="fill:#262626;" transform="translate(462.119668 447.571635)scale(0.07 -0.07)">
       <use xlink:href="#WorkSans-Regular-2212"/>
       <use x="60.399994" xlink:href="#WorkSans-Regular-35"/>
       <use x="118.599991" xlink:href="#WorkSans-Regular-30"/>
      </g>
     </g>
    </g>
    <g id="xtick_20">
     <g id="line2d_59">
      <path clip-path="url(#p0bd5e9b801)" d="M 512.577137 440.461635 
L 512.577137 267.642318 
" style="fill:none;stroke:#cccccc;stroke-linecap:round;stroke-opacity:0.25;"/>
     </g>
     <g id="text_50">
      <!-- 0 -->
      <g style="fill:#262626;" transform="translate(510.400028 447.571635)scale(0.07 -0.07)">
       <use xlink:href="#WorkSans-Regular-30"/>
      </g>
     </g>
    </g>
    <g id="xtick_21">
     <g id="line2d_60">
      <path clip-path="url(#p0bd5e9b801)" d="M 556.706168 440.461635 
L 556.706168 267.642318 
" style="fill:none;stroke:#cccccc;stroke-linecap:round;stroke-opacity:0.25;"/>
     </g>
     <g id="text_51">
      <!-- 50 -->
      <g style="fill:#262626;" transform="translate(552.491949 447.571635)scale(0.07 -0.07)">
       <use xlink:href="#WorkSans-Regular-35"/>
       <use x="58.199997" xlink:href="#WorkSans-Regular-30"/>
      </g>
     </g>
    </g>
   </g>
   <g id="matplotlib.axis_8">
    <g id="ytick_24">
     <g id="text_52">
      <!-- Smoke Exposure -->
      <g style="fill:#262626;" transform="translate(323.67601 279.147742)scale(0.1 -0.1)">
       <defs>
        <path d="M 902 3200 
L 1856 1862 
L 1888 1818 
L 3200 0 
L 2573 0 
L 1581 1389 
L 1523 1459 
L 262 3200 
L 902 3200 
z
M 3181 3200 
L 1914 1491 
L 1882 1491 
L 781 0 
L 186 0 
L 1581 1837 
L 1619 1837 
L 2579 3200 
L 3181 3200 
z
" id="WorkSans-Regular-78" transform="scale(0.015625)"/>
       </defs>
       <use xlink:href="#WorkSans-Regular-53"/>
       <use x="64.099991" xlink:href="#WorkSans-Regular-6d"/>
       <use x="159.399979" xlink:href="#WorkSans-Regular-6f"/>
       <use x="219.399963" xlink:href="#WorkSans-Regular-6b"/>
       <use x="276.09996" xlink:href="#WorkSans-Regular-65"/>
       <use x="333.799957" xlink:href="#WorkSans-Regular-20"/>
       <use x="367.899948" xlink:href="#WorkSans-Regular-45"/>
       <use x="431.699936" xlink:href="#WorkSans-Regular-78"/>
       <use x="484.999924" xlink:href="#WorkSans-Regular-70"/>
       <use x="547.699921" xlink:href="#WorkSans-Regular-6f"/>
       <use x="607.699905" xlink:href="#WorkSans-Regular-73"/>
       <use x="660.399902" xlink:href="#WorkSans-Regular-75"/>
       <use x="722.099899" xlink:href="#WorkSans-Regular-72"/>
       <use x="762.899887" xlink:href="#WorkSans-Regular-65"/>
      </g>
     </g>
    </g>
    <g id="ytick_25">
     <g id="text_53">
      <!-- PM2.5 -->
      <g style="fill:#262626;" transform="translate(376.785385 357.701977)scale(0.1 -0.1)">
       <defs>
        <path d="M 851 768 
Q 1037 768 1152 653 
Q 1267 538 1267 352 
Q 1267 166 1152 51 
Q 1037 -64 851 -64 
Q 666 -64 550 51 
Q 435 166 435 352 
Q 435 538 550 653 
Q 666 768 851 768 
z
" id="WorkSans-Regular-2e" transform="scale(0.015625)"/>
       </defs>
       <use xlink:href="#WorkSans-Regular-50"/>
       <use x="60.999985" xlink:href="#WorkSans-Regular-4d"/>
       <use x="146.399979" xlink:href="#WorkSans-Regular-32"/>
       <use x="204.699966" xlink:href="#WorkSans-Regular-2e"/>
       <use x="231.299957" xlink:href="#WorkSans-Regular-35"/>
      </g>
     </g>
    </g>
    <g id="ytick_26">
     <g id="text_54">
      <!-- PM10 -->
      <g style="fill:#262626;" transform="translate(380.974448 436.256212)scale(0.1 -0.1)">
       <use xlink:href="#WorkSans-Regular-50"/>
       <use x="60.999985" xlink:href="#WorkSans-Regular-4d"/>
       <use x="146.399979" xlink:href="#WorkSans-Regular-31"/>
       <use x="185.399963" xlink:href="#WorkSans-Regular-30"/>
      </g>
     </g>
    </g>
   </g>
   <g id="LineCollection_37">
    <path clip-path="url(#p0bd5e9b801)" d="M 476.168568 432.606212 
L 482.015488 432.606212 
" style="fill:none;stroke:#118ab2;"/>
   </g>
   <g id="LineCollection_38">
    <path clip-path="url(#p0bd5e9b801)" d="M 472.170478 354.051977 
L 478.017398 354.051977 
" style="fill:none;stroke:#118ab2;"/>
   </g>
   <g id="LineCollection_39">
    <path clip-path="url(#p0bd5e9b801)" d="M 472.170478 354.051977 
L 478.017398 354.051977 
" style="fill:none;stroke:#118ab2;"/>
   </g>
   <g id="LineCollection_40">
    <path clip-path="url(#p0bd5e9b801)" d="M 534.238843 275.497742 
L 549.25401 275.497742 
" style="fill:none;stroke:#118ab2;"/>
   </g>
   <g id="LineCollection_41">
    <path clip-path="url(#p0bd5e9b801)" d="M 396.803035 275.497742 
L 506.925797 275.497742 
" style="fill:none;stroke:#ff6f61;"/>
   </g>
   <g id="line2d_61">
    <path clip-path="url(#p0bd5e9b801)" d="M 512.577137 440.461635 
L 512.577137 267.642318 
" style="fill:none;stroke:#808080;stroke-dasharray:3.7,1.6;stroke-dashoffset:0;stroke-opacity:0.7;"/>
   </g>
   <g id="line2d_62">
    <g clip-path="url(#p0bd5e9b801)">
     <use style="fill:#118ab2;stroke:#118ab2;" x="479.092028" xlink:href="#mbbee8f1bd8" y="432.606212"/>
    </g>
   </g>
   <g id="line2d_63">
    <g clip-path="url(#p0bd5e9b801)">
     <use style="fill:#118ab2;stroke:#118ab2;" x="475.093938" xlink:href="#mbbee8f1bd8" y="354.051977"/>
    </g>
   </g>
   <g id="line2d_64">
    <g clip-path="url(#p0bd5e9b801)">
     <use style="fill:#118ab2;stroke:#118ab2;" x="475.093938" xlink:href="#mbbee8f1bd8" y="354.051977"/>
    </g>
   </g>
   <g id="line2d_65">
    <g clip-path="url(#p0bd5e9b801)">
     <use style="fill:#118ab2;stroke:#118ab2;" x="541.746426" xlink:href="#mbbee8f1bd8" y="275.497742"/>
    </g>
   </g>
   <g id="line2d_66">
    <g clip-path="url(#p0bd5e9b801)">
     <use style="fill:#ff6f61;stroke:#ff6f61;" x="451.864416" xlink:href="#mc2d746a111" y="275.497742"/>
    </g>
   </g>
   <g id="patch_13">
    <path d="M 407.735385 440.461635 
L 407.735385 267.642318 
" style="fill:none;stroke:#333333;stroke-linecap:square;stroke-linejoin:miter;stroke-width:0.5;"/>
   </g>
   <g id="patch_14">
    <path d="M 407.735385 440.461635 
L 585.875458 440.461635 
" style="fill:none;stroke:#333333;stroke-linecap:square;stroke-linejoin:miter;stroke-width:0.5;"/>
   </g>
   <g id="text_55">
    <!-- d -->
    <g style="fill:#262626;" transform="translate(368.544569 248.839733)scale(0.1 -0.1)">
     <defs>
      <path d="M 1568 -64 
Q 1171 -64 873 131 
Q 576 326 413 697 
Q 250 1069 250 1587 
Q 250 2125 419 2496 
Q 589 2867 893 3065 
Q 1197 3264 1594 3264 
Q 2029 3264 2294 2998 
Q 2560 2733 2637 2323 
L 2534 2189 
L 2534 4557 
L 3622 4557 
L 3622 0 
L 2650 0 
L 2579 1088 
L 2707 992 
Q 2669 672 2512 435 
Q 2355 198 2115 67 
Q 1875 -64 1568 -64 
z
M 1946 736 
Q 2131 736 2262 835 
Q 2394 934 2464 1132 
Q 2534 1331 2534 1619 
Q 2534 1888 2467 2077 
Q 2400 2266 2269 2365 
Q 2138 2464 1952 2464 
Q 1670 2464 1507 2256 
Q 1344 2048 1344 1600 
Q 1344 1152 1504 944 
Q 1664 736 1946 736 
z
" id="WorkSans-Bold-64" transform="scale(0.015625)"/>
     </defs>
     <use xlink:href="#WorkSans-Bold-64"/>
    </g>
   </g>
   <g id="text_56">
    <!-- Exposures -->
    <g style="fill:#262626;" transform="translate(469.008078 257.642318)scale(0.11 -0.11)">
     <use xlink:href="#WorkSans-Regular-45"/>
     <use x="63.799988" xlink:href="#WorkSans-Regular-78"/>
     <use x="117.099976" xlink:href="#WorkSans-Regular-70"/>
     <use x="179.799973" xlink:href="#WorkSans-Regular-6f"/>
     <use x="239.799957" xlink:href="#WorkSans-Regular-73"/>
     <use x="292.499954" xlink:href="#WorkSans-Regular-75"/>
     <use x="354.199951" xlink:href="#WorkSans-Regular-72"/>
     <use x="394.999939" xlink:href="#WorkSans-Regular-65"/>
     <use x="452.699936" xlink:href="#WorkSans-Regular-73"/>
    </g>
   </g>
  </g>
  <g id="text_57">
   <!-- FVC Effect Size (mL) -->
   <g style="fill:#262626;" transform="translate(242.597573 460.68)scale(0.1 -0.1)">
    <defs>
     <path d="M 1760 4806 
L 2054 4512 
Q 1632 4128 1382 3702 
Q 1133 3277 1024 2806 
Q 915 2336 915 1798 
Q 915 1267 1024 793 
Q 1133 320 1382 -102 
Q 1632 -525 2054 -915 
L 1760 -1210 
Q 1082 -621 736 137 
Q 390 896 390 1798 
Q 390 2701 736 3462 
Q 1082 4224 1760 4806 
z
" id="WorkSans-Regular-28" transform="scale(0.015625)"/>
     <path d="M 480 -1210 
L 186 -915 
Q 608 -525 857 -102 
Q 1107 320 1216 793 
Q 1325 1267 1325 1798 
Q 1325 2336 1216 2806 
Q 1107 3277 857 3702 
Q 608 4128 186 4512 
L 480 4806 
Q 1158 4224 1504 3462 
Q 1850 2701 1850 1798 
Q 1850 896 1504 137 
Q 1158 -621 480 -1210 
z
" id="WorkSans-Regular-29" transform="scale(0.015625)"/>
    </defs>
    <use xlink:href="#WorkSans-Regular-46"/>
    <use x="60.999985" xlink:href="#WorkSans-Regular-56"/>
    <use x="125.799973" xlink:href="#WorkSans-Regular-43"/>
    <use x="194.399963" xlink:href="#WorkSans-Regular-20"/>
    <use x="228.499954" xlink:href="#WorkSans-Regular-45"/>
    <use x="292.299942" xlink:href="#WorkSans-Regular-66"/>
    <use x="331.59993" xlink:href="#WorkSans-Regular-66"/>
    <use x="370.899918" xlink:href="#WorkSans-Regular-65"/>
    <use x="428.599915" xlink:href="#WorkSans-Regular-63"/>
    <use x="484.599899" xlink:href="#WorkSans-Regular-74"/>
    <use x="526.499893" xlink:href="#WorkSans-Regular-20"/>
    <use x="560.599884" xlink:href="#WorkSans-Regular-53"/>
    <use x="624.699875" xlink:href="#WorkSans-Regular-69"/>
    <use x="651.299866" xlink:href="#WorkSans-Regular-7a"/>
    <use x="704.69986" xlink:href="#WorkSans-Regular-65"/>
    <use x="762.399857" xlink:href="#WorkSans-Regular-20"/>
    <use x="796.499847" xlink:href="#WorkSans-Regular-28"/>
    <use x="831.499832" xlink:href="#WorkSans-Regular-6d"/>
    <use x="926.79982" xlink:href="#WorkSans-Regular-4c"/>
    <use x="986.599808" xlink:href="#WorkSans-Regular-29"/>
   </g>
  </g>
  <g id="legend_1">
   <g id="LineCollection_42">
    <path d="M 215.956166 9.24 
L 225.956166 9.24 
" style="fill:none;stroke:#118ab2;"/>
   </g>
   <g id="line2d_67"/>
   <g id="line2d_68">
    <g>
     <use style="fill:#118ab2;stroke:#118ab2;" x="220.956166" xlink:href="#mbbee8f1bd8" y="9.24"/>
    </g>
   </g>
   <g id="text_58">
    <!-- UK Biobank -->
    <g style="fill:#262626;" transform="translate(234.956166 12.74)scale(0.1 -0.1)">
     <use xlink:href="#WorkSans-Regular-55"/>
     <use x="70.799988" xlink:href="#WorkSans-Regular-4b"/>
     <use x="136.399979" xlink:href="#WorkSans-Regular-20"/>
     <use x="170.499969" xlink:href="#WorkSans-Regular-42"/>
     <use x="235.799957" xlink:href="#WorkSans-Regular-69"/>
     <use x="262.399948" xlink:href="#WorkSans-Regular-6f"/>
     <use x="322.399933" xlink:href="#WorkSans-Regular-62"/>
     <use x="385.09993" xlink:href="#WorkSans-Regular-61"/>
     <use x="441.699921" xlink:href="#WorkSans-Regular-6e"/>
     <use x="503.599915" xlink:href="#WorkSans-Regular-6b"/>
    </g>
   </g>
   <g id="LineCollection_43">
    <path d="M 311.984291 9.24 
L 321.984291 9.24 
" style="fill:none;stroke:#ff6f61;"/>
   </g>
   <g id="line2d_69"/>
   <g id="line2d_70">
    <g>
     <use style="fill:#ff6f61;stroke:#ff6f61;" x="316.984291" xlink:href="#mc2d746a111" y="9.24"/>
    </g>
   </g>
   <g id="text_59">
    <!-- NHANES -->
    <g style="fill:#262626;" transform="translate(330.984291 12.74)scale(0.1 -0.1)">
     <use xlink:href="#WorkSans-Regular-4e"/>
     <use x="73.399994" xlink:href="#WorkSans-Regular-48"/>
     <use x="146.799988" xlink:href="#WorkSans-Regular-41"/>
     <use x="212.799973" xlink:href="#WorkSans-Regular-4e"/>
     <use x="286.199966" xlink:href="#WorkSans-Regular-45"/>
     <use x="349.999954" xlink:href="#WorkSans-Regular-53"/>
    </g>
   </g>
  </g>
 </g>
 <defs>
  <clipPath id="p9ddd6f7df6">
   <rect height="172.819317" width="178.140073" x="110.069688" y="49.242558"/>
  </clipPath>
  <clipPath id="p1820063d89">
   <rect height="172.819317" width="178.140072" x="407.735385" y="49.242558"/>
  </clipPath>
  <clipPath id="pd5a5afa482">
   <rect height="172.819317" width="178.140073" x="110.069688" y="267.642318"/>
  </clipPath>
  <clipPath id="p0bd5e9b801">
   <rect height="172.819317" width="178.140072" x="407.735385" y="267.642318"/>
  </clipPath>
 </defs>
</svg>
