<?xml version="1.0" encoding="utf-8" standalone="no"?>
<!DOCTYPE svg PUBLIC "-//W3C//DTD SVG 1.1//EN"
  "http://www.w3.org/Graphics/SVG/1.1/DTD/svg11.dtd">
<svg height="359.760794pt" version="1.1" viewBox="0 0 573.39616 359.760794" width="573.39616pt" xmlns="http://www.w3.org/2000/svg" xmlns:xlink="http://www.w3.org/1999/xlink">
 <metadata>
  <rdf:RDF xmlns:cc="http://creativecommons.org/ns#" xmlns:dc="http://purl.org/dc/elements/1.1/" xmlns:rdf="http://www.w3.org/1999/02/22-rdf-syntax-ns#">
   <cc:Work>
    <dc:type rdf:resource="http://purl.org/dc/dcmitype/StillImage"/>
    <dc:date>2026-05-12T20:39:52.371399</dc:date>
    <dc:format>image/svg+xml</dc:format>
    <dc:creator>
     <cc:Agent>
      <dc:title>Matplotlib v3.4.2, https://matplotlib.org/</dc:title>
     </cc:Agent>
    </dc:creator>
   </cc:Work>
  </rdf:RDF>
 </metadata>
 <defs>
  <style type="text/css">*{stroke-linecap:butt;stroke-linejoin:round;}</style>
 </defs>
 <g id="figure_1">
  <g id="patch_1">
   <path d="M 0 359.760794 
L 573.39616 359.760794 
L 573.39616 0 
L 0 0 
z
" style="fill:#ffffff;"/>
  </g>
  <g id="axes_1">
   <g id="patch_2">
    <path d="M 32.61312 164.2 
L 552.16512 164.2 
L 552.16512 38.76 
L 32.61312 38.76 
z
" style="fill:#ffffff;"/>
   </g>
   <g id="matplotlib.axis_1">
    <g id="xtick_1"/>
    <g id="xtick_2"/>
    <g id="xtick_3"/>
    <g id="xtick_4"/>
    <g id="xtick_5"/>
    <g id="xtick_6"/>
    <g id="xtick_7"/>
    <g id="xtick_8"/>
    <g id="xtick_9"/>
   </g>
   <g id="matplotlib.axis_2">
    <g id="ytick_1">
     <g id="line2d_1">
      <path clip-path="url(#pcf0613a5c8)" d="M 32.61312 156.65891 
L 552.16512 156.65891 
" style="fill:none;stroke:#cccccc;stroke-dasharray:1,1.65;stroke-dashoffset:0;stroke-opacity:0.6;"/>
     </g>
     <g id="text_1">
      <!-- 0 -->
      <g style="fill:#262626;" transform="translate(26.258901 159.21391)scale(0.07 -0.07)">
       <defs>
        <path d="M 1990 -64 
Q 1274 -64 845 493 
Q 416 1050 416 2112 
Q 416 3174 845 3731 
Q 1274 4288 1990 4288 
Q 2714 4288 3139 3731 
Q 3565 3174 3565 2112 
Q 3565 1050 3139 493 
Q 2714 -64 1990 -64 
z
M 1990 397 
Q 2330 397 2563 592 
Q 2797 787 2915 1171 
Q 3034 1555 3034 2112 
Q 3034 2669 2915 3053 
Q 2797 3437 2563 3632 
Q 2330 3827 1990 3827 
Q 1651 3827 1417 3632 
Q 1184 3437 1065 3053 
Q 947 2669 947 2112 
Q 947 1555 1065 1171 
Q 1184 787 1417 592 
Q 1651 397 1990 397 
z
" id="WorkSans-Regular-30" transform="scale(0.015625)"/>
       </defs>
       <use xlink:href="#WorkSans-Regular-30"/>
      </g>
     </g>
    </g>
    <g id="ytick_2">
     <g id="line2d_2">
      <path clip-path="url(#pcf0613a5c8)" d="M 32.61312 135.568871 
L 552.16512 135.568871 
" style="fill:none;stroke:#cccccc;stroke-dasharray:1,1.65;stroke-dashoffset:0;stroke-opacity:0.6;"/>
     </g>
     <g id="text_2">
      <!-- 20 -->
      <g style="fill:#262626;" transform="translate(22.17812 138.123871)scale(0.07 -0.07)">
       <defs>
        <path d="M 474 0 
L 474 416 
Q 1107 883 1532 1235 
Q 1958 1587 2214 1875 
Q 2470 2163 2579 2422 
Q 2688 2682 2688 2963 
Q 2688 3341 2448 3574 
Q 2208 3808 1792 3808 
Q 1357 3808 1094 3523 
Q 832 3238 787 2765 
L 339 3034 
Q 397 3405 579 3686 
Q 762 3968 1072 4128 
Q 1382 4288 1811 4288 
Q 2138 4288 2397 4192 
Q 2656 4096 2841 3920 
Q 3027 3744 3126 3501 
Q 3226 3258 3226 2963 
Q 3226 2566 3034 2185 
Q 2842 1805 2400 1389 
Q 1958 973 1203 467 
L 1203 461 
Q 1274 467 1398 470 
Q 1523 474 1648 477 
Q 1773 480 1837 480 
L 3315 480 
L 3315 0 
L 474 0 
z
" id="WorkSans-Regular-32" transform="scale(0.015625)"/>
       </defs>
       <use xlink:href="#WorkSans-Regular-32"/>
       <use x="58.299988" xlink:href="#WorkSans-Regular-30"/>
      </g>
     </g>
    </g>
    <g id="ytick_3">
     <g id="line2d_3">
      <path clip-path="url(#pcf0613a5c8)" d="M 32.61312 114.478832 
L 552.16512 114.478832 
" style="fill:none;stroke:#cccccc;stroke-dasharray:1,1.65;stroke-dashoffset:0;stroke-opacity:0.6;"/>
     </g>
     <g id="text_3">
      <!-- 40 -->
      <g style="fill:#262626;" transform="translate(21.982339 117.033832)scale(0.07 -0.07)">
       <defs>
        <path d="M 2342 0 
L 2342 1107 
L 282 1107 
L 282 1485 
Q 282 1485 282 1485 
Q 282 1485 282 1485 
L 2208 4224 
L 2854 4224 
L 2854 1549 
L 3603 1549 
L 3603 1107 
L 2854 1107 
L 2854 0 
L 2342 0 
z
M 826 1549 
L 2342 1549 
L 2342 3130 
Q 2342 3296 2352 3469 
Q 2362 3642 2368 3808 
L 2355 3808 
Q 2278 3648 2156 3449 
Q 2035 3251 1933 3104 
L 826 1549 
Q 826 1549 826 1549 
Q 826 1549 826 1549 
z
" id="WorkSans-Regular-34" transform="scale(0.015625)"/>
       </defs>
       <use xlink:href="#WorkSans-Regular-34"/>
       <use x="61.099991" xlink:href="#WorkSans-Regular-30"/>
      </g>
     </g>
    </g>
    <g id="ytick_4">
     <g id="line2d_4">
      <path clip-path="url(#pcf0613a5c8)" d="M 32.61312 93.388794 
L 552.16512 93.388794 
" style="fill:none;stroke:#cccccc;stroke-dasharray:1,1.65;stroke-dashoffset:0;stroke-opacity:0.6;"/>
     </g>
     <g id="text_4">
      <!-- 60 -->
      <g style="fill:#262626;" transform="translate(22.00312 95.943794)scale(0.07 -0.07)">
       <defs>
        <path d="M 2067 4288 
Q 2406 4288 2659 4195 
Q 2912 4102 3097 3907 
Q 3283 3712 3411 3398 
L 2938 3174 
Q 2842 3469 2627 3638 
Q 2413 3808 2035 3808 
Q 1760 3808 1549 3670 
Q 1338 3533 1190 3289 
Q 1043 3046 969 2720 
Q 896 2394 896 2016 
Q 896 2003 896 1977 
Q 896 1952 896 1901 
L 922 1901 
Q 992 2176 1181 2345 
Q 1370 2515 1610 2595 
Q 1850 2675 2080 2675 
Q 2509 2675 2829 2508 
Q 3149 2342 3325 2035 
Q 3501 1728 3501 1306 
Q 3501 890 3321 579 
Q 3142 269 2819 102 
Q 2496 -64 2048 -64 
Q 1517 -64 1152 217 
Q 787 499 601 988 
Q 416 1478 416 2112 
Q 416 2822 633 3305 
Q 851 3789 1225 4038 
Q 1600 4288 2067 4288 
z
M 2042 2182 
Q 1766 2182 1558 2070 
Q 1350 1958 1235 1763 
Q 1120 1568 1120 1312 
Q 1120 1069 1241 867 
Q 1363 666 1571 547 
Q 1779 429 2042 429 
Q 2477 429 2720 662 
Q 2963 896 2963 1312 
Q 2963 1581 2854 1776 
Q 2746 1971 2541 2076 
Q 2336 2182 2042 2182 
z
" id="WorkSans-Regular-36" transform="scale(0.015625)"/>
       </defs>
       <use xlink:href="#WorkSans-Regular-36"/>
       <use x="60.799988" xlink:href="#WorkSans-Regular-30"/>
      </g>
     </g>
    </g>
    <g id="ytick_5">
     <g id="line2d_5">
      <path clip-path="url(#pcf0613a5c8)" d="M 32.61312 72.298755 
L 552.16512 72.298755 
" style="fill:none;stroke:#cccccc;stroke-dasharray:1,1.65;stroke-dashoffset:0;stroke-opacity:0.6;"/>
     </g>
     <g id="text_5">
      <!-- 80 -->
      <g style="fill:#262626;" transform="translate(21.947339 74.853755)scale(0.07 -0.07)">
       <defs>
        <path d="M 1971 4282 
Q 2381 4282 2681 4147 
Q 2982 4013 3148 3766 
Q 3315 3520 3315 3174 
Q 3315 2848 3158 2601 
Q 3002 2355 2720 2227 
L 2720 2221 
Q 3078 2086 3292 1811 
Q 3507 1536 3507 1139 
Q 3507 768 3315 499 
Q 3123 230 2780 83 
Q 2438 -64 1971 -64 
Q 1510 -64 1164 83 
Q 819 230 627 499 
Q 435 768 435 1139 
Q 435 1530 646 1808 
Q 858 2086 1229 2221 
L 1229 2227 
Q 954 2349 790 2595 
Q 627 2842 627 3174 
Q 627 3520 793 3766 
Q 960 4013 1264 4147 
Q 1568 4282 1971 4282 
z
M 1971 3802 
Q 1600 3802 1379 3622 
Q 1158 3443 1158 3123 
Q 1158 2810 1382 2630 
Q 1606 2451 1971 2451 
Q 2336 2451 2560 2630 
Q 2784 2810 2784 3123 
Q 2784 3443 2566 3622 
Q 2349 3802 1971 3802 
z
M 1971 416 
Q 2285 416 2509 509 
Q 2733 602 2854 778 
Q 2976 954 2976 1190 
Q 2976 1434 2851 1610 
Q 2726 1786 2502 1878 
Q 2278 1971 1971 1971 
Q 1670 1971 1443 1878 
Q 1216 1786 1091 1610 
Q 966 1434 966 1190 
Q 966 954 1088 778 
Q 1210 602 1437 509 
Q 1664 416 1971 416 
z
" id="WorkSans-Regular-38" transform="scale(0.015625)"/>
       </defs>
       <use xlink:href="#WorkSans-Regular-38"/>
       <use x="61.599991" xlink:href="#WorkSans-Regular-30"/>
      </g>
     </g>
    </g>
    <g id="ytick_6">
     <g id="line2d_6">
      <path clip-path="url(#pcf0613a5c8)" d="M 32.61312 51.208717 
L 552.16512 51.208717 
" style="fill:none;stroke:#cccccc;stroke-dasharray:1,1.65;stroke-dashoffset:0;stroke-opacity:0.6;"/>
     </g>
     <g id="text_6">
      <!-- 100 -->
      <g style="fill:#262626;" transform="translate(19.174683 53.763717)scale(0.07 -0.07)">
       <defs>
        <path d="M 1331 0 
L 1331 3098 
Q 1331 3206 1334 3331 
Q 1338 3456 1344 3590 
Q 1126 3379 838 3222 
Q 550 3066 250 2995 
L 115 3462 
Q 230 3475 406 3548 
Q 582 3622 777 3734 
Q 973 3846 1139 3974 
Q 1306 4102 1395 4224 
L 1843 4224 
L 1843 0 
L 1331 0 
z
" id="WorkSans-Regular-31" transform="scale(0.015625)"/>
       </defs>
       <use xlink:href="#WorkSans-Regular-31"/>
       <use x="38.999985" xlink:href="#WorkSans-Regular-30"/>
       <use x="101.199982" xlink:href="#WorkSans-Regular-30"/>
      </g>
     </g>
    </g>
    <g id="text_7">
     <!-- FEV1 (%) -->
     <g style="fill:#262626;" transform="translate(14.864683 124.485469)rotate(-90)scale(0.11 -0.11)">
      <defs>
       <path d="M 3648 3744 
L 1203 3744 
L 1203 2381 
L 3110 2381 
L 3110 1901 
L 1203 1901 
L 1203 0 
L 691 0 
L 691 4224 
L 3648 4224 
L 3648 3744 
z
" id="WorkSans-Regular-46" transform="scale(0.015625)"/>
       <path d="M 691 0 
L 691 4224 
L 3654 4224 
L 3654 3744 
L 1203 3744 
L 1203 2381 
L 3110 2381 
L 3110 1901 
L 1203 1901 
L 1203 480 
L 3750 480 
L 3750 0 
L 691 0 
z
" id="WorkSans-Regular-45" transform="scale(0.015625)"/>
       <path d="M 3968 4224 
L 2368 0 
L 1786 0 
L 179 4224 
L 730 4224 
L 1805 1306 
L 2074 467 
L 2342 1299 
L 3418 4224 
L 3968 4224 
z
" id="WorkSans-Regular-56" transform="scale(0.015625)"/>
       <path id="WorkSans-Regular-20" transform="scale(0.015625)"/>
       <path d="M 1760 4806 
L 2054 4512 
Q 1632 4128 1382 3702 
Q 1133 3277 1024 2806 
Q 915 2336 915 1798 
Q 915 1267 1024 793 
Q 1133 320 1382 -102 
Q 1632 -525 2054 -915 
L 1760 -1210 
Q 1082 -621 736 137 
Q 390 896 390 1798 
Q 390 2701 736 3462 
Q 1082 4224 1760 4806 
z
" id="WorkSans-Regular-28" transform="scale(0.015625)"/>
       <path d="M 1152 0 
L 3840 4224 
L 4326 4224 
L 1638 0 
L 1152 0 
z
M 1274 4288 
Q 1587 4288 1814 4144 
Q 2042 4000 2166 3737 
Q 2291 3475 2291 3123 
Q 2291 2771 2166 2508 
Q 2042 2246 1814 2102 
Q 1587 1958 1274 1958 
Q 966 1958 736 2102 
Q 506 2246 381 2508 
Q 256 2771 256 3123 
Q 256 3475 381 3737 
Q 506 4000 736 4144 
Q 966 4288 1274 4288 
z
M 1274 3885 
Q 1094 3885 966 3795 
Q 838 3706 774 3536 
Q 710 3366 710 3123 
Q 710 2886 774 2713 
Q 838 2541 966 2451 
Q 1094 2362 1274 2362 
Q 1459 2362 1584 2451 
Q 1709 2541 1773 2713 
Q 1837 2886 1837 3123 
Q 1837 3366 1773 3536 
Q 1709 3706 1584 3795 
Q 1459 3885 1274 3885 
z
M 4205 2266 
Q 4518 2266 4745 2122 
Q 4973 1978 5097 1715 
Q 5222 1453 5222 1101 
Q 5222 749 5097 486 
Q 4973 224 4745 80 
Q 4518 -64 4205 -64 
Q 3898 -64 3667 80 
Q 3437 224 3312 486 
Q 3187 749 3187 1101 
Q 3187 1453 3312 1715 
Q 3437 1978 3667 2122 
Q 3898 2266 4205 2266 
z
M 4205 1862 
Q 4026 1862 3898 1772 
Q 3770 1683 3706 1513 
Q 3642 1344 3642 1101 
Q 3642 864 3706 691 
Q 3770 518 3898 428 
Q 4026 339 4205 339 
Q 4390 339 4515 428 
Q 4640 518 4704 691 
Q 4768 864 4768 1101 
Q 4768 1344 4704 1513 
Q 4640 1683 4515 1772 
Q 4390 1862 4205 1862 
z
" id="WorkSans-Regular-25" transform="scale(0.015625)"/>
       <path d="M 480 -1210 
L 186 -915 
Q 608 -525 857 -102 
Q 1107 320 1216 793 
Q 1325 1267 1325 1798 
Q 1325 2336 1216 2806 
Q 1107 3277 857 3702 
Q 608 4128 186 4512 
L 480 4806 
Q 1158 4224 1504 3462 
Q 1850 2701 1850 1798 
Q 1850 896 1504 137 
Q 1158 -621 480 -1210 
z
" id="WorkSans-Regular-29" transform="scale(0.015625)"/>
      </defs>
      <use xlink:href="#WorkSans-Regular-46"/>
      <use x="60.999985" xlink:href="#WorkSans-Regular-45"/>
      <use x="124.799973" xlink:href="#WorkSans-Regular-56"/>
      <use x="189.59996" xlink:href="#WorkSans-Regular-31"/>
      <use x="228.599945" xlink:href="#WorkSans-Regular-20"/>
      <use x="262.699936" xlink:href="#WorkSans-Regular-28"/>
      <use x="297.699921" xlink:href="#WorkSans-Regular-25"/>
      <use x="383.299911" xlink:href="#WorkSans-Regular-29"/>
     </g>
    </g>
   </g>
   <g id="patch_3">
    <path d="M 32.61312 164.2 
L 32.61312 38.76 
" style="fill:none;stroke:#333333;stroke-linecap:square;stroke-linejoin:miter;stroke-width:0.5;"/>
   </g>
   <g id="patch_4">
    <path d="M 32.61312 164.2 
L 552.16512 164.2 
" style="fill:none;stroke:#333333;stroke-linecap:square;stroke-linejoin:miter;stroke-width:0.5;"/>
   </g>
   <g id="line2d_7">
    <path clip-path="url(#pcf0613a5c8)" d="M 56.22912 156.65891 
L 115.26912 158.498182 
L 174.30912 141.482806 
L 233.34912 135.372288 
L 292.38912 136.329891 
L 351.42912 136.131621 
L 410.46912 135.268935 
L 469.50912 135.22675 
L 528.54912 134.785915 
" style="fill:none;stroke:#ff6f61;stroke-linecap:round;stroke-width:1.2;"/>
    <defs>
     <path d="M 0 2.5 
C 0.663008 2.5 1.29895 2.236584 1.767767 1.767767 
C 2.236584 1.29895 2.5 0.663008 2.5 0 
C 2.5 -0.663008 2.236584 -1.29895 1.767767 -1.767767 
C 1.29895 -2.236584 0.663008 -2.5 0 -2.5 
C -0.663008 -2.5 -1.29895 -2.236584 -1.767767 -1.767767 
C -2.236584 -1.29895 -2.5 -0.663008 -2.5 0 
C -2.5 0.663008 -2.236584 1.29895 -1.767767 1.767767 
C -1.29895 2.236584 -0.663008 2.5 0 2.5 
z
" id="m49819ab582" style="stroke:#ff6f61;"/>
    </defs>
    <g clip-path="url(#pcf0613a5c8)">
     <use style="fill:#ff6f61;stroke:#ff6f61;" x="56.22912" xlink:href="#m49819ab582" y="156.65891"/>
     <use style="fill:#ff6f61;stroke:#ff6f61;" x="115.26912" xlink:href="#m49819ab582" y="158.498182"/>
     <use style="fill:#ff6f61;stroke:#ff6f61;" x="174.30912" xlink:href="#m49819ab582" y="141.482806"/>
     <use style="fill:#ff6f61;stroke:#ff6f61;" x="233.34912" xlink:href="#m49819ab582" y="135.372288"/>
     <use style="fill:#ff6f61;stroke:#ff6f61;" x="292.38912" xlink:href="#m49819ab582" y="136.329891"/>
     <use style="fill:#ff6f61;stroke:#ff6f61;" x="351.42912" xlink:href="#m49819ab582" y="136.131621"/>
     <use style="fill:#ff6f61;stroke:#ff6f61;" x="410.46912" xlink:href="#m49819ab582" y="135.268935"/>
     <use style="fill:#ff6f61;stroke:#ff6f61;" x="469.50912" xlink:href="#m49819ab582" y="135.22675"/>
     <use style="fill:#ff6f61;stroke:#ff6f61;" x="528.54912" xlink:href="#m49819ab582" y="134.785915"/>
    </g>
   </g>
   <g id="line2d_8">
    <path clip-path="url(#pcf0613a5c8)" d="M 56.22912 156.65891 
L 115.26912 68.271351 
L 174.30912 64.495162 
L 233.34912 59.024273 
L 292.38912 54.968956 
L 351.42912 47.81533 
L 410.46912 44.864559 
L 469.50912 44.461818 
L 528.54912 45.430788 
" style="fill:none;stroke:#c94cc2;stroke-linecap:round;stroke-width:1.2;"/>
    <defs>
     <path d="M 0 2.5 
C 0.663008 2.5 1.29895 2.236584 1.767767 1.767767 
C 2.236584 1.29895 2.5 0.663008 2.5 0 
C 2.5 -0.663008 2.236584 -1.29895 1.767767 -1.767767 
C 1.29895 -2.236584 0.663008 -2.5 0 -2.5 
C -0.663008 -2.5 -1.29895 -2.236584 -1.767767 -1.767767 
C -2.236584 -1.29895 -2.5 -0.663008 -2.5 0 
C -2.5 0.663008 -2.236584 1.29895 -1.767767 1.767767 
C -1.29895 2.236584 -0.663008 2.5 0 2.5 
z
" id="m2a147c125e" style="stroke:#c94cc2;"/>
    </defs>
    <g clip-path="url(#pcf0613a5c8)">
     <use style="fill:#c94cc2;stroke:#c94cc2;" x="56.22912" xlink:href="#m2a147c125e" y="156.65891"/>
     <use style="fill:#c94cc2;stroke:#c94cc2;" x="115.26912" xlink:href="#m2a147c125e" y="68.271351"/>
     <use style="fill:#c94cc2;stroke:#c94cc2;" x="174.30912" xlink:href="#m2a147c125e" y="64.495162"/>
     <use style="fill:#c94cc2;stroke:#c94cc2;" x="233.34912" xlink:href="#m2a147c125e" y="59.024273"/>
     <use style="fill:#c94cc2;stroke:#c94cc2;" x="292.38912" xlink:href="#m2a147c125e" y="54.968956"/>
     <use style="fill:#c94cc2;stroke:#c94cc2;" x="351.42912" xlink:href="#m2a147c125e" y="47.81533"/>
     <use style="fill:#c94cc2;stroke:#c94cc2;" x="410.46912" xlink:href="#m2a147c125e" y="44.864559"/>
     <use style="fill:#c94cc2;stroke:#c94cc2;" x="469.50912" xlink:href="#m2a147c125e" y="44.461818"/>
     <use style="fill:#c94cc2;stroke:#c94cc2;" x="528.54912" xlink:href="#m2a147c125e" y="45.430788"/>
    </g>
   </g>
   <g id="line2d_9">
    <path clip-path="url(#pcf0613a5c8)" d="M 56.22912 156.65891 
L 115.26912 115.311165 
L 174.30912 113.068135 
L 233.34912 113.418141 
L 292.38912 114.0648 
L 351.42912 104.12589 
L 410.46912 103.970094 
L 469.50912 103.496305 
L 528.54912 103.481365 
" style="fill:none;stroke:#118ab2;stroke-linecap:round;stroke-width:1.2;"/>
    <defs>
     <path d="M 0 2.5 
C 0.663008 2.5 1.29895 2.236584 1.767767 1.767767 
C 2.236584 1.29895 2.5 0.663008 2.5 0 
C 2.5 -0.663008 2.236584 -1.29895 1.767767 -1.767767 
C 1.29895 -2.236584 0.663008 -2.5 0 -2.5 
C -0.663008 -2.5 -1.29895 -2.236584 -1.767767 -1.767767 
C -2.236584 -1.29895 -2.5 -0.663008 -2.5 0 
C -2.5 0.663008 -2.236584 1.29895 -1.767767 1.767767 
C -1.29895 2.236584 -0.663008 2.5 0 2.5 
z
" id="m5163e15eaa" style="stroke:#118ab2;"/>
    </defs>
    <g clip-path="url(#pcf0613a5c8)">
     <use style="fill:#118ab2;stroke:#118ab2;" x="56.22912" xlink:href="#m5163e15eaa" y="156.65891"/>
     <use style="fill:#118ab2;stroke:#118ab2;" x="115.26912" xlink:href="#m5163e15eaa" y="115.311165"/>
     <use style="fill:#118ab2;stroke:#118ab2;" x="174.30912" xlink:href="#m5163e15eaa" y="113.068135"/>
     <use style="fill:#118ab2;stroke:#118ab2;" x="233.34912" xlink:href="#m5163e15eaa" y="113.418141"/>
     <use style="fill:#118ab2;stroke:#118ab2;" x="292.38912" xlink:href="#m5163e15eaa" y="114.0648"/>
     <use style="fill:#118ab2;stroke:#118ab2;" x="351.42912" xlink:href="#m5163e15eaa" y="104.12589"/>
     <use style="fill:#118ab2;stroke:#118ab2;" x="410.46912" xlink:href="#m5163e15eaa" y="103.970094"/>
     <use style="fill:#118ab2;stroke:#118ab2;" x="469.50912" xlink:href="#m5163e15eaa" y="103.496305"/>
     <use style="fill:#118ab2;stroke:#118ab2;" x="528.54912" xlink:href="#m5163e15eaa" y="103.481365"/>
    </g>
   </g>
   <g id="text_8">
    <!-- NHANES III -->
    <g style="fill:#262626;" transform="translate(564.65616 74.630781)rotate(-270)scale(0.1 -0.1)">
     <defs>
      <path d="M 4006 4224 
L 4006 0 
L 3373 0 
L 1606 2829 
L 1158 3622 
L 1152 3622 
L 1178 2982 
L 1178 0 
L 691 0 
L 691 4224 
L 1325 4224 
L 3085 1408 
L 3539 595 
L 3546 595 
L 3520 1242 
L 3520 4224 
L 4006 4224 
z
" id="WorkSans-Regular-4e" transform="scale(0.015625)"/>
      <path d="M 4006 4224 
L 4006 0 
L 3494 0 
L 3494 4224 
L 4006 4224 
z
M 1203 4224 
L 1203 0 
L 691 0 
L 691 4224 
L 1203 4224 
z
M 3731 2381 
L 3731 1901 
L 960 1901 
L 960 2381 
L 3731 2381 
z
" id="WorkSans-Regular-48" transform="scale(0.015625)"/>
      <path d="M 4058 0 
L 3514 0 
L 3066 1171 
L 1152 1171 
L 704 0 
L 166 0 
L 1811 4224 
L 2419 4224 
L 4058 0 
z
M 1338 1651 
L 2880 1651 
L 2106 3731 
L 1338 1651 
z
" id="WorkSans-Regular-41" transform="scale(0.015625)"/>
      <path d="M 2048 4288 
Q 2605 4288 3008 4061 
Q 3411 3834 3680 3392 
L 3251 3059 
Q 3014 3469 2716 3638 
Q 2419 3808 1997 3808 
Q 1658 3808 1437 3712 
Q 1216 3616 1113 3459 
Q 1011 3302 1011 3104 
Q 1011 2880 1152 2710 
Q 1293 2541 1715 2445 
L 2630 2240 
Q 3238 2106 3478 1834 
Q 3718 1562 3718 1158 
Q 3718 800 3516 521 
Q 3315 243 2950 89 
Q 2586 -64 2093 -64 
Q 1632 -64 1283 61 
Q 934 186 684 397 
Q 435 608 275 870 
L 723 1235 
Q 845 992 1037 806 
Q 1229 621 1501 518 
Q 1773 416 2125 416 
Q 2451 416 2691 496 
Q 2931 576 3059 733 
Q 3187 890 3187 1114 
Q 3187 1318 3052 1481 
Q 2918 1645 2547 1728 
L 1555 1952 
Q 1165 2042 925 2198 
Q 685 2355 579 2569 
Q 474 2784 474 3034 
Q 474 3373 662 3657 
Q 851 3942 1206 4115 
Q 1562 4288 2048 4288 
z
" id="WorkSans-Regular-53" transform="scale(0.015625)"/>
      <path d="M 1203 4224 
L 1203 0 
L 691 0 
L 691 4224 
L 1203 4224 
z
" id="WorkSans-Regular-49" transform="scale(0.015625)"/>
     </defs>
     <use xlink:href="#WorkSans-Regular-4e"/>
     <use x="73.399994" xlink:href="#WorkSans-Regular-48"/>
     <use x="146.799988" xlink:href="#WorkSans-Regular-41"/>
     <use x="212.799973" xlink:href="#WorkSans-Regular-4e"/>
     <use x="286.199966" xlink:href="#WorkSans-Regular-45"/>
     <use x="349.999954" xlink:href="#WorkSans-Regular-53"/>
     <use x="414.099945" xlink:href="#WorkSans-Regular-20"/>
     <use x="448.199936" xlink:href="#WorkSans-Regular-49"/>
     <use x="477.799927" xlink:href="#WorkSans-Regular-49"/>
     <use x="507.399918" xlink:href="#WorkSans-Regular-49"/>
    </g>
   </g>
   <g id="text_9">
    <!-- a -->
    <g style="fill:#262626;" transform="translate(1.44 39.608312)scale(0.1 -0.1)">
     <defs>
      <path d="M 2176 2029 
Q 2176 2253 2051 2384 
Q 1926 2515 1715 2515 
Q 1504 2515 1353 2409 
Q 1203 2304 1146 2035 
L 224 2253 
Q 314 2714 698 2989 
Q 1082 3264 1779 3264 
Q 2246 3264 2576 3126 
Q 2906 2989 3082 2717 
Q 3258 2445 3258 2048 
L 3258 877 
Q 3258 627 3482 627 
Q 3597 627 3667 653 
L 3603 32 
Q 3411 -58 3136 -58 
Q 2886 -58 2694 22 
Q 2502 102 2393 265 
Q 2285 429 2285 678 
L 2285 717 
L 2406 762 
Q 2406 486 2243 300 
Q 2080 115 1821 25 
Q 1562 -64 1280 -64 
Q 954 -64 710 38 
Q 467 141 336 336 
Q 205 531 205 819 
Q 205 1165 413 1392 
Q 621 1619 1069 1709 
L 2278 1958 
L 2272 1382 
L 1658 1254 
Q 1466 1216 1373 1142 
Q 1280 1069 1280 922 
Q 1280 781 1382 710 
Q 1485 640 1626 640 
Q 1734 640 1833 672 
Q 1933 704 2009 771 
Q 2086 838 2131 940 
Q 2176 1043 2176 1184 
L 2176 2029 
z
" id="WorkSans-Bold-61" transform="scale(0.015625)"/>
     </defs>
     <use xlink:href="#WorkSans-Bold-61"/>
    </g>
   </g>
  </g>
  <g id="axes_2">
   <g id="patch_5">
    <path d="M 32.61312 321 
L 552.16512 321 
L 552.16512 195.56 
L 32.61312 195.56 
z
" style="fill:#ffffff;"/>
   </g>
   <g id="matplotlib.axis_3">
    <g id="xtick_10">
     <g id="text_10">
      <!-- Baseline -->
      <g style="fill:#262626;" transform="translate(27.628418 347.099006)rotate(-30)scale(0.09 -0.09)">
       <defs>
        <path d="M 691 0 
L 691 4224 
L 2195 4224 
Q 2944 4224 3289 3910 
Q 3635 3597 3635 3059 
Q 3635 2739 3449 2480 
Q 3264 2221 2925 2150 
L 2925 2144 
Q 3302 2074 3523 1802 
Q 3744 1530 3744 1184 
Q 3744 646 3341 323 
Q 2938 0 2189 0 
L 691 0 
z
M 1203 480 
L 2310 480 
Q 2765 480 2985 665 
Q 3206 851 3206 1184 
Q 3206 1523 2985 1705 
Q 2765 1888 2310 1888 
L 1203 1888 
L 1203 480 
z
M 1203 2368 
L 2202 2368 
Q 3098 2368 3098 3059 
Q 3098 3744 2202 3744 
L 1203 3744 
L 1203 2368 
z
" id="WorkSans-Regular-42" transform="scale(0.015625)"/>
        <path d="M 2464 2067 
Q 2464 2426 2272 2621 
Q 2080 2816 1728 2816 
Q 1395 2816 1164 2672 
Q 934 2528 826 2208 
L 410 2464 
Q 538 2822 883 3043 
Q 1229 3264 1741 3264 
Q 2086 3264 2368 3145 
Q 2650 3027 2813 2787 
Q 2976 2547 2976 2170 
L 2976 621 
Q 2976 390 3219 390 
Q 3341 390 3456 422 
L 3430 19 
Q 3302 -45 3098 -45 
Q 2912 -45 2765 25 
Q 2618 96 2534 240 
Q 2451 384 2451 602 
L 2451 666 
L 2579 646 
Q 2502 397 2316 240 
Q 2131 83 1900 9 
Q 1670 -64 1446 -64 
Q 1165 -64 921 32 
Q 678 128 534 323 
Q 390 518 390 806 
Q 390 1165 630 1398 
Q 870 1632 1299 1715 
L 2566 1965 
L 2566 1542 
L 1536 1331 
Q 1222 1267 1068 1152 
Q 915 1037 915 832 
Q 915 634 1072 509 
Q 1229 384 1517 384 
Q 1702 384 1872 432 
Q 2042 480 2176 579 
Q 2310 678 2387 828 
Q 2464 979 2464 1184 
L 2464 2067 
z
" id="WorkSans-Regular-61" transform="scale(0.015625)"/>
        <path d="M 1747 -64 
Q 1280 -64 886 134 
Q 493 333 282 698 
L 717 1011 
Q 858 717 1130 550 
Q 1402 384 1786 384 
Q 2125 384 2317 515 
Q 2509 646 2509 858 
Q 2509 992 2422 1104 
Q 2336 1216 2093 1267 
L 1325 1427 
Q 858 1523 656 1747 
Q 454 1971 454 2304 
Q 454 2566 604 2784 
Q 755 3002 1033 3133 
Q 1312 3264 1690 3264 
Q 2163 3264 2489 3078 
Q 2816 2893 2976 2554 
L 2547 2272 
Q 2438 2554 2195 2685 
Q 1952 2816 1690 2816 
Q 1459 2816 1296 2752 
Q 1133 2688 1046 2576 
Q 960 2464 960 2323 
Q 960 2182 1056 2064 
Q 1152 1946 1414 1894 
L 2214 1728 
Q 2662 1638 2841 1433 
Q 3021 1229 3021 934 
Q 3021 634 2861 406 
Q 2701 179 2413 57 
Q 2125 -64 1747 -64 
z
" id="WorkSans-Regular-73" transform="scale(0.015625)"/>
        <path d="M 1933 -64 
Q 1478 -64 1123 134 
Q 768 333 569 707 
Q 371 1082 371 1600 
Q 371 2118 569 2492 
Q 768 2867 1113 3065 
Q 1459 3264 1901 3264 
Q 2349 3264 2665 3072 
Q 2982 2880 3148 2550 
Q 3315 2221 3315 1811 
Q 3315 1702 3308 1612 
Q 3302 1523 3290 1453 
L 704 1453 
L 704 1907 
L 3066 1907 
L 2803 1856 
Q 2803 2317 2550 2566 
Q 2298 2816 1888 2816 
Q 1574 2816 1347 2672 
Q 1120 2528 995 2256 
Q 870 1984 870 1600 
Q 870 1222 998 947 
Q 1126 672 1360 528 
Q 1594 384 1920 384 
Q 2272 384 2493 518 
Q 2714 653 2848 883 
L 3251 646 
Q 3130 429 2941 269 
Q 2752 109 2499 22 
Q 2246 -64 1933 -64 
z
" id="WorkSans-Regular-65" transform="scale(0.015625)"/>
        <path d="M 1082 4672 
L 1082 813 
Q 1082 570 1171 477 
Q 1261 384 1459 384 
Q 1587 384 1670 403 
Q 1754 422 1894 474 
L 1811 26 
Q 1709 -19 1587 -41 
Q 1466 -64 1338 -64 
Q 947 -64 758 147 
Q 570 358 570 794 
L 570 4672 
L 1082 4672 
z
" id="WorkSans-Regular-6c" transform="scale(0.015625)"/>
        <path d="M 851 3814 
Q 678 3814 572 3920 
Q 467 4026 467 4198 
Q 467 4371 572 4476 
Q 678 4582 851 4582 
Q 1024 4582 1129 4476 
Q 1235 4371 1235 4198 
Q 1235 4026 1129 3920 
Q 1024 3814 851 3814 
z
M 1107 3200 
L 1107 0 
L 595 0 
L 595 3200 
L 1107 3200 
z
" id="WorkSans-Regular-69" transform="scale(0.015625)"/>
        <path d="M 595 0 
L 595 3200 
L 1043 3200 
L 1088 2483 
L 1005 2554 
Q 1107 2810 1280 2966 
Q 1453 3123 1680 3193 
Q 1907 3264 2150 3264 
Q 2496 3264 2777 3133 
Q 3059 3002 3228 2733 
Q 3398 2464 3398 2048 
L 3398 0 
L 2886 0 
L 2886 1869 
Q 2886 2400 2659 2608 
Q 2432 2816 2099 2816 
Q 1869 2816 1638 2707 
Q 1408 2598 1257 2355 
Q 1107 2112 1107 1702 
L 1107 0 
L 595 0 
z
" id="WorkSans-Regular-6e" transform="scale(0.015625)"/>
       </defs>
       <use xlink:href="#WorkSans-Regular-42"/>
       <use x="65.299988" xlink:href="#WorkSans-Regular-61"/>
       <use x="121.899979" xlink:href="#WorkSans-Regular-73"/>
       <use x="174.599976" xlink:href="#WorkSans-Regular-65"/>
       <use x="232.299973" xlink:href="#WorkSans-Regular-6c"/>
       <use x="262.899963" xlink:href="#WorkSans-Regular-69"/>
       <use x="289.499954" xlink:href="#WorkSans-Regular-6e"/>
       <use x="351.399948" xlink:href="#WorkSans-Regular-65"/>
      </g>
     </g>
    </g>
    <g id="xtick_11">
     <g id="text_11">
      <!-- Height -->
      <g style="fill:#262626;" transform="translate(94.024221 342.852131)rotate(-30)scale(0.09 -0.09)">
       <defs>
        <path d="M 3290 3789 
L 3405 3334 
Q 3398 3334 3385 3334 
Q 3373 3334 3360 3334 
Q 3046 3334 2876 3209 
Q 2707 3085 2707 2810 
L 2394 2970 
Q 2394 3219 2509 3404 
Q 2624 3590 2822 3689 
Q 3021 3789 3258 3789 
Q 3264 3789 3273 3789 
Q 3283 3789 3290 3789 
z
M 2317 410 
Q 2771 410 3027 202 
Q 3283 -6 3283 -352 
Q 3283 -666 3075 -896 
Q 2867 -1126 2518 -1251 
Q 2170 -1376 1734 -1376 
Q 979 -1376 604 -1120 
Q 230 -864 230 -506 
Q 230 -250 400 -48 
Q 570 154 973 179 
L 928 83 
Q 710 141 560 278 
Q 410 416 410 678 
Q 410 941 605 1129 
Q 800 1318 1184 1363 
L 1523 1190 
L 1459 1190 
Q 1146 1158 1014 1033 
Q 883 909 883 762 
Q 883 582 1014 496 
Q 1146 410 1382 410 
L 2317 410 
z
M 1728 -947 
Q 2099 -947 2339 -870 
Q 2579 -794 2694 -672 
Q 2810 -550 2810 -410 
Q 2810 -237 2672 -134 
Q 2534 -32 2176 -32 
L 1190 -32 
Q 986 -32 845 -137 
Q 704 -243 704 -429 
Q 704 -666 976 -806 
Q 1248 -947 1728 -947 
z
M 1683 3264 
Q 2067 3264 2364 3126 
Q 2662 2989 2828 2745 
Q 2995 2502 2995 2182 
Q 2995 1869 2828 1622 
Q 2662 1376 2364 1238 
Q 2067 1101 1683 1101 
Q 1050 1101 710 1405 
Q 371 1709 371 2182 
Q 371 2502 540 2745 
Q 710 2989 1004 3126 
Q 1299 3264 1683 3264 
z
M 1683 2848 
Q 1350 2848 1126 2665 
Q 902 2483 902 2182 
Q 902 1888 1126 1702 
Q 1350 1517 1683 1517 
Q 2016 1517 2240 1702 
Q 2464 1888 2464 2182 
Q 2464 2483 2240 2665 
Q 2016 2848 1683 2848 
z
" id="WorkSans-Regular-67" transform="scale(0.015625)"/>
        <path d="M 595 0 
L 595 4672 
L 1107 4672 
L 1107 2720 
Q 1274 3008 1549 3136 
Q 1824 3264 2150 3264 
Q 2496 3264 2777 3133 
Q 3059 3002 3228 2733 
Q 3398 2464 3398 2048 
L 3398 0 
L 2886 0 
L 2886 1869 
Q 2886 2400 2659 2608 
Q 2432 2816 2099 2816 
Q 1869 2816 1638 2707 
Q 1408 2598 1257 2352 
Q 1107 2106 1107 1696 
L 1107 0 
L 595 0 
z
" id="WorkSans-Regular-68" transform="scale(0.015625)"/>
        <path d="M 1350 4109 
L 1350 883 
Q 1350 646 1484 531 
Q 1619 416 1830 416 
Q 2016 416 2150 480 
Q 2285 544 2394 653 
L 2573 224 
Q 2426 90 2224 13 
Q 2022 -64 1760 -64 
Q 1517 -64 1305 22 
Q 1094 109 969 297 
Q 845 486 838 794 
L 838 3968 
L 1350 4109 
z
M 2515 3200 
L 2515 2758 
L 198 2758 
L 198 3200 
L 2515 3200 
z
" id="WorkSans-Regular-74" transform="scale(0.015625)"/>
       </defs>
       <use xlink:href="#WorkSans-Regular-48"/>
       <use x="73.399994" xlink:href="#WorkSans-Regular-65"/>
       <use x="131.099991" xlink:href="#WorkSans-Regular-69"/>
       <use x="157.699982" xlink:href="#WorkSans-Regular-67"/>
       <use x="210.899979" xlink:href="#WorkSans-Regular-68"/>
       <use x="272.799973" xlink:href="#WorkSans-Regular-74"/>
      </g>
     </g>
    </g>
    <g id="xtick_12">
     <g id="text_12">
      <!-- Waist Circ. -->
      <g style="fill:#262626;" transform="translate(136.552635 352.385099)rotate(-30)scale(0.09 -0.09)">
       <defs>
        <path d="M 1478 0 
L 230 4224 
L 762 4224 
L 1805 467 
L 2797 4224 
L 3379 4224 
L 4371 454 
L 5414 4224 
L 5920 4224 
L 4678 0 
L 4045 0 
L 3296 2739 
L 3078 3693 
L 3072 3693 
L 2854 2739 
L 2112 0 
L 1478 0 
z
" id="WorkSans-Regular-57" transform="scale(0.015625)"/>
        <path d="M 4096 1082 
Q 3962 723 3712 464 
Q 3462 205 3126 70 
Q 2790 -64 2394 -64 
Q 1792 -64 1353 201 
Q 915 467 675 953 
Q 435 1440 435 2112 
Q 435 2784 675 3270 
Q 915 3757 1353 4022 
Q 1792 4288 2381 4288 
Q 2790 4288 3110 4176 
Q 3430 4064 3657 3843 
Q 3885 3622 4019 3302 
L 3514 3066 
Q 3373 3430 3107 3619 
Q 2842 3808 2419 3808 
Q 1990 3808 1664 3606 
Q 1338 3405 1155 3027 
Q 973 2650 973 2112 
Q 973 1581 1145 1200 
Q 1318 819 1638 617 
Q 1958 416 2394 416 
Q 2816 416 3129 630 
Q 3443 845 3584 1274 
L 4096 1082 
z
" id="WorkSans-Regular-43" transform="scale(0.015625)"/>
        <path d="M 595 0 
L 595 3200 
L 1011 3200 
L 1082 2675 
Q 1216 2970 1475 3117 
Q 1734 3264 2106 3264 
Q 2189 3264 2288 3251 
Q 2387 3238 2458 3200 
L 2368 2733 
Q 2298 2758 2214 2771 
Q 2131 2784 1978 2784 
Q 1779 2784 1577 2669 
Q 1376 2554 1241 2320 
Q 1107 2086 1107 1728 
L 1107 0 
L 595 0 
z
" id="WorkSans-Regular-72" transform="scale(0.015625)"/>
        <path d="M 1920 3264 
Q 2253 3264 2505 3161 
Q 2758 3059 2944 2867 
Q 3130 2675 3245 2413 
L 2758 2182 
Q 2656 2490 2448 2653 
Q 2240 2816 1907 2816 
Q 1587 2816 1356 2672 
Q 1126 2528 1004 2256 
Q 883 1984 883 1600 
Q 883 1222 1004 947 
Q 1126 672 1356 528 
Q 1587 384 1907 384 
Q 2157 384 2339 461 
Q 2522 538 2640 685 
Q 2758 832 2803 1043 
L 3277 877 
Q 3168 582 2979 371 
Q 2790 160 2524 48 
Q 2259 -64 1920 -64 
Q 1472 -64 1120 134 
Q 768 333 569 707 
Q 371 1082 371 1600 
Q 371 2118 569 2492 
Q 768 2867 1120 3065 
Q 1472 3264 1920 3264 
z
" id="WorkSans-Regular-63" transform="scale(0.015625)"/>
        <path d="M 851 768 
Q 1037 768 1152 653 
Q 1267 538 1267 352 
Q 1267 166 1152 51 
Q 1037 -64 851 -64 
Q 666 -64 550 51 
Q 435 166 435 352 
Q 435 538 550 653 
Q 666 768 851 768 
z
" id="WorkSans-Regular-2e" transform="scale(0.015625)"/>
       </defs>
       <use xlink:href="#WorkSans-Regular-57"/>
       <use x="96.099991" xlink:href="#WorkSans-Regular-61"/>
       <use x="152.699982" xlink:href="#WorkSans-Regular-69"/>
       <use x="179.299973" xlink:href="#WorkSans-Regular-73"/>
       <use x="231.999969" xlink:href="#WorkSans-Regular-74"/>
       <use x="273.899963" xlink:href="#WorkSans-Regular-20"/>
       <use x="307.999954" xlink:href="#WorkSans-Regular-43"/>
       <use x="376.599945" xlink:href="#WorkSans-Regular-69"/>
       <use x="403.199936" xlink:href="#WorkSans-Regular-72"/>
       <use x="443.999924" xlink:href="#WorkSans-Regular-63"/>
       <use x="499.999908" xlink:href="#WorkSans-Regular-2e"/>
      </g>
     </g>
    </g>
    <g id="xtick_13">
     <g id="text_13">
      <!-- Immigrant -->
      <g style="fill:#262626;" transform="translate(197.54792 351.204253)rotate(-30)scale(0.09 -0.09)">
       <defs>
        <path d="M 595 0 
L 595 3200 
L 1043 3200 
L 1075 2701 
Q 1248 2995 1526 3129 
Q 1805 3264 2099 3264 
Q 2438 3264 2739 3110 
Q 3040 2957 3200 2637 
Q 3302 2854 3488 2992 
Q 3674 3130 3894 3197 
Q 4115 3264 4314 3264 
Q 4621 3264 4899 3136 
Q 5178 3008 5357 2739 
Q 5536 2470 5536 2048 
L 5536 0 
L 5024 0 
L 5024 1997 
Q 5024 2432 4806 2624 
Q 4589 2816 4269 2816 
Q 4019 2816 3801 2694 
Q 3584 2573 3453 2336 
Q 3322 2099 3322 1754 
L 3322 0 
L 2810 0 
L 2810 1997 
Q 2810 2432 2592 2624 
Q 2374 2816 2054 2816 
Q 1843 2816 1622 2704 
Q 1402 2592 1254 2349 
Q 1107 2106 1107 1709 
L 1107 0 
L 595 0 
z
" id="WorkSans-Regular-6d" transform="scale(0.015625)"/>
       </defs>
       <use xlink:href="#WorkSans-Regular-49"/>
       <use x="29.599991" xlink:href="#WorkSans-Regular-6d"/>
       <use x="124.899979" xlink:href="#WorkSans-Regular-6d"/>
       <use x="220.199966" xlink:href="#WorkSans-Regular-69"/>
       <use x="246.799957" xlink:href="#WorkSans-Regular-67"/>
       <use x="299.999954" xlink:href="#WorkSans-Regular-72"/>
       <use x="340.799942" xlink:href="#WorkSans-Regular-61"/>
       <use x="397.399933" xlink:href="#WorkSans-Regular-6e"/>
       <use x="459.299927" xlink:href="#WorkSans-Regular-74"/>
      </g>
     </g>
    </g>
    <g id="xtick_14">
     <g id="text_14">
      <!-- BMI -->
      <g style="fill:#262626;" transform="translate(281.621369 336.803146)rotate(-30)scale(0.09 -0.09)">
       <defs>
        <path d="M 4774 4224 
L 4774 0 
L 4288 0 
L 4288 2656 
L 4346 3770 
L 4339 3770 
L 2950 0 
L 2515 0 
L 1126 3770 
L 1120 3770 
L 1178 2656 
L 1178 0 
L 691 0 
L 691 4224 
L 1478 4224 
L 2406 1658 
L 2726 602 
L 2739 602 
L 3066 1651 
L 3987 4224 
L 4774 4224 
z
" id="WorkSans-Regular-4d" transform="scale(0.015625)"/>
       </defs>
       <use xlink:href="#WorkSans-Regular-42"/>
       <use x="65.299988" xlink:href="#WorkSans-Regular-4d"/>
       <use x="150.699982" xlink:href="#WorkSans-Regular-49"/>
      </g>
     </g>
    </g>
    <g id="xtick_15">
     <g id="text_15">
      <!-- Arm Circ. -->
      <g style="fill:#262626;" transform="translate(319.268647 349.15424)rotate(-30)scale(0.09 -0.09)">
       <use xlink:href="#WorkSans-Regular-41"/>
       <use x="65.999985" xlink:href="#WorkSans-Regular-72"/>
       <use x="106.799973" xlink:href="#WorkSans-Regular-6d"/>
       <use x="202.09996" xlink:href="#WorkSans-Regular-20"/>
       <use x="236.199951" xlink:href="#WorkSans-Regular-43"/>
       <use x="304.799942" xlink:href="#WorkSans-Regular-69"/>
       <use x="331.399933" xlink:href="#WorkSans-Regular-72"/>
       <use x="372.199921" xlink:href="#WorkSans-Regular-63"/>
       <use x="428.199905" xlink:href="#WorkSans-Regular-2e"/>
      </g>
     </g>
    </g>
    <g id="xtick_16">
     <g id="text_16">
      <!-- Sit. Height -->
      <g style="fill:#262626;" transform="translate(374.159439 351.549787)rotate(-30)scale(0.09 -0.09)">
       <use xlink:href="#WorkSans-Regular-53"/>
       <use x="64.099991" xlink:href="#WorkSans-Regular-69"/>
       <use x="90.699982" xlink:href="#WorkSans-Regular-74"/>
       <use x="132.599976" xlink:href="#WorkSans-Regular-2e"/>
       <use x="159.199966" xlink:href="#WorkSans-Regular-20"/>
       <use x="193.299957" xlink:href="#WorkSans-Regular-48"/>
       <use x="266.699951" xlink:href="#WorkSans-Regular-65"/>
       <use x="324.399948" xlink:href="#WorkSans-Regular-69"/>
       <use x="350.999939" xlink:href="#WorkSans-Regular-67"/>
       <use x="404.199936" xlink:href="#WorkSans-Regular-68"/>
       <use x="466.09993" xlink:href="#WorkSans-Regular-74"/>
      </g>
     </g>
    </g>
    <g id="xtick_17">
     <g id="text_17">
      <!-- Eng. Lang. -->
      <g style="fill:#262626;" transform="translate(433.980718 351.046753)rotate(-30)scale(0.09 -0.09)">
       <defs>
        <path d="M 1203 480 
L 3622 480 
L 3622 0 
L 691 0 
L 691 4224 
L 1203 4224 
L 1203 480 
z
" id="WorkSans-Regular-4c" transform="scale(0.015625)"/>
       </defs>
       <use xlink:href="#WorkSans-Regular-45"/>
       <use x="63.799988" xlink:href="#WorkSans-Regular-6e"/>
       <use x="125.699982" xlink:href="#WorkSans-Regular-67"/>
       <use x="178.899979" xlink:href="#WorkSans-Regular-2e"/>
       <use x="205.499969" xlink:href="#WorkSans-Regular-20"/>
       <use x="239.59996" xlink:href="#WorkSans-Regular-4c"/>
       <use x="299.399948" xlink:href="#WorkSans-Regular-61"/>
       <use x="355.999939" xlink:href="#WorkSans-Regular-6e"/>
       <use x="417.899933" xlink:href="#WorkSans-Regular-67"/>
       <use x="471.09993" xlink:href="#WorkSans-Regular-2e"/>
      </g>
     </g>
    </g>
    <g id="xtick_18">
     <g id="text_18">
      <!-- Mineral Dust -->
      <g style="fill:#262626;" transform="translate(483.346711 356.684006)rotate(-30)scale(0.09 -0.09)">
       <defs>
        <path d="M 2054 4224 
Q 3046 4224 3612 3677 
Q 4179 3130 4179 2112 
Q 4179 1094 3612 547 
Q 3046 0 2054 0 
L 691 0 
L 691 4224 
L 2054 4224 
z
M 2106 480 
Q 2829 480 3235 912 
Q 3642 1344 3642 2112 
Q 3642 2880 3235 3312 
Q 2829 3744 2106 3744 
L 1203 3744 
L 1203 480 
L 2106 480 
z
" id="WorkSans-Regular-44" transform="scale(0.015625)"/>
        <path d="M 1754 -64 
Q 1446 -64 1174 51 
Q 902 166 732 425 
Q 563 685 563 1101 
L 563 3200 
L 1075 3200 
L 1075 1235 
Q 1075 749 1286 566 
Q 1498 384 1882 384 
Q 2061 384 2233 445 
Q 2406 506 2544 637 
Q 2682 768 2762 973 
Q 2842 1178 2842 1459 
L 2842 3200 
L 3354 3200 
L 3354 0 
L 2906 0 
L 2874 486 
Q 2707 198 2422 67 
Q 2138 -64 1754 -64 
z
" id="WorkSans-Regular-75" transform="scale(0.015625)"/>
       </defs>
       <use xlink:href="#WorkSans-Regular-4d"/>
       <use x="85.399994" xlink:href="#WorkSans-Regular-69"/>
       <use x="111.999985" xlink:href="#WorkSans-Regular-6e"/>
       <use x="173.899979" xlink:href="#WorkSans-Regular-65"/>
       <use x="231.599976" xlink:href="#WorkSans-Regular-72"/>
       <use x="272.399963" xlink:href="#WorkSans-Regular-61"/>
       <use x="328.999954" xlink:href="#WorkSans-Regular-6c"/>
       <use x="359.599945" xlink:href="#WorkSans-Regular-20"/>
       <use x="393.699936" xlink:href="#WorkSans-Regular-44"/>
       <use x="465.799927" xlink:href="#WorkSans-Regular-75"/>
       <use x="527.499924" xlink:href="#WorkSans-Regular-73"/>
       <use x="580.199921" xlink:href="#WorkSans-Regular-74"/>
      </g>
     </g>
    </g>
   </g>
   <g id="matplotlib.axis_4">
    <g id="ytick_7">
     <g id="line2d_10">
      <path clip-path="url(#p04933f0751)" d="M 32.61312 315.298182 
L 552.16512 315.298182 
" style="fill:none;stroke:#cccccc;stroke-dasharray:1,1.65;stroke-dashoffset:0;stroke-opacity:0.6;"/>
     </g>
     <g id="text_19">
      <!-- 0 -->
      <g style="fill:#262626;" transform="translate(26.258901 317.853182)scale(0.07 -0.07)">
       <use xlink:href="#WorkSans-Regular-30"/>
      </g>
     </g>
    </g>
    <g id="ytick_8">
     <g id="line2d_11">
      <path clip-path="url(#p04933f0751)" d="M 32.61312 293.697199 
L 552.16512 293.697199 
" style="fill:none;stroke:#cccccc;stroke-dasharray:1,1.65;stroke-dashoffset:0;stroke-opacity:0.6;"/>
     </g>
     <g id="text_20">
      <!-- 20 -->
      <g style="fill:#262626;" transform="translate(22.17812 296.252199)scale(0.07 -0.07)">
       <use xlink:href="#WorkSans-Regular-32"/>
       <use x="58.299988" xlink:href="#WorkSans-Regular-30"/>
      </g>
     </g>
    </g>
    <g id="ytick_9">
     <g id="line2d_12">
      <path clip-path="url(#p04933f0751)" d="M 32.61312 272.096216 
L 552.16512 272.096216 
" style="fill:none;stroke:#cccccc;stroke-dasharray:1,1.65;stroke-dashoffset:0;stroke-opacity:0.6;"/>
     </g>
     <g id="text_21">
      <!-- 40 -->
      <g style="fill:#262626;" transform="translate(21.982339 274.651216)scale(0.07 -0.07)">
       <use xlink:href="#WorkSans-Regular-34"/>
       <use x="61.099991" xlink:href="#WorkSans-Regular-30"/>
      </g>
     </g>
    </g>
    <g id="ytick_10">
     <g id="line2d_13">
      <path clip-path="url(#p04933f0751)" d="M 32.61312 250.495233 
L 552.16512 250.495233 
" style="fill:none;stroke:#cccccc;stroke-dasharray:1,1.65;stroke-dashoffset:0;stroke-opacity:0.6;"/>
     </g>
     <g id="text_22">
      <!-- 60 -->
      <g style="fill:#262626;" transform="translate(22.00312 253.050233)scale(0.07 -0.07)">
       <use xlink:href="#WorkSans-Regular-36"/>
       <use x="60.799988" xlink:href="#WorkSans-Regular-30"/>
      </g>
     </g>
    </g>
    <g id="ytick_11">
     <g id="line2d_14">
      <path clip-path="url(#p04933f0751)" d="M 32.61312 228.894249 
L 552.16512 228.894249 
" style="fill:none;stroke:#cccccc;stroke-dasharray:1,1.65;stroke-dashoffset:0;stroke-opacity:0.6;"/>
     </g>
     <g id="text_23">
      <!-- 80 -->
      <g style="fill:#262626;" transform="translate(21.947339 231.449249)scale(0.07 -0.07)">
       <use xlink:href="#WorkSans-Regular-38"/>
       <use x="61.599991" xlink:href="#WorkSans-Regular-30"/>
      </g>
     </g>
    </g>
    <g id="ytick_12">
     <g id="line2d_15">
      <path clip-path="url(#p04933f0751)" d="M 32.61312 207.293266 
L 552.16512 207.293266 
" style="fill:none;stroke:#cccccc;stroke-dasharray:1,1.65;stroke-dashoffset:0;stroke-opacity:0.6;"/>
     </g>
     <g id="text_24">
      <!-- 100 -->
      <g style="fill:#262626;" transform="translate(19.174683 209.848266)scale(0.07 -0.07)">
       <use xlink:href="#WorkSans-Regular-31"/>
       <use x="38.999985" xlink:href="#WorkSans-Regular-30"/>
       <use x="101.199982" xlink:href="#WorkSans-Regular-30"/>
      </g>
     </g>
    </g>
    <g id="text_25">
     <!-- FEV1 (%) -->
     <g style="fill:#262626;" transform="translate(14.864683 281.285469)rotate(-90)scale(0.11 -0.11)">
      <use xlink:href="#WorkSans-Regular-46"/>
      <use x="60.999985" xlink:href="#WorkSans-Regular-45"/>
      <use x="124.799973" xlink:href="#WorkSans-Regular-56"/>
      <use x="189.59996" xlink:href="#WorkSans-Regular-31"/>
      <use x="228.599945" xlink:href="#WorkSans-Regular-20"/>
      <use x="262.699936" xlink:href="#WorkSans-Regular-28"/>
      <use x="297.699921" xlink:href="#WorkSans-Regular-25"/>
      <use x="383.299911" xlink:href="#WorkSans-Regular-29"/>
     </g>
    </g>
   </g>
   <g id="patch_6">
    <path d="M 32.61312 321 
L 32.61312 195.56 
" style="fill:none;stroke:#333333;stroke-linecap:square;stroke-linejoin:miter;stroke-width:0.5;"/>
   </g>
   <g id="patch_7">
    <path d="M 32.61312 321 
L 552.16512 321 
" style="fill:none;stroke:#333333;stroke-linecap:square;stroke-linejoin:miter;stroke-width:0.5;"/>
   </g>
   <g id="line2d_16">
    <path clip-path="url(#p04933f0751)" d="M 56.22912 315.298182 
L 115.26912 270.697009 
L 174.30912 279.210214 
L 233.34912 268.640139 
L 292.38912 265.48382 
L 351.42912 265.677644 
L 410.46912 268.427935 
L 469.50912 267.834768 
L 528.54912 266.870662 
" style="fill:none;stroke:#ffd166;stroke-linecap:round;stroke-width:1.2;"/>
    <defs>
     <path d="M 0 2.5 
C 0.663008 2.5 1.29895 2.236584 1.767767 1.767767 
C 2.236584 1.29895 2.5 0.663008 2.5 0 
C 2.5 -0.663008 2.236584 -1.29895 1.767767 -1.767767 
C 1.29895 -2.236584 0.663008 -2.5 0 -2.5 
C -0.663008 -2.5 -1.29895 -2.236584 -1.767767 -1.767767 
C -2.236584 -1.29895 -2.5 -0.663008 -2.5 0 
C -2.5 0.663008 -2.236584 1.29895 -1.767767 1.767767 
C -1.29895 2.236584 -0.663008 2.5 0 2.5 
z
" id="mf71c03d62f" style="stroke:#ffd166;"/>
    </defs>
    <g clip-path="url(#p04933f0751)">
     <use style="fill:#ffd166;stroke:#ffd166;" x="56.22912" xlink:href="#mf71c03d62f" y="315.298182"/>
     <use style="fill:#ffd166;stroke:#ffd166;" x="115.26912" xlink:href="#mf71c03d62f" y="270.697009"/>
     <use style="fill:#ffd166;stroke:#ffd166;" x="174.30912" xlink:href="#mf71c03d62f" y="279.210214"/>
     <use style="fill:#ffd166;stroke:#ffd166;" x="233.34912" xlink:href="#mf71c03d62f" y="268.640139"/>
     <use style="fill:#ffd166;stroke:#ffd166;" x="292.38912" xlink:href="#mf71c03d62f" y="265.48382"/>
     <use style="fill:#ffd166;stroke:#ffd166;" x="351.42912" xlink:href="#mf71c03d62f" y="265.677644"/>
     <use style="fill:#ffd166;stroke:#ffd166;" x="410.46912" xlink:href="#mf71c03d62f" y="268.427935"/>
     <use style="fill:#ffd166;stroke:#ffd166;" x="469.50912" xlink:href="#mf71c03d62f" y="267.834768"/>
     <use style="fill:#ffd166;stroke:#ffd166;" x="528.54912" xlink:href="#mf71c03d62f" y="266.870662"/>
    </g>
   </g>
   <g id="line2d_17">
    <path clip-path="url(#p04933f0751)" d="M 56.22912 315.298182 
L 115.26912 311.887381 
L 174.30912 312.603172 
L 233.34912 310.16721 
L 292.38912 312.114616 
L 351.42912 310.633042 
L 410.46912 307.072266 
L 469.50912 308.12891 
L 528.54912 308.106186 
" style="fill:none;stroke:#ff6f61;stroke-linecap:round;stroke-width:1.2;"/>
    <g clip-path="url(#p04933f0751)">
     <use style="fill:#ff6f61;stroke:#ff6f61;" x="56.22912" xlink:href="#m49819ab582" y="315.298182"/>
     <use style="fill:#ff6f61;stroke:#ff6f61;" x="115.26912" xlink:href="#m49819ab582" y="311.887381"/>
     <use style="fill:#ff6f61;stroke:#ff6f61;" x="174.30912" xlink:href="#m49819ab582" y="312.603172"/>
     <use style="fill:#ff6f61;stroke:#ff6f61;" x="233.34912" xlink:href="#m49819ab582" y="310.16721"/>
     <use style="fill:#ff6f61;stroke:#ff6f61;" x="292.38912" xlink:href="#m49819ab582" y="312.114616"/>
     <use style="fill:#ff6f61;stroke:#ff6f61;" x="351.42912" xlink:href="#m49819ab582" y="310.633042"/>
     <use style="fill:#ff6f61;stroke:#ff6f61;" x="410.46912" xlink:href="#m49819ab582" y="307.072266"/>
     <use style="fill:#ff6f61;stroke:#ff6f61;" x="469.50912" xlink:href="#m49819ab582" y="308.12891"/>
     <use style="fill:#ff6f61;stroke:#ff6f61;" x="528.54912" xlink:href="#m49819ab582" y="308.106186"/>
    </g>
   </g>
   <g id="line2d_18">
    <path clip-path="url(#p04933f0751)" d="M 56.22912 315.298182 
L 115.26912 223.113275 
L 174.30912 221.623066 
L 233.34912 202.666555 
L 292.38912 202.424999 
L 351.42912 201.261818 
L 410.46912 202.540203 
L 469.50912 207.189212 
L 528.54912 207.445632 
" style="fill:none;stroke:#c94cc2;stroke-linecap:round;stroke-width:1.2;"/>
    <g clip-path="url(#p04933f0751)">
     <use style="fill:#c94cc2;stroke:#c94cc2;" x="56.22912" xlink:href="#m2a147c125e" y="315.298182"/>
     <use style="fill:#c94cc2;stroke:#c94cc2;" x="115.26912" xlink:href="#m2a147c125e" y="223.113275"/>
     <use style="fill:#c94cc2;stroke:#c94cc2;" x="174.30912" xlink:href="#m2a147c125e" y="221.623066"/>
     <use style="fill:#c94cc2;stroke:#c94cc2;" x="233.34912" xlink:href="#m2a147c125e" y="202.666555"/>
     <use style="fill:#c94cc2;stroke:#c94cc2;" x="292.38912" xlink:href="#m2a147c125e" y="202.424999"/>
     <use style="fill:#c94cc2;stroke:#c94cc2;" x="351.42912" xlink:href="#m2a147c125e" y="201.261818"/>
     <use style="fill:#c94cc2;stroke:#c94cc2;" x="410.46912" xlink:href="#m2a147c125e" y="202.540203"/>
     <use style="fill:#c94cc2;stroke:#c94cc2;" x="469.50912" xlink:href="#m2a147c125e" y="207.189212"/>
     <use style="fill:#c94cc2;stroke:#c94cc2;" x="528.54912" xlink:href="#m2a147c125e" y="207.445632"/>
    </g>
   </g>
   <g id="line2d_19">
    <path clip-path="url(#p04933f0751)" d="M 56.22912 315.298182 
L 115.26912 268.871116 
L 174.30912 274.757863 
L 233.34912 264.752104 
L 292.38912 261.789493 
L 351.42912 262.640228 
L 410.46912 262.670153 
L 469.50912 263.610665 
L 528.54912 263.133996 
" style="fill:none;stroke:#118ab2;stroke-linecap:round;stroke-width:1.2;"/>
    <g clip-path="url(#p04933f0751)">
     <use style="fill:#118ab2;stroke:#118ab2;" x="56.22912" xlink:href="#m5163e15eaa" y="315.298182"/>
     <use style="fill:#118ab2;stroke:#118ab2;" x="115.26912" xlink:href="#m5163e15eaa" y="268.871116"/>
     <use style="fill:#118ab2;stroke:#118ab2;" x="174.30912" xlink:href="#m5163e15eaa" y="274.757863"/>
     <use style="fill:#118ab2;stroke:#118ab2;" x="233.34912" xlink:href="#m5163e15eaa" y="264.752104"/>
     <use style="fill:#118ab2;stroke:#118ab2;" x="292.38912" xlink:href="#m5163e15eaa" y="261.789493"/>
     <use style="fill:#118ab2;stroke:#118ab2;" x="351.42912" xlink:href="#m5163e15eaa" y="262.640228"/>
     <use style="fill:#118ab2;stroke:#118ab2;" x="410.46912" xlink:href="#m5163e15eaa" y="262.670153"/>
     <use style="fill:#118ab2;stroke:#118ab2;" x="469.50912" xlink:href="#m5163e15eaa" y="263.610665"/>
     <use style="fill:#118ab2;stroke:#118ab2;" x="528.54912" xlink:href="#m5163e15eaa" y="263.133996"/>
    </g>
   </g>
   <g id="text_26">
    <!-- NHANES IV -->
    <g style="fill:#262626;" transform="translate(564.65616 231.150312)rotate(-270)scale(0.1 -0.1)">
     <use xlink:href="#WorkSans-Regular-4e"/>
     <use x="73.399994" xlink:href="#WorkSans-Regular-48"/>
     <use x="146.799988" xlink:href="#WorkSans-Regular-41"/>
     <use x="212.799973" xlink:href="#WorkSans-Regular-4e"/>
     <use x="286.199966" xlink:href="#WorkSans-Regular-45"/>
     <use x="349.999954" xlink:href="#WorkSans-Regular-53"/>
     <use x="414.099945" xlink:href="#WorkSans-Regular-20"/>
     <use x="448.199936" xlink:href="#WorkSans-Regular-49"/>
     <use x="477.799927" xlink:href="#WorkSans-Regular-56"/>
    </g>
   </g>
   <g id="text_27">
    <!-- b -->
    <g style="fill:#262626;" transform="translate(1.44 196.408312)scale(0.1 -0.1)">
     <defs>
      <path d="M 2445 -64 
Q 2131 -64 1891 77 
Q 1651 218 1497 464 
Q 1344 710 1299 1024 
L 1402 1158 
L 1344 0 
L 390 0 
L 390 4557 
L 1478 4557 
L 1478 2195 
L 1376 2349 
Q 1466 2746 1741 3005 
Q 2016 3264 2483 3264 
Q 2854 3264 3145 3065 
Q 3437 2867 3600 2492 
Q 3763 2118 3763 1587 
Q 3763 1069 3596 697 
Q 3430 326 3136 131 
Q 2842 -64 2445 -64 
z
M 2067 736 
Q 2349 736 2509 944 
Q 2669 1152 2669 1600 
Q 2669 2048 2509 2256 
Q 2349 2464 2067 2464 
Q 1882 2464 1750 2358 
Q 1619 2253 1548 2061 
Q 1478 1869 1478 1594 
Q 1478 1318 1548 1126 
Q 1619 934 1753 835 
Q 1888 736 2067 736 
z
" id="WorkSans-Bold-62" transform="scale(0.015625)"/>
     </defs>
     <use xlink:href="#WorkSans-Bold-62"/>
    </g>
   </g>
  </g>
  <g id="legend_1">
   <g id="line2d_20">
    <path d="M 173.067432 9.24 
L 185.067432 9.24 
" style="fill:none;stroke:#ffd166;stroke-linecap:round;stroke-width:1.2;"/>
   </g>
   <g id="line2d_21">
    <g>
     <use style="fill:#ffd166;stroke:#ffd166;" x="179.067432" xlink:href="#mf71c03d62f" y="9.24"/>
    </g>
   </g>
   <g id="text_28">
    <!-- Asian -->
    <g style="fill:#262626;" transform="translate(193.067432 12.74)scale(0.1 -0.1)">
     <use xlink:href="#WorkSans-Regular-41"/>
     <use x="65.999985" xlink:href="#WorkSans-Regular-73"/>
     <use x="118.699982" xlink:href="#WorkSans-Regular-69"/>
     <use x="145.299973" xlink:href="#WorkSans-Regular-61"/>
     <use x="201.899963" xlink:href="#WorkSans-Regular-6e"/>
    </g>
   </g>
   <g id="line2d_22">
    <path d="M 239.44712 9.24 
L 251.44712 9.24 
" style="fill:none;stroke:#ff6f61;stroke-linecap:round;stroke-width:1.2;"/>
   </g>
   <g id="line2d_23">
    <g>
     <use style="fill:#ff6f61;stroke:#ff6f61;" x="245.44712" xlink:href="#m49819ab582" y="9.24"/>
    </g>
   </g>
   <g id="text_29">
    <!-- Black -->
    <g style="fill:#262626;" transform="translate(259.44712 12.74)scale(0.1 -0.1)">
     <defs>
      <path d="M 3405 3200 
L 2022 1818 
L 1901 1696 
L 851 646 
L 851 1286 
L 2758 3200 
L 3405 3200 
z
M 1107 4672 
L 1107 0 
L 595 0 
L 595 4672 
L 1107 4672 
z
M 2067 2080 
L 3482 0 
L 2861 0 
L 1638 1792 
L 2067 2080 
z
" id="WorkSans-Regular-6b" transform="scale(0.015625)"/>
     </defs>
     <use xlink:href="#WorkSans-Regular-42"/>
     <use x="65.299988" xlink:href="#WorkSans-Regular-6c"/>
     <use x="95.899979" xlink:href="#WorkSans-Regular-61"/>
     <use x="152.499969" xlink:href="#WorkSans-Regular-63"/>
     <use x="208.499954" xlink:href="#WorkSans-Regular-6b"/>
    </g>
   </g>
   <g id="line2d_24">
    <path d="M 305.96587 9.24 
L 317.96587 9.24 
" style="fill:none;stroke:#118ab2;stroke-linecap:round;stroke-width:1.2;"/>
   </g>
   <g id="line2d_25">
    <g>
     <use style="fill:#118ab2;stroke:#118ab2;" x="311.96587" xlink:href="#m5163e15eaa" y="9.24"/>
    </g>
   </g>
   <g id="text_30">
    <!-- Other -->
    <g style="fill:#262626;" transform="translate(325.96587 12.74)scale(0.1 -0.1)">
     <defs>
      <path d="M 2394 4288 
Q 2995 4288 3433 4022 
Q 3872 3757 4112 3270 
Q 4352 2784 4352 2112 
Q 4352 1440 4112 953 
Q 3872 467 3433 201 
Q 2995 -64 2394 -64 
Q 1792 -64 1353 201 
Q 915 467 675 953 
Q 435 1440 435 2112 
Q 435 2784 675 3270 
Q 915 3757 1353 4022 
Q 1792 4288 2394 4288 
z
M 2394 3808 
Q 1958 3808 1638 3606 
Q 1318 3405 1145 3024 
Q 973 2643 973 2112 
Q 973 1581 1145 1200 
Q 1318 819 1638 617 
Q 1958 416 2394 416 
Q 2835 416 3152 617 
Q 3469 819 3641 1200 
Q 3814 1581 3814 2112 
Q 3814 2643 3641 3024 
Q 3469 3405 3152 3606 
Q 2835 3808 2394 3808 
z
" id="WorkSans-Regular-4f" transform="scale(0.015625)"/>
     </defs>
     <use xlink:href="#WorkSans-Regular-4f"/>
     <use x="74.799988" xlink:href="#WorkSans-Regular-74"/>
     <use x="116.699982" xlink:href="#WorkSans-Regular-68"/>
     <use x="178.599976" xlink:href="#WorkSans-Regular-65"/>
     <use x="236.299973" xlink:href="#WorkSans-Regular-72"/>
    </g>
   </g>
   <g id="line2d_26">
    <path d="M 373.676807 9.24 
L 385.676807 9.24 
" style="fill:none;stroke:#c94cc2;stroke-linecap:round;stroke-width:1.2;"/>
   </g>
   <g id="line2d_27">
    <g>
     <use style="fill:#c94cc2;stroke:#c94cc2;" x="379.676807" xlink:href="#m2a147c125e" y="9.24"/>
    </g>
   </g>
   <g id="text_31">
    <!-- Hispanic -->
    <g style="fill:#262626;" transform="translate(393.676807 12.74)scale(0.1 -0.1)">
     <defs>
      <path d="M 595 -1344 
L 595 3200 
L 1043 3200 
L 1088 2419 
L 1018 2509 
Q 1101 2733 1267 2902 
Q 1434 3072 1670 3168 
Q 1907 3264 2182 3264 
Q 2573 3264 2902 3065 
Q 3232 2867 3430 2496 
Q 3629 2125 3629 1600 
Q 3629 1082 3427 707 
Q 3226 333 2893 134 
Q 2560 -64 2163 -64 
Q 1766 -64 1468 131 
Q 1171 326 1043 627 
L 1107 723 
L 1107 -1344 
L 595 -1344 
z
M 2112 384 
Q 2586 384 2851 717 
Q 3117 1050 3117 1600 
Q 3117 2150 2857 2483 
Q 2598 2816 2131 2816 
Q 1824 2816 1593 2665 
Q 1363 2515 1235 2243 
Q 1107 1971 1107 1600 
Q 1107 1235 1232 960 
Q 1357 685 1584 534 
Q 1811 384 2112 384 
z
" id="WorkSans-Regular-70" transform="scale(0.015625)"/>
     </defs>
     <use xlink:href="#WorkSans-Regular-48"/>
     <use x="73.399994" xlink:href="#WorkSans-Regular-69"/>
     <use x="99.999985" xlink:href="#WorkSans-Regular-73"/>
     <use x="152.699982" xlink:href="#WorkSans-Regular-70"/>
     <use x="215.399979" xlink:href="#WorkSans-Regular-61"/>
     <use x="271.999969" xlink:href="#WorkSans-Regular-6e"/>
     <use x="333.899963" xlink:href="#WorkSans-Regular-69"/>
     <use x="360.499954" xlink:href="#WorkSans-Regular-63"/>
    </g>
   </g>
  </g>
 </g>
 <defs>
  <clipPath id="pcf0613a5c8">
   <rect height="125.44" width="519.552" x="32.61312" y="38.76"/>
  </clipPath>
  <clipPath id="p04933f0751">
   <rect height="125.44" width="519.552" x="32.61312" y="195.56"/>
  </clipPath>
 </defs>
</svg>
