<?xml version="1.0" encoding="utf-8" standalone="no"?>
<!DOCTYPE svg PUBLIC "-//W3C//DTD SVG 1.1//EN"
  "http://www.w3.org/Graphics/SVG/1.1/DTD/svg11.dtd">
<svg height="572.202068pt" version="1.1" viewBox="0 0 515.32296 572.202068" width="515.32296pt" xmlns="http://www.w3.org/2000/svg" xmlns:xlink="http://www.w3.org/1999/xlink">
 <metadata>
  <rdf:RDF xmlns:cc="http://creativecommons.org/ns#" xmlns:dc="http://purl.org/dc/elements/1.1/" xmlns:rdf="http://www.w3.org/1999/02/22-rdf-syntax-ns#">
   <cc:Work>
    <dc:type rdf:resource="http://purl.org/dc/dcmitype/StillImage"/>
    <dc:date>2026-05-12T20:40:51.945221</dc:date>
    <dc:format>image/svg+xml</dc:format>
    <dc:creator>
     <cc:Agent>
      <dc:title>Matplotlib v3.4.2, https://matplotlib.org/</dc:title>
     </cc:Agent>
    </dc:creator>
   </cc:Work>
  </rdf:RDF>
 </metadata>
 <defs>
  <style type="text/css">*{stroke-linecap:butt;stroke-linejoin:round;}</style>
 </defs>
 <g id="figure_1">
  <g id="patch_1">
   <path d="M 0 572.202068 
L 515.32296 572.202068 
L 515.32296 0 
L 0 0 
z
" style="fill:#ffffff;"/>
  </g>
  <g id="axes_1">
   <g id="patch_2">
    <path d="M 106.247813 267.240337 
L 495.752859 267.240337 
L 495.752859 33.500914 
L 106.247813 33.500914 
z
" style="fill:#ffffff;"/>
   </g>
   <g id="matplotlib.axis_1">
    <g id="xtick_1">
     <g id="text_1">
      <!-- −200 -->
      <g style="fill:#262626;" transform="translate(136.150862 274.350337)scale(0.07 -0.07)">
       <defs>
        <path d="M 3488 2266 
L 3488 1786 
L 378 1786 
L 378 2266 
L 3488 2266 
z
" id="WorkSans-Regular-2212" transform="scale(0.015625)"/>
        <path d="M 474 0 
L 474 416 
Q 1107 883 1532 1235 
Q 1958 1587 2214 1875 
Q 2470 2163 2579 2422 
Q 2688 2682 2688 2963 
Q 2688 3341 2448 3574 
Q 2208 3808 1792 3808 
Q 1357 3808 1094 3523 
Q 832 3238 787 2765 
L 339 3034 
Q 397 3405 579 3686 
Q 762 3968 1072 4128 
Q 1382 4288 1811 4288 
Q 2138 4288 2397 4192 
Q 2656 4096 2841 3920 
Q 3027 3744 3126 3501 
Q 3226 3258 3226 2963 
Q 3226 2566 3034 2185 
Q 2842 1805 2400 1389 
Q 1958 973 1203 467 
L 1203 461 
Q 1274 467 1398 470 
Q 1523 474 1648 477 
Q 1773 480 1837 480 
L 3315 480 
L 3315 0 
L 474 0 
z
" id="WorkSans-Regular-32" transform="scale(0.015625)"/>
        <path d="M 1990 -64 
Q 1274 -64 845 493 
Q 416 1050 416 2112 
Q 416 3174 845 3731 
Q 1274 4288 1990 4288 
Q 2714 4288 3139 3731 
Q 3565 3174 3565 2112 
Q 3565 1050 3139 493 
Q 2714 -64 1990 -64 
z
M 1990 397 
Q 2330 397 2563 592 
Q 2797 787 2915 1171 
Q 3034 1555 3034 2112 
Q 3034 2669 2915 3053 
Q 2797 3437 2563 3632 
Q 2330 3827 1990 3827 
Q 1651 3827 1417 3632 
Q 1184 3437 1065 3053 
Q 947 2669 947 2112 
Q 947 1555 1065 1171 
Q 1184 787 1417 592 
Q 1651 397 1990 397 
z
" id="WorkSans-Regular-30" transform="scale(0.015625)"/>
       </defs>
       <use xlink:href="#WorkSans-Regular-2212"/>
       <use x="60.399994" xlink:href="#WorkSans-Regular-32"/>
       <use x="118.699982" xlink:href="#WorkSans-Regular-30"/>
       <use x="180.899979" xlink:href="#WorkSans-Regular-30"/>
      </g>
     </g>
    </g>
    <g id="xtick_2">
     <g id="text_2">
      <!-- 0 -->
      <g style="fill:#262626;" transform="translate(219.508131 274.350337)scale(0.07 -0.07)">
       <use xlink:href="#WorkSans-Regular-30"/>
      </g>
     </g>
    </g>
    <g id="xtick_3">
     <g id="text_3">
      <!-- 200 -->
      <g style="fill:#262626;" transform="translate(292.316182 274.350337)scale(0.07 -0.07)">
       <use xlink:href="#WorkSans-Regular-32"/>
       <use x="58.299988" xlink:href="#WorkSans-Regular-30"/>
       <use x="120.499985" xlink:href="#WorkSans-Regular-30"/>
      </g>
     </g>
    </g>
    <g id="xtick_4">
     <g id="text_4">
      <!-- 400 -->
      <g style="fill:#262626;" transform="translate(369.243842 274.350337)scale(0.07 -0.07)">
       <defs>
        <path d="M 2342 0 
L 2342 1107 
L 282 1107 
L 282 1485 
Q 282 1485 282 1485 
Q 282 1485 282 1485 
L 2208 4224 
L 2854 4224 
L 2854 1549 
L 3603 1549 
L 3603 1107 
L 2854 1107 
L 2854 0 
L 2342 0 
z
M 826 1549 
L 2342 1549 
L 2342 3130 
Q 2342 3296 2352 3469 
Q 2362 3642 2368 3808 
L 2355 3808 
Q 2278 3648 2156 3449 
Q 2035 3251 1933 3104 
L 826 1549 
Q 826 1549 826 1549 
Q 826 1549 826 1549 
z
" id="WorkSans-Regular-34" transform="scale(0.015625)"/>
       </defs>
       <use xlink:href="#WorkSans-Regular-34"/>
       <use x="61.099991" xlink:href="#WorkSans-Regular-30"/>
       <use x="123.299988" xlink:href="#WorkSans-Regular-30"/>
      </g>
     </g>
    </g>
    <g id="xtick_5">
     <g id="text_5">
      <!-- 600 -->
      <g style="fill:#262626;" transform="translate(446.279784 274.350337)scale(0.07 -0.07)">
       <defs>
        <path d="M 2067 4288 
Q 2406 4288 2659 4195 
Q 2912 4102 3097 3907 
Q 3283 3712 3411 3398 
L 2938 3174 
Q 2842 3469 2627 3638 
Q 2413 3808 2035 3808 
Q 1760 3808 1549 3670 
Q 1338 3533 1190 3289 
Q 1043 3046 969 2720 
Q 896 2394 896 2016 
Q 896 2003 896 1977 
Q 896 1952 896 1901 
L 922 1901 
Q 992 2176 1181 2345 
Q 1370 2515 1610 2595 
Q 1850 2675 2080 2675 
Q 2509 2675 2829 2508 
Q 3149 2342 3325 2035 
Q 3501 1728 3501 1306 
Q 3501 890 3321 579 
Q 3142 269 2819 102 
Q 2496 -64 2048 -64 
Q 1517 -64 1152 217 
Q 787 499 601 988 
Q 416 1478 416 2112 
Q 416 2822 633 3305 
Q 851 3789 1225 4038 
Q 1600 4288 2067 4288 
z
M 2042 2182 
Q 1766 2182 1558 2070 
Q 1350 1958 1235 1763 
Q 1120 1568 1120 1312 
Q 1120 1069 1241 867 
Q 1363 666 1571 547 
Q 1779 429 2042 429 
Q 2477 429 2720 662 
Q 2963 896 2963 1312 
Q 2963 1581 2854 1776 
Q 2746 1971 2541 2076 
Q 2336 2182 2042 2182 
z
" id="WorkSans-Regular-36" transform="scale(0.015625)"/>
       </defs>
       <use xlink:href="#WorkSans-Regular-36"/>
       <use x="60.799988" xlink:href="#WorkSans-Regular-30"/>
       <use x="122.999985" xlink:href="#WorkSans-Regular-30"/>
      </g>
     </g>
    </g>
    <g id="text_6">
     <!-- LASSO Coefficient -->
     <g style="fill:#262626;" transform="translate(256.076898 285.120337)scale(0.1 -0.1)">
      <defs>
       <path d="M 1203 480 
L 3622 480 
L 3622 0 
L 691 0 
L 691 4224 
L 1203 4224 
L 1203 480 
z
" id="WorkSans-Regular-4c" transform="scale(0.015625)"/>
       <path d="M 4058 0 
L 3514 0 
L 3066 1171 
L 1152 1171 
L 704 0 
L 166 0 
L 1811 4224 
L 2419 4224 
L 4058 0 
z
M 1338 1651 
L 2880 1651 
L 2106 3731 
L 1338 1651 
z
" id="WorkSans-Regular-41" transform="scale(0.015625)"/>
       <path d="M 2048 4288 
Q 2605 4288 3008 4061 
Q 3411 3834 3680 3392 
L 3251 3059 
Q 3014 3469 2716 3638 
Q 2419 3808 1997 3808 
Q 1658 3808 1437 3712 
Q 1216 3616 1113 3459 
Q 1011 3302 1011 3104 
Q 1011 2880 1152 2710 
Q 1293 2541 1715 2445 
L 2630 2240 
Q 3238 2106 3478 1834 
Q 3718 1562 3718 1158 
Q 3718 800 3516 521 
Q 3315 243 2950 89 
Q 2586 -64 2093 -64 
Q 1632 -64 1283 61 
Q 934 186 684 397 
Q 435 608 275 870 
L 723 1235 
Q 845 992 1037 806 
Q 1229 621 1501 518 
Q 1773 416 2125 416 
Q 2451 416 2691 496 
Q 2931 576 3059 733 
Q 3187 890 3187 1114 
Q 3187 1318 3052 1481 
Q 2918 1645 2547 1728 
L 1555 1952 
Q 1165 2042 925 2198 
Q 685 2355 579 2569 
Q 474 2784 474 3034 
Q 474 3373 662 3657 
Q 851 3942 1206 4115 
Q 1562 4288 2048 4288 
z
" id="WorkSans-Regular-53" transform="scale(0.015625)"/>
       <path d="M 2394 4288 
Q 2995 4288 3433 4022 
Q 3872 3757 4112 3270 
Q 4352 2784 4352 2112 
Q 4352 1440 4112 953 
Q 3872 467 3433 201 
Q 2995 -64 2394 -64 
Q 1792 -64 1353 201 
Q 915 467 675 953 
Q 435 1440 435 2112 
Q 435 2784 675 3270 
Q 915 3757 1353 4022 
Q 1792 4288 2394 4288 
z
M 2394 3808 
Q 1958 3808 1638 3606 
Q 1318 3405 1145 3024 
Q 973 2643 973 2112 
Q 973 1581 1145 1200 
Q 1318 819 1638 617 
Q 1958 416 2394 416 
Q 2835 416 3152 617 
Q 3469 819 3641 1200 
Q 3814 1581 3814 2112 
Q 3814 2643 3641 3024 
Q 3469 3405 3152 3606 
Q 2835 3808 2394 3808 
z
" id="WorkSans-Regular-4f" transform="scale(0.015625)"/>
       <path id="WorkSans-Regular-20" transform="scale(0.015625)"/>
       <path d="M 4096 1082 
Q 3962 723 3712 464 
Q 3462 205 3126 70 
Q 2790 -64 2394 -64 
Q 1792 -64 1353 201 
Q 915 467 675 953 
Q 435 1440 435 2112 
Q 435 2784 675 3270 
Q 915 3757 1353 4022 
Q 1792 4288 2381 4288 
Q 2790 4288 3110 4176 
Q 3430 4064 3657 3843 
Q 3885 3622 4019 3302 
L 3514 3066 
Q 3373 3430 3107 3619 
Q 2842 3808 2419 3808 
Q 1990 3808 1664 3606 
Q 1338 3405 1155 3027 
Q 973 2650 973 2112 
Q 973 1581 1145 1200 
Q 1318 819 1638 617 
Q 1958 416 2394 416 
Q 2816 416 3129 630 
Q 3443 845 3584 1274 
L 4096 1082 
z
" id="WorkSans-Regular-43" transform="scale(0.015625)"/>
       <path d="M 1920 3264 
Q 2374 3264 2723 3065 
Q 3072 2867 3270 2492 
Q 3469 2118 3469 1600 
Q 3469 1082 3270 707 
Q 3072 333 2723 134 
Q 2374 -64 1920 -64 
Q 1472 -64 1120 134 
Q 768 333 569 707 
Q 371 1082 371 1600 
Q 371 2118 569 2492 
Q 768 2867 1120 3065 
Q 1472 3264 1920 3264 
z
M 1920 2822 
Q 1594 2822 1363 2675 
Q 1133 2528 1008 2256 
Q 883 1984 883 1600 
Q 883 1222 1008 947 
Q 1133 672 1363 525 
Q 1594 378 1920 378 
Q 2246 378 2476 525 
Q 2707 672 2832 947 
Q 2957 1222 2957 1600 
Q 2957 1984 2832 2256 
Q 2707 2528 2476 2675 
Q 2246 2822 1920 2822 
z
" id="WorkSans-Regular-6f" transform="scale(0.015625)"/>
       <path d="M 1933 -64 
Q 1478 -64 1123 134 
Q 768 333 569 707 
Q 371 1082 371 1600 
Q 371 2118 569 2492 
Q 768 2867 1113 3065 
Q 1459 3264 1901 3264 
Q 2349 3264 2665 3072 
Q 2982 2880 3148 2550 
Q 3315 2221 3315 1811 
Q 3315 1702 3308 1612 
Q 3302 1523 3290 1453 
L 704 1453 
L 704 1907 
L 3066 1907 
L 2803 1856 
Q 2803 2317 2550 2566 
Q 2298 2816 1888 2816 
Q 1574 2816 1347 2672 
Q 1120 2528 995 2256 
Q 870 1984 870 1600 
Q 870 1222 998 947 
Q 1126 672 1360 528 
Q 1594 384 1920 384 
Q 2272 384 2493 518 
Q 2714 653 2848 883 
L 3251 646 
Q 3130 429 2941 269 
Q 2752 109 2499 22 
Q 2246 -64 1933 -64 
z
" id="WorkSans-Regular-65" transform="scale(0.015625)"/>
       <path d="M 1894 4704 
Q 2061 4704 2208 4665 
Q 2355 4627 2438 4557 
L 2304 4141 
Q 2227 4192 2137 4214 
Q 2048 4237 1939 4237 
Q 1664 4237 1510 4105 
Q 1357 3974 1357 3686 
L 1357 3200 
L 1357 3034 
L 1357 0 
L 845 0 
L 845 3738 
Q 845 3949 909 4128 
Q 973 4307 1104 4435 
Q 1235 4563 1433 4633 
Q 1632 4704 1894 4704 
z
M 2426 3200 
L 2426 2758 
L 205 2758 
L 205 3200 
L 2426 3200 
z
" id="WorkSans-Regular-66" transform="scale(0.015625)"/>
       <path d="M 851 3814 
Q 678 3814 572 3920 
Q 467 4026 467 4198 
Q 467 4371 572 4476 
Q 678 4582 851 4582 
Q 1024 4582 1129 4476 
Q 1235 4371 1235 4198 
Q 1235 4026 1129 3920 
Q 1024 3814 851 3814 
z
M 1107 3200 
L 1107 0 
L 595 0 
L 595 3200 
L 1107 3200 
z
" id="WorkSans-Regular-69" transform="scale(0.015625)"/>
       <path d="M 1920 3264 
Q 2253 3264 2505 3161 
Q 2758 3059 2944 2867 
Q 3130 2675 3245 2413 
L 2758 2182 
Q 2656 2490 2448 2653 
Q 2240 2816 1907 2816 
Q 1587 2816 1356 2672 
Q 1126 2528 1004 2256 
Q 883 1984 883 1600 
Q 883 1222 1004 947 
Q 1126 672 1356 528 
Q 1587 384 1907 384 
Q 2157 384 2339 461 
Q 2522 538 2640 685 
Q 2758 832 2803 1043 
L 3277 877 
Q 3168 582 2979 371 
Q 2790 160 2524 48 
Q 2259 -64 1920 -64 
Q 1472 -64 1120 134 
Q 768 333 569 707 
Q 371 1082 371 1600 
Q 371 2118 569 2492 
Q 768 2867 1120 3065 
Q 1472 3264 1920 3264 
z
" id="WorkSans-Regular-63" transform="scale(0.015625)"/>
       <path d="M 595 0 
L 595 3200 
L 1043 3200 
L 1088 2483 
L 1005 2554 
Q 1107 2810 1280 2966 
Q 1453 3123 1680 3193 
Q 1907 3264 2150 3264 
Q 2496 3264 2777 3133 
Q 3059 3002 3228 2733 
Q 3398 2464 3398 2048 
L 3398 0 
L 2886 0 
L 2886 1869 
Q 2886 2400 2659 2608 
Q 2432 2816 2099 2816 
Q 1869 2816 1638 2707 
Q 1408 2598 1257 2355 
Q 1107 2112 1107 1702 
L 1107 0 
L 595 0 
z
" id="WorkSans-Regular-6e" transform="scale(0.015625)"/>
       <path d="M 1350 4109 
L 1350 883 
Q 1350 646 1484 531 
Q 1619 416 1830 416 
Q 2016 416 2150 480 
Q 2285 544 2394 653 
L 2573 224 
Q 2426 90 2224 13 
Q 2022 -64 1760 -64 
Q 1517 -64 1305 22 
Q 1094 109 969 297 
Q 845 486 838 794 
L 838 3968 
L 1350 4109 
z
M 2515 3200 
L 2515 2758 
L 198 2758 
L 198 3200 
L 2515 3200 
z
" id="WorkSans-Regular-74" transform="scale(0.015625)"/>
      </defs>
      <use xlink:href="#WorkSans-Regular-4c"/>
      <use x="59.799988" xlink:href="#WorkSans-Regular-41"/>
      <use x="125.799973" xlink:href="#WorkSans-Regular-53"/>
      <use x="189.899963" xlink:href="#WorkSans-Regular-53"/>
      <use x="253.999954" xlink:href="#WorkSans-Regular-4f"/>
      <use x="328.799942" xlink:href="#WorkSans-Regular-20"/>
      <use x="362.899933" xlink:href="#WorkSans-Regular-43"/>
      <use x="431.499924" xlink:href="#WorkSans-Regular-6f"/>
      <use x="491.499908" xlink:href="#WorkSans-Regular-65"/>
      <use x="549.199905" xlink:href="#WorkSans-Regular-66"/>
      <use x="588.499893" xlink:href="#WorkSans-Regular-66"/>
      <use x="627.799881" xlink:href="#WorkSans-Regular-69"/>
      <use x="654.399872" xlink:href="#WorkSans-Regular-63"/>
      <use x="710.399857" xlink:href="#WorkSans-Regular-69"/>
      <use x="736.999847" xlink:href="#WorkSans-Regular-65"/>
      <use x="794.699844" xlink:href="#WorkSans-Regular-6e"/>
      <use x="856.599838" xlink:href="#WorkSans-Regular-74"/>
     </g>
    </g>
   </g>
   <g id="matplotlib.axis_2">
    <g id="ytick_1">
     <g id="text_7">
      <!-- Height -->
      <g style="fill:#262626;" transform="translate(72.775938 255.327126)scale(0.1 -0.1)">
       <defs>
        <path d="M 4006 4224 
L 4006 0 
L 3494 0 
L 3494 4224 
L 4006 4224 
z
M 1203 4224 
L 1203 0 
L 691 0 
L 691 4224 
L 1203 4224 
z
M 3731 2381 
L 3731 1901 
L 960 1901 
L 960 2381 
L 3731 2381 
z
" id="WorkSans-Regular-48" transform="scale(0.015625)"/>
        <path d="M 3290 3789 
L 3405 3334 
Q 3398 3334 3385 3334 
Q 3373 3334 3360 3334 
Q 3046 3334 2876 3209 
Q 2707 3085 2707 2810 
L 2394 2970 
Q 2394 3219 2509 3404 
Q 2624 3590 2822 3689 
Q 3021 3789 3258 3789 
Q 3264 3789 3273 3789 
Q 3283 3789 3290 3789 
z
M 2317 410 
Q 2771 410 3027 202 
Q 3283 -6 3283 -352 
Q 3283 -666 3075 -896 
Q 2867 -1126 2518 -1251 
Q 2170 -1376 1734 -1376 
Q 979 -1376 604 -1120 
Q 230 -864 230 -506 
Q 230 -250 400 -48 
Q 570 154 973 179 
L 928 83 
Q 710 141 560 278 
Q 410 416 410 678 
Q 410 941 605 1129 
Q 800 1318 1184 1363 
L 1523 1190 
L 1459 1190 
Q 1146 1158 1014 1033 
Q 883 909 883 762 
Q 883 582 1014 496 
Q 1146 410 1382 410 
L 2317 410 
z
M 1728 -947 
Q 2099 -947 2339 -870 
Q 2579 -794 2694 -672 
Q 2810 -550 2810 -410 
Q 2810 -237 2672 -134 
Q 2534 -32 2176 -32 
L 1190 -32 
Q 986 -32 845 -137 
Q 704 -243 704 -429 
Q 704 -666 976 -806 
Q 1248 -947 1728 -947 
z
M 1683 3264 
Q 2067 3264 2364 3126 
Q 2662 2989 2828 2745 
Q 2995 2502 2995 2182 
Q 2995 1869 2828 1622 
Q 2662 1376 2364 1238 
Q 2067 1101 1683 1101 
Q 1050 1101 710 1405 
Q 371 1709 371 2182 
Q 371 2502 540 2745 
Q 710 2989 1004 3126 
Q 1299 3264 1683 3264 
z
M 1683 2848 
Q 1350 2848 1126 2665 
Q 902 2483 902 2182 
Q 902 1888 1126 1702 
Q 1350 1517 1683 1517 
Q 2016 1517 2240 1702 
Q 2464 1888 2464 2182 
Q 2464 2483 2240 2665 
Q 2016 2848 1683 2848 
z
" id="WorkSans-Regular-67" transform="scale(0.015625)"/>
        <path d="M 595 0 
L 595 4672 
L 1107 4672 
L 1107 2720 
Q 1274 3008 1549 3136 
Q 1824 3264 2150 3264 
Q 2496 3264 2777 3133 
Q 3059 3002 3228 2733 
Q 3398 2464 3398 2048 
L 3398 0 
L 2886 0 
L 2886 1869 
Q 2886 2400 2659 2608 
Q 2432 2816 2099 2816 
Q 1869 2816 1638 2707 
Q 1408 2598 1257 2352 
Q 1107 2106 1107 1696 
L 1107 0 
L 595 0 
z
" id="WorkSans-Regular-68" transform="scale(0.015625)"/>
       </defs>
       <use xlink:href="#WorkSans-Regular-48"/>
       <use x="73.399994" xlink:href="#WorkSans-Regular-65"/>
       <use x="131.099991" xlink:href="#WorkSans-Regular-69"/>
       <use x="157.699982" xlink:href="#WorkSans-Regular-67"/>
       <use x="210.899979" xlink:href="#WorkSans-Regular-68"/>
       <use x="272.799973" xlink:href="#WorkSans-Regular-74"/>
      </g>
     </g>
    </g>
    <g id="ytick_2">
     <g id="text_8">
      <!-- Health Insurance -->
      <g style="fill:#262626;" transform="translate(20.736875 240.854769)scale(0.1 -0.1)">
       <defs>
        <path d="M 2464 2067 
Q 2464 2426 2272 2621 
Q 2080 2816 1728 2816 
Q 1395 2816 1164 2672 
Q 934 2528 826 2208 
L 410 2464 
Q 538 2822 883 3043 
Q 1229 3264 1741 3264 
Q 2086 3264 2368 3145 
Q 2650 3027 2813 2787 
Q 2976 2547 2976 2170 
L 2976 621 
Q 2976 390 3219 390 
Q 3341 390 3456 422 
L 3430 19 
Q 3302 -45 3098 -45 
Q 2912 -45 2765 25 
Q 2618 96 2534 240 
Q 2451 384 2451 602 
L 2451 666 
L 2579 646 
Q 2502 397 2316 240 
Q 2131 83 1900 9 
Q 1670 -64 1446 -64 
Q 1165 -64 921 32 
Q 678 128 534 323 
Q 390 518 390 806 
Q 390 1165 630 1398 
Q 870 1632 1299 1715 
L 2566 1965 
L 2566 1542 
L 1536 1331 
Q 1222 1267 1068 1152 
Q 915 1037 915 832 
Q 915 634 1072 509 
Q 1229 384 1517 384 
Q 1702 384 1872 432 
Q 2042 480 2176 579 
Q 2310 678 2387 828 
Q 2464 979 2464 1184 
L 2464 2067 
z
" id="WorkSans-Regular-61" transform="scale(0.015625)"/>
        <path d="M 1082 4672 
L 1082 813 
Q 1082 570 1171 477 
Q 1261 384 1459 384 
Q 1587 384 1670 403 
Q 1754 422 1894 474 
L 1811 26 
Q 1709 -19 1587 -41 
Q 1466 -64 1338 -64 
Q 947 -64 758 147 
Q 570 358 570 794 
L 570 4672 
L 1082 4672 
z
" id="WorkSans-Regular-6c" transform="scale(0.015625)"/>
        <path d="M 1203 4224 
L 1203 0 
L 691 0 
L 691 4224 
L 1203 4224 
z
" id="WorkSans-Regular-49" transform="scale(0.015625)"/>
        <path d="M 1747 -64 
Q 1280 -64 886 134 
Q 493 333 282 698 
L 717 1011 
Q 858 717 1130 550 
Q 1402 384 1786 384 
Q 2125 384 2317 515 
Q 2509 646 2509 858 
Q 2509 992 2422 1104 
Q 2336 1216 2093 1267 
L 1325 1427 
Q 858 1523 656 1747 
Q 454 1971 454 2304 
Q 454 2566 604 2784 
Q 755 3002 1033 3133 
Q 1312 3264 1690 3264 
Q 2163 3264 2489 3078 
Q 2816 2893 2976 2554 
L 2547 2272 
Q 2438 2554 2195 2685 
Q 1952 2816 1690 2816 
Q 1459 2816 1296 2752 
Q 1133 2688 1046 2576 
Q 960 2464 960 2323 
Q 960 2182 1056 2064 
Q 1152 1946 1414 1894 
L 2214 1728 
Q 2662 1638 2841 1433 
Q 3021 1229 3021 934 
Q 3021 634 2861 406 
Q 2701 179 2413 57 
Q 2125 -64 1747 -64 
z
" id="WorkSans-Regular-73" transform="scale(0.015625)"/>
        <path d="M 1754 -64 
Q 1446 -64 1174 51 
Q 902 166 732 425 
Q 563 685 563 1101 
L 563 3200 
L 1075 3200 
L 1075 1235 
Q 1075 749 1286 566 
Q 1498 384 1882 384 
Q 2061 384 2233 445 
Q 2406 506 2544 637 
Q 2682 768 2762 973 
Q 2842 1178 2842 1459 
L 2842 3200 
L 3354 3200 
L 3354 0 
L 2906 0 
L 2874 486 
Q 2707 198 2422 67 
Q 2138 -64 1754 -64 
z
" id="WorkSans-Regular-75" transform="scale(0.015625)"/>
        <path d="M 595 0 
L 595 3200 
L 1011 3200 
L 1082 2675 
Q 1216 2970 1475 3117 
Q 1734 3264 2106 3264 
Q 2189 3264 2288 3251 
Q 2387 3238 2458 3200 
L 2368 2733 
Q 2298 2758 2214 2771 
Q 2131 2784 1978 2784 
Q 1779 2784 1577 2669 
Q 1376 2554 1241 2320 
Q 1107 2086 1107 1728 
L 1107 0 
L 595 0 
z
" id="WorkSans-Regular-72" transform="scale(0.015625)"/>
       </defs>
       <use xlink:href="#WorkSans-Regular-48"/>
       <use x="73.399994" xlink:href="#WorkSans-Regular-65"/>
       <use x="131.099991" xlink:href="#WorkSans-Regular-61"/>
       <use x="187.699982" xlink:href="#WorkSans-Regular-6c"/>
       <use x="218.299973" xlink:href="#WorkSans-Regular-74"/>
       <use x="260.199966" xlink:href="#WorkSans-Regular-68"/>
       <use x="322.09996" xlink:href="#WorkSans-Regular-20"/>
       <use x="356.199951" xlink:href="#WorkSans-Regular-49"/>
       <use x="385.799942" xlink:href="#WorkSans-Regular-6e"/>
       <use x="447.699936" xlink:href="#WorkSans-Regular-73"/>
       <use x="500.399933" xlink:href="#WorkSans-Regular-75"/>
       <use x="562.09993" xlink:href="#WorkSans-Regular-72"/>
       <use x="602.899918" xlink:href="#WorkSans-Regular-61"/>
       <use x="659.499908" xlink:href="#WorkSans-Regular-6e"/>
       <use x="721.399902" xlink:href="#WorkSans-Regular-63"/>
       <use x="777.399887" xlink:href="#WorkSans-Regular-65"/>
      </g>
     </g>
    </g>
    <g id="ytick_3">
     <g id="text_9">
      <!-- Sitting Height -->
      <g style="fill:#262626;" transform="translate(37.74625 226.382412)scale(0.1 -0.1)">
       <use xlink:href="#WorkSans-Regular-53"/>
       <use x="64.099991" xlink:href="#WorkSans-Regular-69"/>
       <use x="90.699982" xlink:href="#WorkSans-Regular-74"/>
       <use x="132.599976" xlink:href="#WorkSans-Regular-74"/>
       <use x="174.499969" xlink:href="#WorkSans-Regular-69"/>
       <use x="201.09996" xlink:href="#WorkSans-Regular-6e"/>
       <use x="262.999954" xlink:href="#WorkSans-Regular-67"/>
       <use x="316.199951" xlink:href="#WorkSans-Regular-20"/>
       <use x="350.299942" xlink:href="#WorkSans-Regular-48"/>
       <use x="423.699936" xlink:href="#WorkSans-Regular-65"/>
       <use x="481.399933" xlink:href="#WorkSans-Regular-69"/>
       <use x="507.999924" xlink:href="#WorkSans-Regular-67"/>
       <use x="561.199921" xlink:href="#WorkSans-Regular-68"/>
       <use x="623.099915" xlink:href="#WorkSans-Regular-74"/>
      </g>
     </g>
    </g>
    <g id="ytick_4">
     <g id="text_10">
      <!-- BMI -->
      <g style="fill:#262626;" transform="translate(86.218125 211.910054)scale(0.1 -0.1)">
       <defs>
        <path d="M 691 0 
L 691 4224 
L 2195 4224 
Q 2944 4224 3289 3910 
Q 3635 3597 3635 3059 
Q 3635 2739 3449 2480 
Q 3264 2221 2925 2150 
L 2925 2144 
Q 3302 2074 3523 1802 
Q 3744 1530 3744 1184 
Q 3744 646 3341 323 
Q 2938 0 2189 0 
L 691 0 
z
M 1203 480 
L 2310 480 
Q 2765 480 2985 665 
Q 3206 851 3206 1184 
Q 3206 1523 2985 1705 
Q 2765 1888 2310 1888 
L 1203 1888 
L 1203 480 
z
M 1203 2368 
L 2202 2368 
Q 3098 2368 3098 3059 
Q 3098 3744 2202 3744 
L 1203 3744 
L 1203 2368 
z
" id="WorkSans-Regular-42" transform="scale(0.015625)"/>
        <path d="M 4774 4224 
L 4774 0 
L 4288 0 
L 4288 2656 
L 4346 3770 
L 4339 3770 
L 2950 0 
L 2515 0 
L 1126 3770 
L 1120 3770 
L 1178 2656 
L 1178 0 
L 691 0 
L 691 4224 
L 1478 4224 
L 2406 1658 
L 2726 602 
L 2739 602 
L 3066 1651 
L 3987 4224 
L 4774 4224 
z
" id="WorkSans-Regular-4d" transform="scale(0.015625)"/>
       </defs>
       <use xlink:href="#WorkSans-Regular-42"/>
       <use x="65.299988" xlink:href="#WorkSans-Regular-4d"/>
       <use x="150.699982" xlink:href="#WorkSans-Regular-49"/>
      </g>
     </g>
    </g>
    <g id="ytick_5">
     <g id="text_11">
      <!-- English Language -->
      <g style="fill:#262626;" transform="translate(19.697812 197.437697)scale(0.1 -0.1)">
       <defs>
        <path d="M 691 0 
L 691 4224 
L 3654 4224 
L 3654 3744 
L 1203 3744 
L 1203 2381 
L 3110 2381 
L 3110 1901 
L 1203 1901 
L 1203 480 
L 3750 480 
L 3750 0 
L 691 0 
z
" id="WorkSans-Regular-45" transform="scale(0.015625)"/>
       </defs>
       <use xlink:href="#WorkSans-Regular-45"/>
       <use x="63.799988" xlink:href="#WorkSans-Regular-6e"/>
       <use x="125.699982" xlink:href="#WorkSans-Regular-67"/>
       <use x="178.899979" xlink:href="#WorkSans-Regular-6c"/>
       <use x="209.499969" xlink:href="#WorkSans-Regular-69"/>
       <use x="236.09996" xlink:href="#WorkSans-Regular-73"/>
       <use x="288.799957" xlink:href="#WorkSans-Regular-68"/>
       <use x="350.699951" xlink:href="#WorkSans-Regular-20"/>
       <use x="384.799942" xlink:href="#WorkSans-Regular-4c"/>
       <use x="444.59993" xlink:href="#WorkSans-Regular-61"/>
       <use x="501.199921" xlink:href="#WorkSans-Regular-6e"/>
       <use x="563.099915" xlink:href="#WorkSans-Regular-67"/>
       <use x="616.299911" xlink:href="#WorkSans-Regular-75"/>
       <use x="677.999908" xlink:href="#WorkSans-Regular-61"/>
       <use x="734.599899" xlink:href="#WorkSans-Regular-67"/>
       <use x="787.799896" xlink:href="#WorkSans-Regular-65"/>
      </g>
     </g>
    </g>
    <g id="ytick_6">
     <g id="text_12">
      <!-- Hip Circumference -->
      <g style="fill:#262626;" transform="translate(12.55875 182.99034)scale(0.1 -0.1)">
       <defs>
        <path d="M 595 -1344 
L 595 3200 
L 1043 3200 
L 1088 2419 
L 1018 2509 
Q 1101 2733 1267 2902 
Q 1434 3072 1670 3168 
Q 1907 3264 2182 3264 
Q 2573 3264 2902 3065 
Q 3232 2867 3430 2496 
Q 3629 2125 3629 1600 
Q 3629 1082 3427 707 
Q 3226 333 2893 134 
Q 2560 -64 2163 -64 
Q 1766 -64 1468 131 
Q 1171 326 1043 627 
L 1107 723 
L 1107 -1344 
L 595 -1344 
z
M 2112 384 
Q 2586 384 2851 717 
Q 3117 1050 3117 1600 
Q 3117 2150 2857 2483 
Q 2598 2816 2131 2816 
Q 1824 2816 1593 2665 
Q 1363 2515 1235 2243 
Q 1107 1971 1107 1600 
Q 1107 1235 1232 960 
Q 1357 685 1584 534 
Q 1811 384 2112 384 
z
" id="WorkSans-Regular-70" transform="scale(0.015625)"/>
        <path d="M 595 0 
L 595 3200 
L 1043 3200 
L 1075 2701 
Q 1248 2995 1526 3129 
Q 1805 3264 2099 3264 
Q 2438 3264 2739 3110 
Q 3040 2957 3200 2637 
Q 3302 2854 3488 2992 
Q 3674 3130 3894 3197 
Q 4115 3264 4314 3264 
Q 4621 3264 4899 3136 
Q 5178 3008 5357 2739 
Q 5536 2470 5536 2048 
L 5536 0 
L 5024 0 
L 5024 1997 
Q 5024 2432 4806 2624 
Q 4589 2816 4269 2816 
Q 4019 2816 3801 2694 
Q 3584 2573 3453 2336 
Q 3322 2099 3322 1754 
L 3322 0 
L 2810 0 
L 2810 1997 
Q 2810 2432 2592 2624 
Q 2374 2816 2054 2816 
Q 1843 2816 1622 2704 
Q 1402 2592 1254 2349 
Q 1107 2106 1107 1709 
L 1107 0 
L 595 0 
z
" id="WorkSans-Regular-6d" transform="scale(0.015625)"/>
       </defs>
       <use xlink:href="#WorkSans-Regular-48"/>
       <use x="73.399994" xlink:href="#WorkSans-Regular-69"/>
       <use x="99.999985" xlink:href="#WorkSans-Regular-70"/>
       <use x="162.699982" xlink:href="#WorkSans-Regular-20"/>
       <use x="196.799973" xlink:href="#WorkSans-Regular-43"/>
       <use x="265.399963" xlink:href="#WorkSans-Regular-69"/>
       <use x="291.999954" xlink:href="#WorkSans-Regular-72"/>
       <use x="332.799942" xlink:href="#WorkSans-Regular-63"/>
       <use x="388.799927" xlink:href="#WorkSans-Regular-75"/>
       <use x="450.499924" xlink:href="#WorkSans-Regular-6d"/>
       <use x="545.799911" xlink:href="#WorkSans-Regular-66"/>
       <use x="585.099899" xlink:href="#WorkSans-Regular-65"/>
       <use x="642.799896" xlink:href="#WorkSans-Regular-72"/>
       <use x="683.599884" xlink:href="#WorkSans-Regular-65"/>
       <use x="741.299881" xlink:href="#WorkSans-Regular-6e"/>
       <use x="803.199875" xlink:href="#WorkSans-Regular-63"/>
       <use x="859.19986" xlink:href="#WorkSans-Regular-65"/>
      </g>
     </g>
    </g>
    <g id="ytick_7">
     <g id="text_13">
      <!-- Private Insurance -->
      <g style="fill:#262626;" transform="translate(19.288438 168.492983)scale(0.1 -0.1)">
       <defs>
        <path d="M 2182 4224 
Q 2611 4224 2928 4067 
Q 3245 3910 3424 3622 
Q 3603 3334 3603 2938 
Q 3603 2541 3424 2253 
Q 3245 1965 2928 1808 
Q 2611 1651 2182 1651 
L 1203 1651 
L 1203 0 
L 691 0 
L 691 4224 
L 2182 4224 
z
M 2106 2131 
Q 2605 2131 2835 2339 
Q 3066 2547 3066 2938 
Q 3066 3334 2835 3539 
Q 2605 3744 2106 3744 
L 1203 3744 
L 1203 2131 
L 2106 2131 
z
" id="WorkSans-Regular-50" transform="scale(0.015625)"/>
        <path d="M 2714 3200 
L 3251 3200 
L 1920 0 
L 1408 0 
L 77 3200 
L 659 3200 
L 1670 518 
L 2714 3200 
z
" id="WorkSans-Regular-76" transform="scale(0.015625)"/>
       </defs>
       <use xlink:href="#WorkSans-Regular-50"/>
       <use x="60.999985" xlink:href="#WorkSans-Regular-72"/>
       <use x="101.799973" xlink:href="#WorkSans-Regular-69"/>
       <use x="128.399963" xlink:href="#WorkSans-Regular-76"/>
       <use x="180.399948" xlink:href="#WorkSans-Regular-61"/>
       <use x="236.999939" xlink:href="#WorkSans-Regular-74"/>
       <use x="278.899933" xlink:href="#WorkSans-Regular-65"/>
       <use x="336.59993" xlink:href="#WorkSans-Regular-20"/>
       <use x="370.699921" xlink:href="#WorkSans-Regular-49"/>
       <use x="400.299911" xlink:href="#WorkSans-Regular-6e"/>
       <use x="462.199905" xlink:href="#WorkSans-Regular-73"/>
       <use x="514.899902" xlink:href="#WorkSans-Regular-75"/>
       <use x="576.599899" xlink:href="#WorkSans-Regular-72"/>
       <use x="617.399887" xlink:href="#WorkSans-Regular-61"/>
       <use x="673.999878" xlink:href="#WorkSans-Regular-6e"/>
       <use x="735.899872" xlink:href="#WorkSans-Regular-63"/>
       <use x="791.899857" xlink:href="#WorkSans-Regular-65"/>
      </g>
     </g>
    </g>
    <g id="ytick_8">
     <g id="text_14">
      <!-- Work Mask -->
      <g style="fill:#262626;" transform="translate(50.338438 154.020625)scale(0.1 -0.1)">
       <defs>
        <path d="M 1478 0 
L 230 4224 
L 762 4224 
L 1805 467 
L 2797 4224 
L 3379 4224 
L 4371 454 
L 5414 4224 
L 5920 4224 
L 4678 0 
L 4045 0 
L 3296 2739 
L 3078 3693 
L 3072 3693 
L 2854 2739 
L 2112 0 
L 1478 0 
z
" id="WorkSans-Regular-57" transform="scale(0.015625)"/>
        <path d="M 3405 3200 
L 2022 1818 
L 1901 1696 
L 851 646 
L 851 1286 
L 2758 3200 
L 3405 3200 
z
M 1107 4672 
L 1107 0 
L 595 0 
L 595 4672 
L 1107 4672 
z
M 2067 2080 
L 3482 0 
L 2861 0 
L 1638 1792 
L 2067 2080 
z
" id="WorkSans-Regular-6b" transform="scale(0.015625)"/>
       </defs>
       <use xlink:href="#WorkSans-Regular-57"/>
       <use x="96.099991" xlink:href="#WorkSans-Regular-6f"/>
       <use x="156.099976" xlink:href="#WorkSans-Regular-72"/>
       <use x="196.899963" xlink:href="#WorkSans-Regular-6b"/>
       <use x="253.59996" xlink:href="#WorkSans-Regular-20"/>
       <use x="287.699951" xlink:href="#WorkSans-Regular-4d"/>
       <use x="373.099945" xlink:href="#WorkSans-Regular-61"/>
       <use x="429.699936" xlink:href="#WorkSans-Regular-73"/>
       <use x="482.399933" xlink:href="#WorkSans-Regular-6b"/>
      </g>
     </g>
    </g>
    <g id="ytick_9">
     <g id="text_15">
      <!-- Weight -->
      <g style="fill:#262626;" transform="translate(70.507188 139.548268)scale(0.1 -0.1)">
       <use xlink:href="#WorkSans-Regular-57"/>
       <use x="96.099991" xlink:href="#WorkSans-Regular-65"/>
       <use x="153.799988" xlink:href="#WorkSans-Regular-69"/>
       <use x="180.399979" xlink:href="#WorkSans-Regular-67"/>
       <use x="233.599976" xlink:href="#WorkSans-Regular-68"/>
       <use x="295.499969" xlink:href="#WorkSans-Regular-74"/>
      </g>
     </g>
    </g>
    <g id="ytick_10">
     <g id="text_16">
      <!-- Waist Circumference -->
      <g style="fill:#262626;" transform="translate(1.44 125.075911)scale(0.1 -0.1)">
       <use xlink:href="#WorkSans-Regular-57"/>
       <use x="96.099991" xlink:href="#WorkSans-Regular-61"/>
       <use x="152.699982" xlink:href="#WorkSans-Regular-69"/>
       <use x="179.299973" xlink:href="#WorkSans-Regular-73"/>
       <use x="231.999969" xlink:href="#WorkSans-Regular-74"/>
       <use x="273.899963" xlink:href="#WorkSans-Regular-20"/>
       <use x="307.999954" xlink:href="#WorkSans-Regular-43"/>
       <use x="376.599945" xlink:href="#WorkSans-Regular-69"/>
       <use x="403.199936" xlink:href="#WorkSans-Regular-72"/>
       <use x="443.999924" xlink:href="#WorkSans-Regular-63"/>
       <use x="499.999908" xlink:href="#WorkSans-Regular-75"/>
       <use x="561.699905" xlink:href="#WorkSans-Regular-6d"/>
       <use x="656.999893" xlink:href="#WorkSans-Regular-66"/>
       <use x="696.299881" xlink:href="#WorkSans-Regular-65"/>
       <use x="753.999878" xlink:href="#WorkSans-Regular-72"/>
       <use x="794.799866" xlink:href="#WorkSans-Regular-65"/>
       <use x="852.499863" xlink:href="#WorkSans-Regular-6e"/>
       <use x="914.399857" xlink:href="#WorkSans-Regular-63"/>
       <use x="970.399841" xlink:href="#WorkSans-Regular-65"/>
      </g>
     </g>
    </g>
    <g id="ytick_11">
     <g id="text_17">
      <!-- Immigrant -->
      <g style="fill:#262626;" transform="translate(54.129063 110.578554)scale(0.1 -0.1)">
       <use xlink:href="#WorkSans-Regular-49"/>
       <use x="29.599991" xlink:href="#WorkSans-Regular-6d"/>
       <use x="124.899979" xlink:href="#WorkSans-Regular-6d"/>
       <use x="220.199966" xlink:href="#WorkSans-Regular-69"/>
       <use x="246.799957" xlink:href="#WorkSans-Regular-67"/>
       <use x="299.999954" xlink:href="#WorkSans-Regular-72"/>
       <use x="340.799942" xlink:href="#WorkSans-Regular-61"/>
       <use x="397.399933" xlink:href="#WorkSans-Regular-6e"/>
       <use x="459.299927" xlink:href="#WorkSans-Regular-74"/>
      </g>
     </g>
    </g>
    <g id="ytick_12">
     <g id="text_18">
      <!-- Veteran -->
      <g style="fill:#262626;" transform="translate(66.107188 96.131196)scale(0.1 -0.1)">
       <defs>
        <path d="M 3968 4224 
L 2368 0 
L 1786 0 
L 179 4224 
L 730 4224 
L 1805 1306 
L 2074 467 
L 2342 1299 
L 3418 4224 
L 3968 4224 
z
" id="WorkSans-Regular-56" transform="scale(0.015625)"/>
       </defs>
       <use xlink:href="#WorkSans-Regular-56"/>
       <use x="64.799988" xlink:href="#WorkSans-Regular-65"/>
       <use x="122.499985" xlink:href="#WorkSans-Regular-74"/>
       <use x="164.399979" xlink:href="#WorkSans-Regular-65"/>
       <use x="222.099976" xlink:href="#WorkSans-Regular-72"/>
       <use x="262.899963" xlink:href="#WorkSans-Regular-61"/>
       <use x="319.499954" xlink:href="#WorkSans-Regular-6e"/>
      </g>
     </g>
    </g>
    <g id="ytick_13">
     <g id="text_19">
      <!-- Work Exhaust -->
      <g style="fill:#262626;" transform="translate(36.288438 81.658839)scale(0.1 -0.1)">
       <defs>
        <path d="M 902 3200 
L 1856 1862 
L 1888 1818 
L 3200 0 
L 2573 0 
L 1581 1389 
L 1523 1459 
L 262 3200 
L 902 3200 
z
M 3181 3200 
L 1914 1491 
L 1882 1491 
L 781 0 
L 186 0 
L 1581 1837 
L 1619 1837 
L 2579 3200 
L 3181 3200 
z
" id="WorkSans-Regular-78" transform="scale(0.015625)"/>
       </defs>
       <use xlink:href="#WorkSans-Regular-57"/>
       <use x="96.099991" xlink:href="#WorkSans-Regular-6f"/>
       <use x="156.099976" xlink:href="#WorkSans-Regular-72"/>
       <use x="196.899963" xlink:href="#WorkSans-Regular-6b"/>
       <use x="253.59996" xlink:href="#WorkSans-Regular-20"/>
       <use x="287.699951" xlink:href="#WorkSans-Regular-45"/>
       <use x="351.499939" xlink:href="#WorkSans-Regular-78"/>
       <use x="404.799927" xlink:href="#WorkSans-Regular-68"/>
       <use x="466.699921" xlink:href="#WorkSans-Regular-61"/>
       <use x="523.299911" xlink:href="#WorkSans-Regular-75"/>
       <use x="584.999908" xlink:href="#WorkSans-Regular-73"/>
       <use x="637.699905" xlink:href="#WorkSans-Regular-74"/>
      </g>
     </g>
    </g>
    <g id="ytick_14">
     <g id="text_20">
      <!-- Arm Length -->
      <g style="fill:#262626;" transform="translate(46.986875 67.186482)scale(0.1 -0.1)">
       <use xlink:href="#WorkSans-Regular-41"/>
       <use x="65.999985" xlink:href="#WorkSans-Regular-72"/>
       <use x="106.799973" xlink:href="#WorkSans-Regular-6d"/>
       <use x="202.09996" xlink:href="#WorkSans-Regular-20"/>
       <use x="236.199951" xlink:href="#WorkSans-Regular-4c"/>
       <use x="295.999939" xlink:href="#WorkSans-Regular-65"/>
       <use x="353.699936" xlink:href="#WorkSans-Regular-6e"/>
       <use x="415.59993" xlink:href="#WorkSans-Regular-67"/>
       <use x="468.799927" xlink:href="#WorkSans-Regular-74"/>
       <use x="510.699921" xlink:href="#WorkSans-Regular-68"/>
      </g>
     </g>
    </g>
    <g id="ytick_15">
     <g id="text_21">
      <!-- Income Category -->
      <g style="fill:#262626;" transform="translate(21.749375 52.689125)scale(0.1 -0.1)">
       <defs>
        <path d="M 3226 3200 
L 1722 -538 
Q 1600 -851 1456 -1033 
Q 1312 -1216 1136 -1296 
Q 960 -1376 730 -1376 
Q 512 -1376 329 -1315 
Q 147 -1254 6 -1152 
L 147 -704 
Q 275 -819 419 -873 
Q 563 -928 704 -928 
Q 870 -928 1017 -825 
Q 1165 -723 1286 -410 
L 1453 6 
L 1133 768 
L 115 3200 
L 698 3200 
L 1498 1114 
L 1696 544 
L 1926 1178 
L 2675 3200 
L 3226 3200 
z
" id="WorkSans-Regular-79" transform="scale(0.015625)"/>
       </defs>
       <use xlink:href="#WorkSans-Regular-49"/>
       <use x="29.599991" xlink:href="#WorkSans-Regular-6e"/>
       <use x="91.499985" xlink:href="#WorkSans-Regular-63"/>
       <use x="147.499969" xlink:href="#WorkSans-Regular-6f"/>
       <use x="207.499954" xlink:href="#WorkSans-Regular-6d"/>
       <use x="302.799942" xlink:href="#WorkSans-Regular-65"/>
       <use x="360.499939" xlink:href="#WorkSans-Regular-20"/>
       <use x="394.59993" xlink:href="#WorkSans-Regular-43"/>
       <use x="463.199921" xlink:href="#WorkSans-Regular-61"/>
       <use x="519.799911" xlink:href="#WorkSans-Regular-74"/>
       <use x="561.699905" xlink:href="#WorkSans-Regular-65"/>
       <use x="619.399902" xlink:href="#WorkSans-Regular-67"/>
       <use x="672.599899" xlink:href="#WorkSans-Regular-6f"/>
       <use x="732.599884" xlink:href="#WorkSans-Regular-72"/>
       <use x="773.399872" xlink:href="#WorkSans-Regular-79"/>
      </g>
     </g>
    </g>
   </g>
   <g id="patch_3">
    <path clip-path="url(#p4b2c632b21)" d="M 221.685241 256.615818 
L 296.44512 256.615818 
L 296.44512 254.336422 
L 221.685241 254.336422 
z
" style="fill:#ffd166;stroke:#ffffff;stroke-linejoin:miter;stroke-width:0.3;"/>
   </g>
   <g id="patch_4">
    <path clip-path="url(#p4b2c632b21)" d="M 221.685241 242.143461 
L 124.732626 242.143461 
L 124.732626 239.864065 
L 221.685241 239.864065 
z
" style="fill:#ffd166;stroke:#ffffff;stroke-linejoin:miter;stroke-width:0.3;"/>
   </g>
   <g id="patch_5">
    <path clip-path="url(#p4b2c632b21)" d="M 221.685241 227.671104 
L 385.036926 227.671104 
L 385.036926 225.391707 
L 221.685241 225.391707 
z
" style="fill:#ffd166;stroke:#ffffff;stroke-linejoin:miter;stroke-width:0.3;"/>
   </g>
   <g id="patch_6">
    <path clip-path="url(#p4b2c632b21)" d="M 221.685241 213.198746 
L 269.639725 213.198746 
L 269.639725 210.91935 
L 221.685241 210.91935 
z
" style="fill:#ffd166;stroke:#ffffff;stroke-linejoin:miter;stroke-width:0.3;"/>
   </g>
   <g id="patch_7">
    <path clip-path="url(#p4b2c632b21)" d="M 221.685241 198.726389 
L 145.145471 198.726389 
L 145.145471 196.446993 
L 221.685241 196.446993 
z
" style="fill:#ffd166;stroke:#ffffff;stroke-linejoin:miter;stroke-width:0.3;"/>
   </g>
   <g id="patch_8">
    <path clip-path="url(#p4b2c632b21)" d="M 221.685241 184.254032 
L 221.685241 184.254032 
L 221.685241 181.974636 
L 221.685241 181.974636 
z
" style="fill:#ffd166;stroke:#ffffff;stroke-linejoin:miter;stroke-width:0.3;"/>
   </g>
   <g id="patch_9">
    <path clip-path="url(#p4b2c632b21)" d="M 221.685241 169.781675 
L 263.014743 169.781675 
L 263.014743 167.502278 
L 221.685241 167.502278 
z
" style="fill:#ffd166;stroke:#ffffff;stroke-linejoin:miter;stroke-width:0.3;"/>
   </g>
   <g id="patch_10">
    <path clip-path="url(#p4b2c632b21)" d="M 221.685241 155.309317 
L 275.493512 155.309317 
L 275.493512 153.029921 
L 221.685241 153.029921 
z
" style="fill:#ffd166;stroke:#ffffff;stroke-linejoin:miter;stroke-width:0.3;"/>
   </g>
   <g id="patch_11">
    <path clip-path="url(#p4b2c632b21)" d="M 221.685241 140.83696 
L 183.316151 140.83696 
L 183.316151 138.557564 
L 221.685241 138.557564 
z
" style="fill:#ffd166;stroke:#ffffff;stroke-linejoin:miter;stroke-width:0.3;"/>
   </g>
   <g id="patch_12">
    <path clip-path="url(#p4b2c632b21)" d="M 221.685241 126.364603 
L 182.40105 126.364603 
L 182.40105 124.085207 
L 221.685241 124.085207 
z
" style="fill:#ffd166;stroke:#ffffff;stroke-linejoin:miter;stroke-width:0.3;"/>
   </g>
   <g id="patch_13">
    <path clip-path="url(#p4b2c632b21)" d="M 221.685241 111.892246 
L 216.1569 111.892246 
L 216.1569 109.612849 
L 221.685241 109.612849 
z
" style="fill:#ffd166;stroke:#ffffff;stroke-linejoin:miter;stroke-width:0.3;"/>
   </g>
   <g id="patch_14">
    <path clip-path="url(#p4b2c632b21)" d="M 221.685241 97.419888 
L 280.340159 97.419888 
L 280.340159 95.140492 
L 221.685241 95.140492 
z
" style="fill:#ffd166;stroke:#ffffff;stroke-linejoin:miter;stroke-width:0.3;"/>
   </g>
   <g id="patch_15">
    <path clip-path="url(#p4b2c632b21)" d="M 221.685241 82.947531 
L 221.685241 82.947531 
L 221.685241 80.668135 
L 221.685241 80.668135 
z
" style="fill:#ffd166;stroke:#ffffff;stroke-linejoin:miter;stroke-width:0.3;"/>
   </g>
   <g id="patch_16">
    <path clip-path="url(#p4b2c632b21)" d="M 221.685241 68.475174 
L 231.89292 68.475174 
L 231.89292 66.195778 
L 221.685241 66.195778 
z
" style="fill:#ffd166;stroke:#ffffff;stroke-linejoin:miter;stroke-width:0.3;"/>
   </g>
   <g id="patch_17">
    <path clip-path="url(#p4b2c632b21)" d="M 221.685241 54.002817 
L 221.685241 54.002817 
L 221.685241 51.72342 
L 221.685241 51.72342 
z
" style="fill:#ffd166;stroke:#ffffff;stroke-linejoin:miter;stroke-width:0.3;"/>
   </g>
   <g id="patch_18">
    <path clip-path="url(#p4b2c632b21)" d="M 221.685241 254.083156 
L 455.388557 254.083156 
L 455.388557 251.803759 
L 221.685241 251.803759 
z
" style="fill:#c94cc2;stroke:#ffffff;stroke-linejoin:miter;stroke-width:0.3;"/>
   </g>
   <g id="patch_19">
    <path clip-path="url(#p4b2c632b21)" d="M 221.685241 239.610798 
L 140.628683 239.610798 
L 140.628683 237.331402 
L 221.685241 237.331402 
z
" style="fill:#c94cc2;stroke:#ffffff;stroke-linejoin:miter;stroke-width:0.3;"/>
   </g>
   <g id="patch_20">
    <path clip-path="url(#p4b2c632b21)" d="M 221.685241 225.138441 
L 320.902992 225.138441 
L 320.902992 222.859045 
L 221.685241 222.859045 
z
" style="fill:#c94cc2;stroke:#ffffff;stroke-linejoin:miter;stroke-width:0.3;"/>
   </g>
   <g id="patch_21">
    <path clip-path="url(#p4b2c632b21)" d="M 221.685241 210.666084 
L 326.248423 210.666084 
L 326.248423 208.386688 
L 221.685241 208.386688 
z
" style="fill:#c94cc2;stroke:#ffffff;stroke-linejoin:miter;stroke-width:0.3;"/>
   </g>
   <g id="patch_22">
    <path clip-path="url(#p4b2c632b21)" d="M 221.685241 196.193727 
L 143.965728 196.193727 
L 143.965728 193.91433 
L 221.685241 193.91433 
z
" style="fill:#c94cc2;stroke:#ffffff;stroke-linejoin:miter;stroke-width:0.3;"/>
   </g>
   <g id="patch_23">
    <path clip-path="url(#p4b2c632b21)" d="M 221.685241 181.721369 
L 221.685241 181.721369 
L 221.685241 179.441973 
L 221.685241 179.441973 
z
" style="fill:#c94cc2;stroke:#ffffff;stroke-linejoin:miter;stroke-width:0.3;"/>
   </g>
   <g id="patch_24">
    <path clip-path="url(#p4b2c632b21)" d="M 221.685241 167.249012 
L 273.753932 167.249012 
L 273.753932 164.969616 
L 221.685241 164.969616 
z
" style="fill:#c94cc2;stroke:#ffffff;stroke-linejoin:miter;stroke-width:0.3;"/>
   </g>
   <g id="patch_25">
    <path clip-path="url(#p4b2c632b21)" d="M 221.685241 152.776655 
L 221.685241 152.776655 
L 221.685241 150.497259 
L 221.685241 150.497259 
z
" style="fill:#c94cc2;stroke:#ffffff;stroke-linejoin:miter;stroke-width:0.3;"/>
   </g>
   <g id="patch_26">
    <path clip-path="url(#p4b2c632b21)" d="M 221.685241 138.304298 
L 171.443375 138.304298 
L 171.443375 136.024901 
L 221.685241 136.024901 
z
" style="fill:#c94cc2;stroke:#ffffff;stroke-linejoin:miter;stroke-width:0.3;"/>
   </g>
   <g id="patch_27">
    <path clip-path="url(#p4b2c632b21)" d="M 221.685241 123.83194 
L 148.985034 123.83194 
L 148.985034 121.552544 
L 221.685241 121.552544 
z
" style="fill:#c94cc2;stroke:#ffffff;stroke-linejoin:miter;stroke-width:0.3;"/>
   </g>
   <g id="patch_28">
    <path clip-path="url(#p4b2c632b21)" d="M 221.685241 109.359583 
L 157.680126 109.359583 
L 157.680126 107.080187 
L 221.685241 107.080187 
z
" style="fill:#c94cc2;stroke:#ffffff;stroke-linejoin:miter;stroke-width:0.3;"/>
   </g>
   <g id="patch_29">
    <path clip-path="url(#p4b2c632b21)" d="M 221.685241 94.887226 
L 212.671206 94.887226 
L 212.671206 92.60783 
L 221.685241 92.60783 
z
" style="fill:#c94cc2;stroke:#ffffff;stroke-linejoin:miter;stroke-width:0.3;"/>
   </g>
   <g id="patch_30">
    <path clip-path="url(#p4b2c632b21)" d="M 221.685241 80.414869 
L 221.685241 80.414869 
L 221.685241 78.135472 
L 221.685241 78.135472 
z
" style="fill:#c94cc2;stroke:#ffffff;stroke-linejoin:miter;stroke-width:0.3;"/>
   </g>
   <g id="patch_31">
    <path clip-path="url(#p4b2c632b21)" d="M 221.685241 65.942511 
L 193.417747 65.942511 
L 193.417747 63.663115 
L 221.685241 63.663115 
z
" style="fill:#c94cc2;stroke:#ffffff;stroke-linejoin:miter;stroke-width:0.3;"/>
   </g>
   <g id="patch_32">
    <path clip-path="url(#p4b2c632b21)" d="M 221.685241 51.470154 
L 221.685241 51.470154 
L 221.685241 49.190758 
L 221.685241 49.190758 
z
" style="fill:#c94cc2;stroke:#ffffff;stroke-linejoin:miter;stroke-width:0.3;"/>
   </g>
   <g id="patch_33">
    <path clip-path="url(#p4b2c632b21)" d="M 221.685241 251.550493 
L 478.048084 251.550493 
L 478.048084 249.271097 
L 221.685241 249.271097 
z
" style="fill:#ff6f61;stroke:#ffffff;stroke-linejoin:miter;stroke-width:0.3;"/>
   </g>
   <g id="patch_34">
    <path clip-path="url(#p4b2c632b21)" d="M 221.685241 237.078136 
L 123.952587 237.078136 
L 123.952587 234.79874 
L 221.685241 234.79874 
z
" style="fill:#ff6f61;stroke:#ffffff;stroke-linejoin:miter;stroke-width:0.3;"/>
   </g>
   <g id="patch_35">
    <path clip-path="url(#p4b2c632b21)" d="M 221.685241 222.605779 
L 274.366985 222.605779 
L 274.366985 220.326382 
L 221.685241 220.326382 
z
" style="fill:#ff6f61;stroke:#ffffff;stroke-linejoin:miter;stroke-width:0.3;"/>
   </g>
   <g id="patch_36">
    <path clip-path="url(#p4b2c632b21)" d="M 221.685241 208.133421 
L 288.463181 208.133421 
L 288.463181 205.854025 
L 221.685241 205.854025 
z
" style="fill:#ff6f61;stroke:#ffffff;stroke-linejoin:miter;stroke-width:0.3;"/>
   </g>
   <g id="patch_37">
    <path clip-path="url(#p4b2c632b21)" d="M 221.685241 193.661064 
L 143.277105 193.661064 
L 143.277105 191.381668 
L 221.685241 191.381668 
z
" style="fill:#ff6f61;stroke:#ffffff;stroke-linejoin:miter;stroke-width:0.3;"/>
   </g>
   <g id="patch_38">
    <path clip-path="url(#p4b2c632b21)" d="M 221.685241 179.188707 
L 221.685241 179.188707 
L 221.685241 176.909311 
L 221.685241 176.909311 
z
" style="fill:#ff6f61;stroke:#ffffff;stroke-linejoin:miter;stroke-width:0.3;"/>
   </g>
   <g id="patch_39">
    <path clip-path="url(#p4b2c632b21)" d="M 221.685241 164.71635 
L 290.184499 164.71635 
L 290.184499 162.436953 
L 221.685241 162.436953 
z
" style="fill:#ff6f61;stroke:#ffffff;stroke-linejoin:miter;stroke-width:0.3;"/>
   </g>
   <g id="patch_40">
    <path clip-path="url(#p4b2c632b21)" d="M 221.685241 150.243992 
L 221.685241 150.243992 
L 221.685241 147.964596 
L 221.685241 147.964596 
z
" style="fill:#ff6f61;stroke:#ffffff;stroke-linejoin:miter;stroke-width:0.3;"/>
   </g>
   <g id="patch_41">
    <path clip-path="url(#p4b2c632b21)" d="M 221.685241 135.771635 
L 185.45396 135.771635 
L 185.45396 133.492239 
L 221.685241 133.492239 
z
" style="fill:#ff6f61;stroke:#ffffff;stroke-linejoin:miter;stroke-width:0.3;"/>
   </g>
   <g id="patch_42">
    <path clip-path="url(#p4b2c632b21)" d="M 221.685241 121.299278 
L 148.661065 121.299278 
L 148.661065 119.019882 
L 221.685241 119.019882 
z
" style="fill:#ff6f61;stroke:#ffffff;stroke-linejoin:miter;stroke-width:0.3;"/>
   </g>
   <g id="patch_43">
    <path clip-path="url(#p4b2c632b21)" d="M 221.685241 106.826921 
L 182.055294 106.826921 
L 182.055294 104.547524 
L 221.685241 104.547524 
z
" style="fill:#ff6f61;stroke:#ffffff;stroke-linejoin:miter;stroke-width:0.3;"/>
   </g>
   <g id="patch_44">
    <path clip-path="url(#p4b2c632b21)" d="M 221.685241 92.354563 
L 255.403959 92.354563 
L 255.403959 90.075167 
L 221.685241 90.075167 
z
" style="fill:#ff6f61;stroke:#ffffff;stroke-linejoin:miter;stroke-width:0.3;"/>
   </g>
   <g id="patch_45">
    <path clip-path="url(#p4b2c632b21)" d="M 221.685241 77.882206 
L 221.685241 77.882206 
L 221.685241 75.60281 
L 221.685241 75.60281 
z
" style="fill:#ff6f61;stroke:#ffffff;stroke-linejoin:miter;stroke-width:0.3;"/>
   </g>
   <g id="patch_46">
    <path clip-path="url(#p4b2c632b21)" d="M 221.685241 63.409849 
L 174.729065 63.409849 
L 174.729065 61.130453 
L 221.685241 61.130453 
z
" style="fill:#ff6f61;stroke:#ffffff;stroke-linejoin:miter;stroke-width:0.3;"/>
   </g>
   <g id="patch_47">
    <path clip-path="url(#p4b2c632b21)" d="M 221.685241 48.937492 
L 221.685241 48.937492 
L 221.685241 46.658095 
L 221.685241 46.658095 
z
" style="fill:#ff6f61;stroke:#ffffff;stroke-linejoin:miter;stroke-width:0.3;"/>
   </g>
   <g id="patch_48">
    <path clip-path="url(#p4b2c632b21)" d="M 221.685241 249.01783 
L 429.399044 249.01783 
L 429.399044 246.738434 
L 221.685241 246.738434 
z
" style="fill:#118ab2;stroke:#ffffff;stroke-linejoin:miter;stroke-width:0.3;"/>
   </g>
   <g id="patch_49">
    <path clip-path="url(#p4b2c632b21)" d="M 221.685241 234.545473 
L 221.685241 234.545473 
L 221.685241 232.266077 
L 221.685241 232.266077 
z
" style="fill:#118ab2;stroke:#ffffff;stroke-linejoin:miter;stroke-width:0.3;"/>
   </g>
   <g id="patch_50">
    <path clip-path="url(#p4b2c632b21)" d="M 221.685241 220.073116 
L 265.908689 220.073116 
L 265.908689 217.79372 
L 221.685241 217.79372 
z
" style="fill:#118ab2;stroke:#ffffff;stroke-linejoin:miter;stroke-width:0.3;"/>
   </g>
   <g id="patch_51">
    <path clip-path="url(#p4b2c632b21)" d="M 221.685241 205.600759 
L 325.517088 205.600759 
L 325.517088 203.321363 
L 221.685241 203.321363 
z
" style="fill:#118ab2;stroke:#ffffff;stroke-linejoin:miter;stroke-width:0.3;"/>
   </g>
   <g id="patch_52">
    <path clip-path="url(#p4b2c632b21)" d="M 221.685241 191.128402 
L 221.685241 191.128402 
L 221.685241 188.849005 
L 221.685241 188.849005 
z
" style="fill:#118ab2;stroke:#ffffff;stroke-linejoin:miter;stroke-width:0.3;"/>
   </g>
   <g id="patch_53">
    <path clip-path="url(#p4b2c632b21)" d="M 221.685241 176.656044 
L 154.781702 176.656044 
L 154.781702 174.376648 
L 221.685241 174.376648 
z
" style="fill:#118ab2;stroke:#ffffff;stroke-linejoin:miter;stroke-width:0.3;"/>
   </g>
   <g id="patch_54">
    <path clip-path="url(#p4b2c632b21)" d="M 221.685241 162.183687 
L 221.685241 162.183687 
L 221.685241 159.904291 
L 221.685241 159.904291 
z
" style="fill:#118ab2;stroke:#ffffff;stroke-linejoin:miter;stroke-width:0.3;"/>
   </g>
   <g id="patch_55">
    <path clip-path="url(#p4b2c632b21)" d="M 221.685241 147.71133 
L 221.685241 147.71133 
L 221.685241 145.431934 
L 221.685241 145.431934 
z
" style="fill:#118ab2;stroke:#ffffff;stroke-linejoin:miter;stroke-width:0.3;"/>
   </g>
   <g id="patch_56">
    <path clip-path="url(#p4b2c632b21)" d="M 221.685241 133.238973 
L 151.94217 133.238973 
L 151.94217 130.959576 
L 221.685241 130.959576 
z
" style="fill:#118ab2;stroke:#ffffff;stroke-linejoin:miter;stroke-width:0.3;"/>
   </g>
   <g id="patch_57">
    <path clip-path="url(#p4b2c632b21)" d="M 221.685241 118.766615 
L 213.018131 118.766615 
L 213.018131 116.487219 
L 221.685241 116.487219 
z
" style="fill:#118ab2;stroke:#ffffff;stroke-linejoin:miter;stroke-width:0.3;"/>
   </g>
   <g id="patch_58">
    <path clip-path="url(#p4b2c632b21)" d="M 221.685241 104.294258 
L 158.326697 104.294258 
L 158.326697 102.014862 
L 221.685241 102.014862 
z
" style="fill:#118ab2;stroke:#ffffff;stroke-linejoin:miter;stroke-width:0.3;"/>
   </g>
   <g id="patch_59">
    <path clip-path="url(#p4b2c632b21)" d="M 221.685241 89.821901 
L 221.685241 89.821901 
L 221.685241 87.542505 
L 221.685241 87.542505 
z
" style="fill:#118ab2;stroke:#ffffff;stroke-linejoin:miter;stroke-width:0.3;"/>
   </g>
   <g id="patch_60">
    <path clip-path="url(#p4b2c632b21)" d="M 221.685241 75.349544 
L 255.208375 75.349544 
L 255.208375 73.070147 
L 221.685241 73.070147 
z
" style="fill:#118ab2;stroke:#ffffff;stroke-linejoin:miter;stroke-width:0.3;"/>
   </g>
   <g id="patch_61">
    <path clip-path="url(#p4b2c632b21)" d="M 221.685241 60.877186 
L 221.685241 60.877186 
L 221.685241 58.59779 
L 221.685241 58.59779 
z
" style="fill:#118ab2;stroke:#ffffff;stroke-linejoin:miter;stroke-width:0.3;"/>
   </g>
   <g id="patch_62">
    <path clip-path="url(#p4b2c632b21)" d="M 221.685241 46.404829 
L 245.371405 46.404829 
L 245.371405 44.125433 
L 221.685241 44.125433 
z
" style="fill:#118ab2;stroke:#ffffff;stroke-linejoin:miter;stroke-width:0.3;"/>
   </g>
   <g id="line2d_1">
    <path clip-path="url(#p4b2c632b21)" d="M 221.685241 267.240337 
L 221.685241 33.500914 
" style="fill:none;stroke:#808080;stroke-dasharray:1.48,0.64;stroke-dashoffset:0;stroke-width:0.4;"/>
   </g>
   <g id="patch_63">
    <path d="M 106.247813 267.240337 
L 106.247813 33.500914 
" style="fill:none;stroke:#333333;stroke-linecap:square;stroke-linejoin:miter;stroke-width:0.5;"/>
   </g>
   <g id="patch_64">
    <path d="M 106.247812 267.240337 
L 495.752859 267.240337 
" style="fill:none;stroke:#333333;stroke-linecap:square;stroke-linejoin:miter;stroke-width:0.5;"/>
   </g>
   <g id="text_22">
    <!-- a -->
    <g style="fill:#262626;" transform="translate(47.822056 17.247284)scale(0.1 -0.1)">
     <defs>
      <path d="M 2176 2029 
Q 2176 2253 2051 2384 
Q 1926 2515 1715 2515 
Q 1504 2515 1353 2409 
Q 1203 2304 1146 2035 
L 224 2253 
Q 314 2714 698 2989 
Q 1082 3264 1779 3264 
Q 2246 3264 2576 3126 
Q 2906 2989 3082 2717 
Q 3258 2445 3258 2048 
L 3258 877 
Q 3258 627 3482 627 
Q 3597 627 3667 653 
L 3603 32 
Q 3411 -58 3136 -58 
Q 2886 -58 2694 22 
Q 2502 102 2393 265 
Q 2285 429 2285 678 
L 2285 717 
L 2406 762 
Q 2406 486 2243 300 
Q 2080 115 1821 25 
Q 1562 -64 1280 -64 
Q 954 -64 710 38 
Q 467 141 336 336 
Q 205 531 205 819 
Q 205 1165 413 1392 
Q 621 1619 1069 1709 
L 2278 1958 
L 2272 1382 
L 1658 1254 
Q 1466 1216 1373 1142 
Q 1280 1069 1280 922 
Q 1280 781 1382 710 
Q 1485 640 1626 640 
Q 1734 640 1833 672 
Q 1933 704 2009 771 
Q 2086 838 2131 940 
Q 2176 1043 2176 1184 
L 2176 2029 
z
" id="WorkSans-Bold-61" transform="scale(0.015625)"/>
     </defs>
     <use xlink:href="#WorkSans-Bold-61"/>
    </g>
   </g>
   <g id="text_23">
    <!-- FEV$_1$ -->
    <g style="fill:#262626;" transform="translate(505.85296 137.280625)rotate(-270)scale(0.11 -0.11)">
     <defs>
      <path d="M 3648 3744 
L 1203 3744 
L 1203 2381 
L 3110 2381 
L 3110 1901 
L 1203 1901 
L 1203 0 
L 691 0 
L 691 4224 
L 3648 4224 
L 3648 3744 
z
" id="WorkSans-Regular-46" transform="scale(0.015625)"/>
      <path d="M 794 531 
L 1825 531 
L 1825 4091 
L 703 3866 
L 703 4441 
L 1819 4666 
L 2450 4666 
L 2450 531 
L 3481 531 
L 3481 0 
L 794 0 
L 794 531 
z
" id="DejaVuSans-31" transform="scale(0.015625)"/>
     </defs>
     <use xlink:href="#WorkSans-Regular-46"/>
     <use transform="translate(60.999985 0)" xlink:href="#WorkSans-Regular-45"/>
     <use transform="translate(124.799973 0)" xlink:href="#WorkSans-Regular-56"/>
     <use transform="translate(190.556992 -16.40625)scale(0.7)" xlink:href="#DejaVuSans-31"/>
    </g>
   </g>
   <g id="legend_1">
    <g id="patch_65">
     <path d="M 128.301898 12.74 
L 140.301898 12.74 
L 140.301898 5.74 
L 128.301898 5.74 
z
" style="fill:#ffd166;stroke:#ffffff;stroke-linejoin:miter;stroke-width:0.3;"/>
    </g>
    <g id="text_24">
     <!-- NHANES III -->
     <g style="fill:#262626;" transform="translate(148.301898 12.74)scale(0.1 -0.1)">
      <defs>
       <path d="M 4006 4224 
L 4006 0 
L 3373 0 
L 1606 2829 
L 1158 3622 
L 1152 3622 
L 1178 2982 
L 1178 0 
L 691 0 
L 691 4224 
L 1325 4224 
L 3085 1408 
L 3539 595 
L 3546 595 
L 3520 1242 
L 3520 4224 
L 4006 4224 
z
" id="WorkSans-Regular-4e" transform="scale(0.015625)"/>
      </defs>
      <use xlink:href="#WorkSans-Regular-4e"/>
      <use x="73.399994" xlink:href="#WorkSans-Regular-48"/>
      <use x="146.799988" xlink:href="#WorkSans-Regular-41"/>
      <use x="212.799973" xlink:href="#WorkSans-Regular-4e"/>
      <use x="286.199966" xlink:href="#WorkSans-Regular-45"/>
      <use x="349.999954" xlink:href="#WorkSans-Regular-53"/>
      <use x="414.099945" xlink:href="#WorkSans-Regular-20"/>
      <use x="448.199936" xlink:href="#WorkSans-Regular-49"/>
      <use x="477.799927" xlink:href="#WorkSans-Regular-49"/>
      <use x="507.399918" xlink:href="#WorkSans-Regular-49"/>
     </g>
    </g>
    <g id="patch_66">
     <path d="M 222.000336 12.74 
L 234.000336 12.74 
L 234.000336 5.74 
L 222.000336 5.74 
z
" style="fill:#c94cc2;stroke:#ffffff;stroke-linejoin:miter;stroke-width:0.3;"/>
    </g>
    <g id="text_25">
     <!-- NHANES IV -->
     <g style="fill:#262626;" transform="translate(242.000336 12.74)scale(0.1 -0.1)">
      <use xlink:href="#WorkSans-Regular-4e"/>
      <use x="73.399994" xlink:href="#WorkSans-Regular-48"/>
      <use x="146.799988" xlink:href="#WorkSans-Regular-41"/>
      <use x="212.799973" xlink:href="#WorkSans-Regular-4e"/>
      <use x="286.199966" xlink:href="#WorkSans-Regular-45"/>
      <use x="349.999954" xlink:href="#WorkSans-Regular-53"/>
      <use x="414.099945" xlink:href="#WorkSans-Regular-20"/>
      <use x="448.199936" xlink:href="#WorkSans-Regular-49"/>
      <use x="477.799927" xlink:href="#WorkSans-Regular-56"/>
     </g>
    </g>
    <g id="patch_67">
     <path d="M 316.259711 12.74 
L 328.259711 12.74 
L 328.259711 5.74 
L 316.259711 5.74 
z
" style="fill:#ff6f61;stroke:#ffffff;stroke-linejoin:miter;stroke-width:0.3;"/>
    </g>
    <g id="text_26">
     <!-- NHANES -->
     <g style="fill:#262626;" transform="translate(336.259711 12.74)scale(0.1 -0.1)">
      <use xlink:href="#WorkSans-Regular-4e"/>
      <use x="73.399994" xlink:href="#WorkSans-Regular-48"/>
      <use x="146.799988" xlink:href="#WorkSans-Regular-41"/>
      <use x="212.799973" xlink:href="#WorkSans-Regular-4e"/>
      <use x="286.199966" xlink:href="#WorkSans-Regular-45"/>
      <use x="349.999954" xlink:href="#WorkSans-Regular-53"/>
     </g>
    </g>
    <g id="patch_68">
     <path d="M 397.670648 12.74 
L 409.670648 12.74 
L 409.670648 5.74 
L 397.670648 5.74 
z
" style="fill:#118ab2;stroke:#ffffff;stroke-linejoin:miter;stroke-width:0.3;"/>
    </g>
    <g id="text_27">
     <!-- UK Biobank -->
     <g style="fill:#262626;" transform="translate(417.670648 12.74)scale(0.1 -0.1)">
      <defs>
       <path d="M 3923 4224 
L 3923 1574 
Q 3923 762 3494 349 
Q 3066 -64 2266 -64 
Q 1472 -64 1040 349 
Q 608 762 608 1574 
L 608 4224 
L 1120 4224 
L 1120 1702 
Q 1120 1043 1398 729 
Q 1677 416 2266 416 
Q 2854 416 3132 729 
Q 3411 1043 3411 1702 
L 3411 4224 
L 3923 4224 
z
" id="WorkSans-Regular-55" transform="scale(0.015625)"/>
       <path d="M 4000 4224 
L 2157 2336 
L 2080 2253 
L 947 1094 
L 947 1786 
L 3328 4224 
L 4000 4224 
z
M 1203 4224 
L 1203 0 
L 691 0 
L 691 4224 
L 1203 4224 
z
M 2208 2662 
L 4019 0 
L 3405 0 
L 1786 2374 
L 2208 2662 
z
" id="WorkSans-Regular-4b" transform="scale(0.015625)"/>
       <path d="M 2163 -64 
Q 1894 -64 1664 32 
Q 1434 128 1267 301 
Q 1101 474 1018 691 
L 1088 781 
L 1043 0 
L 595 0 
L 595 4672 
L 1107 4672 
L 1107 2477 
L 1043 2573 
Q 1171 2874 1475 3069 
Q 1779 3264 2170 3264 
Q 2566 3264 2899 3065 
Q 3232 2867 3430 2496 
Q 3629 2125 3629 1600 
Q 3629 1082 3427 707 
Q 3226 333 2893 134 
Q 2560 -64 2163 -64 
z
M 2112 384 
Q 2586 384 2851 717 
Q 3117 1050 3117 1600 
Q 3117 2150 2854 2483 
Q 2592 2816 2118 2816 
Q 1818 2816 1590 2662 
Q 1363 2509 1235 2233 
Q 1107 1958 1107 1587 
Q 1107 1222 1232 950 
Q 1357 678 1584 531 
Q 1811 384 2112 384 
z
" id="WorkSans-Regular-62" transform="scale(0.015625)"/>
      </defs>
      <use xlink:href="#WorkSans-Regular-55"/>
      <use x="70.799988" xlink:href="#WorkSans-Regular-4b"/>
      <use x="136.399979" xlink:href="#WorkSans-Regular-20"/>
      <use x="170.499969" xlink:href="#WorkSans-Regular-42"/>
      <use x="235.799957" xlink:href="#WorkSans-Regular-69"/>
      <use x="262.399948" xlink:href="#WorkSans-Regular-6f"/>
      <use x="322.399933" xlink:href="#WorkSans-Regular-62"/>
      <use x="385.09993" xlink:href="#WorkSans-Regular-61"/>
      <use x="441.699921" xlink:href="#WorkSans-Regular-6e"/>
      <use x="503.599915" xlink:href="#WorkSans-Regular-6b"/>
     </g>
    </g>
   </g>
  </g>
  <g id="axes_2">
   <g id="patch_69">
    <path d="M 106.247813 550.782068 
L 495.752859 550.782068 
L 495.752859 317.042644 
L 106.247813 317.042644 
z
" style="fill:#ffffff;"/>
   </g>
   <g id="matplotlib.axis_3">
    <g id="xtick_6">
     <g id="text_28">
      <!-- −200 -->
      <g style="fill:#262626;" transform="translate(145.508232 557.892068)scale(0.07 -0.07)">
       <use xlink:href="#WorkSans-Regular-2212"/>
       <use x="60.399994" xlink:href="#WorkSans-Regular-32"/>
       <use x="118.699982" xlink:href="#WorkSans-Regular-30"/>
       <use x="180.899979" xlink:href="#WorkSans-Regular-30"/>
      </g>
     </g>
    </g>
    <g id="xtick_7">
     <g id="text_29">
      <!-- 0 -->
      <g style="fill:#262626;" transform="translate(213.591288 557.892068)scale(0.07 -0.07)">
       <use xlink:href="#WorkSans-Regular-30"/>
      </g>
     </g>
    </g>
    <g id="xtick_8">
     <g id="text_30">
      <!-- 200 -->
      <g style="fill:#262626;" transform="translate(271.125126 557.892068)scale(0.07 -0.07)">
       <use xlink:href="#WorkSans-Regular-32"/>
       <use x="58.299988" xlink:href="#WorkSans-Regular-30"/>
       <use x="120.499985" xlink:href="#WorkSans-Regular-30"/>
      </g>
     </g>
    </g>
    <g id="xtick_9">
     <g id="text_31">
      <!-- 400 -->
      <g style="fill:#262626;" transform="translate(332.778572 557.892068)scale(0.07 -0.07)">
       <use xlink:href="#WorkSans-Regular-34"/>
       <use x="61.099991" xlink:href="#WorkSans-Regular-30"/>
       <use x="123.299988" xlink:href="#WorkSans-Regular-30"/>
      </g>
     </g>
    </g>
    <g id="xtick_10">
     <g id="text_32">
      <!-- 600 -->
      <g style="fill:#262626;" transform="translate(394.5403 557.892068)scale(0.07 -0.07)">
       <use xlink:href="#WorkSans-Regular-36"/>
       <use x="60.799988" xlink:href="#WorkSans-Regular-30"/>
       <use x="122.999985" xlink:href="#WorkSans-Regular-30"/>
      </g>
     </g>
    </g>
    <g id="xtick_11">
     <g id="text_33">
      <!-- 800 -->
      <g style="fill:#262626;" transform="translate(456.263747 557.892068)scale(0.07 -0.07)">
       <defs>
        <path d="M 1971 4282 
Q 2381 4282 2681 4147 
Q 2982 4013 3148 3766 
Q 3315 3520 3315 3174 
Q 3315 2848 3158 2601 
Q 3002 2355 2720 2227 
L 2720 2221 
Q 3078 2086 3292 1811 
Q 3507 1536 3507 1139 
Q 3507 768 3315 499 
Q 3123 230 2780 83 
Q 2438 -64 1971 -64 
Q 1510 -64 1164 83 
Q 819 230 627 499 
Q 435 768 435 1139 
Q 435 1530 646 1808 
Q 858 2086 1229 2221 
L 1229 2227 
Q 954 2349 790 2595 
Q 627 2842 627 3174 
Q 627 3520 793 3766 
Q 960 4013 1264 4147 
Q 1568 4282 1971 4282 
z
M 1971 3802 
Q 1600 3802 1379 3622 
Q 1158 3443 1158 3123 
Q 1158 2810 1382 2630 
Q 1606 2451 1971 2451 
Q 2336 2451 2560 2630 
Q 2784 2810 2784 3123 
Q 2784 3443 2566 3622 
Q 2349 3802 1971 3802 
z
M 1971 416 
Q 2285 416 2509 509 
Q 2733 602 2854 778 
Q 2976 954 2976 1190 
Q 2976 1434 2851 1610 
Q 2726 1786 2502 1878 
Q 2278 1971 1971 1971 
Q 1670 1971 1443 1878 
Q 1216 1786 1091 1610 
Q 966 1434 966 1190 
Q 966 954 1088 778 
Q 1210 602 1437 509 
Q 1664 416 1971 416 
z
" id="WorkSans-Regular-38" transform="scale(0.015625)"/>
       </defs>
       <use xlink:href="#WorkSans-Regular-38"/>
       <use x="61.599991" xlink:href="#WorkSans-Regular-30"/>
       <use x="123.799988" xlink:href="#WorkSans-Regular-30"/>
      </g>
     </g>
    </g>
    <g id="text_34">
     <!-- LASSO Coefficient -->
     <g style="fill:#262626;" transform="translate(256.076898 568.662068)scale(0.1 -0.1)">
      <use xlink:href="#WorkSans-Regular-4c"/>
      <use x="59.799988" xlink:href="#WorkSans-Regular-41"/>
      <use x="125.799973" xlink:href="#WorkSans-Regular-53"/>
      <use x="189.899963" xlink:href="#WorkSans-Regular-53"/>
      <use x="253.999954" xlink:href="#WorkSans-Regular-4f"/>
      <use x="328.799942" xlink:href="#WorkSans-Regular-20"/>
      <use x="362.899933" xlink:href="#WorkSans-Regular-43"/>
      <use x="431.499924" xlink:href="#WorkSans-Regular-6f"/>
      <use x="491.499908" xlink:href="#WorkSans-Regular-65"/>
      <use x="549.199905" xlink:href="#WorkSans-Regular-66"/>
      <use x="588.499893" xlink:href="#WorkSans-Regular-66"/>
      <use x="627.799881" xlink:href="#WorkSans-Regular-69"/>
      <use x="654.399872" xlink:href="#WorkSans-Regular-63"/>
      <use x="710.399857" xlink:href="#WorkSans-Regular-69"/>
      <use x="736.999847" xlink:href="#WorkSans-Regular-65"/>
      <use x="794.699844" xlink:href="#WorkSans-Regular-6e"/>
      <use x="856.599838" xlink:href="#WorkSans-Regular-74"/>
     </g>
    </g>
   </g>
   <g id="matplotlib.axis_4">
    <g id="ytick_16">
     <g id="text_35">
      <!-- Height -->
      <g style="fill:#262626;" transform="translate(72.775938 538.868857)scale(0.1 -0.1)">
       <use xlink:href="#WorkSans-Regular-48"/>
       <use x="73.399994" xlink:href="#WorkSans-Regular-65"/>
       <use x="131.099991" xlink:href="#WorkSans-Regular-69"/>
       <use x="157.699982" xlink:href="#WorkSans-Regular-67"/>
       <use x="210.899979" xlink:href="#WorkSans-Regular-68"/>
       <use x="272.799973" xlink:href="#WorkSans-Regular-74"/>
      </g>
     </g>
    </g>
    <g id="ytick_17">
     <g id="text_36">
      <!-- Sitting Height -->
      <g style="fill:#262626;" transform="translate(37.74625 524.3965)scale(0.1 -0.1)">
       <use xlink:href="#WorkSans-Regular-53"/>
       <use x="64.099991" xlink:href="#WorkSans-Regular-69"/>
       <use x="90.699982" xlink:href="#WorkSans-Regular-74"/>
       <use x="132.599976" xlink:href="#WorkSans-Regular-74"/>
       <use x="174.499969" xlink:href="#WorkSans-Regular-69"/>
       <use x="201.09996" xlink:href="#WorkSans-Regular-6e"/>
       <use x="262.999954" xlink:href="#WorkSans-Regular-67"/>
       <use x="316.199951" xlink:href="#WorkSans-Regular-20"/>
       <use x="350.299942" xlink:href="#WorkSans-Regular-48"/>
       <use x="423.699936" xlink:href="#WorkSans-Regular-65"/>
       <use x="481.399933" xlink:href="#WorkSans-Regular-69"/>
       <use x="507.999924" xlink:href="#WorkSans-Regular-67"/>
       <use x="561.199921" xlink:href="#WorkSans-Regular-68"/>
       <use x="623.099915" xlink:href="#WorkSans-Regular-74"/>
      </g>
     </g>
    </g>
    <g id="ytick_18">
     <g id="text_37">
      <!-- English Language -->
      <g style="fill:#262626;" transform="translate(19.697812 509.924142)scale(0.1 -0.1)">
       <use xlink:href="#WorkSans-Regular-45"/>
       <use x="63.799988" xlink:href="#WorkSans-Regular-6e"/>
       <use x="125.699982" xlink:href="#WorkSans-Regular-67"/>
       <use x="178.899979" xlink:href="#WorkSans-Regular-6c"/>
       <use x="209.499969" xlink:href="#WorkSans-Regular-69"/>
       <use x="236.09996" xlink:href="#WorkSans-Regular-73"/>
       <use x="288.799957" xlink:href="#WorkSans-Regular-68"/>
       <use x="350.699951" xlink:href="#WorkSans-Regular-20"/>
       <use x="384.799942" xlink:href="#WorkSans-Regular-4c"/>
       <use x="444.59993" xlink:href="#WorkSans-Regular-61"/>
       <use x="501.199921" xlink:href="#WorkSans-Regular-6e"/>
       <use x="563.099915" xlink:href="#WorkSans-Regular-67"/>
       <use x="616.299911" xlink:href="#WorkSans-Regular-75"/>
       <use x="677.999908" xlink:href="#WorkSans-Regular-61"/>
       <use x="734.599899" xlink:href="#WorkSans-Regular-67"/>
       <use x="787.799896" xlink:href="#WorkSans-Regular-65"/>
      </g>
     </g>
    </g>
    <g id="ytick_19">
     <g id="text_38">
      <!-- Health Insurance -->
      <g style="fill:#262626;" transform="translate(20.736875 495.451785)scale(0.1 -0.1)">
       <use xlink:href="#WorkSans-Regular-48"/>
       <use x="73.399994" xlink:href="#WorkSans-Regular-65"/>
       <use x="131.099991" xlink:href="#WorkSans-Regular-61"/>
       <use x="187.699982" xlink:href="#WorkSans-Regular-6c"/>
       <use x="218.299973" xlink:href="#WorkSans-Regular-74"/>
       <use x="260.199966" xlink:href="#WorkSans-Regular-68"/>
       <use x="322.09996" xlink:href="#WorkSans-Regular-20"/>
       <use x="356.199951" xlink:href="#WorkSans-Regular-49"/>
       <use x="385.799942" xlink:href="#WorkSans-Regular-6e"/>
       <use x="447.699936" xlink:href="#WorkSans-Regular-73"/>
       <use x="500.399933" xlink:href="#WorkSans-Regular-75"/>
       <use x="562.09993" xlink:href="#WorkSans-Regular-72"/>
       <use x="602.899918" xlink:href="#WorkSans-Regular-61"/>
       <use x="659.499908" xlink:href="#WorkSans-Regular-6e"/>
       <use x="721.399902" xlink:href="#WorkSans-Regular-63"/>
       <use x="777.399887" xlink:href="#WorkSans-Regular-65"/>
      </g>
     </g>
    </g>
    <g id="ytick_20">
     <g id="text_39">
      <!-- BMI -->
      <g style="fill:#262626;" transform="translate(86.218125 480.979428)scale(0.1 -0.1)">
       <use xlink:href="#WorkSans-Regular-42"/>
       <use x="65.299988" xlink:href="#WorkSans-Regular-4d"/>
       <use x="150.699982" xlink:href="#WorkSans-Regular-49"/>
      </g>
     </g>
    </g>
    <g id="ytick_21">
     <g id="text_40">
      <!-- Weight -->
      <g style="fill:#262626;" transform="translate(70.507188 466.507071)scale(0.1 -0.1)">
       <use xlink:href="#WorkSans-Regular-57"/>
       <use x="96.099991" xlink:href="#WorkSans-Regular-65"/>
       <use x="153.799988" xlink:href="#WorkSans-Regular-69"/>
       <use x="180.399979" xlink:href="#WorkSans-Regular-67"/>
       <use x="233.599976" xlink:href="#WorkSans-Regular-68"/>
       <use x="295.499969" xlink:href="#WorkSans-Regular-74"/>
      </g>
     </g>
    </g>
    <g id="ytick_22">
     <g id="text_41">
      <!-- Hip Circumference -->
      <g style="fill:#262626;" transform="translate(12.55875 452.059713)scale(0.1 -0.1)">
       <use xlink:href="#WorkSans-Regular-48"/>
       <use x="73.399994" xlink:href="#WorkSans-Regular-69"/>
       <use x="99.999985" xlink:href="#WorkSans-Regular-70"/>
       <use x="162.699982" xlink:href="#WorkSans-Regular-20"/>
       <use x="196.799973" xlink:href="#WorkSans-Regular-43"/>
       <use x="265.399963" xlink:href="#WorkSans-Regular-69"/>
       <use x="291.999954" xlink:href="#WorkSans-Regular-72"/>
       <use x="332.799942" xlink:href="#WorkSans-Regular-63"/>
       <use x="388.799927" xlink:href="#WorkSans-Regular-75"/>
       <use x="450.499924" xlink:href="#WorkSans-Regular-6d"/>
       <use x="545.799911" xlink:href="#WorkSans-Regular-66"/>
       <use x="585.099899" xlink:href="#WorkSans-Regular-65"/>
       <use x="642.799896" xlink:href="#WorkSans-Regular-72"/>
       <use x="683.599884" xlink:href="#WorkSans-Regular-65"/>
       <use x="741.299881" xlink:href="#WorkSans-Regular-6e"/>
       <use x="803.199875" xlink:href="#WorkSans-Regular-63"/>
       <use x="859.19986" xlink:href="#WorkSans-Regular-65"/>
      </g>
     </g>
    </g>
    <g id="ytick_23">
     <g id="text_42">
      <!-- Private Insurance -->
      <g style="fill:#262626;" transform="translate(19.288438 437.562356)scale(0.1 -0.1)">
       <use xlink:href="#WorkSans-Regular-50"/>
       <use x="60.999985" xlink:href="#WorkSans-Regular-72"/>
       <use x="101.799973" xlink:href="#WorkSans-Regular-69"/>
       <use x="128.399963" xlink:href="#WorkSans-Regular-76"/>
       <use x="180.399948" xlink:href="#WorkSans-Regular-61"/>
       <use x="236.999939" xlink:href="#WorkSans-Regular-74"/>
       <use x="278.899933" xlink:href="#WorkSans-Regular-65"/>
       <use x="336.59993" xlink:href="#WorkSans-Regular-20"/>
       <use x="370.699921" xlink:href="#WorkSans-Regular-49"/>
       <use x="400.299911" xlink:href="#WorkSans-Regular-6e"/>
       <use x="462.199905" xlink:href="#WorkSans-Regular-73"/>
       <use x="514.899902" xlink:href="#WorkSans-Regular-75"/>
       <use x="576.599899" xlink:href="#WorkSans-Regular-72"/>
       <use x="617.399887" xlink:href="#WorkSans-Regular-61"/>
       <use x="673.999878" xlink:href="#WorkSans-Regular-6e"/>
       <use x="735.899872" xlink:href="#WorkSans-Regular-63"/>
       <use x="791.899857" xlink:href="#WorkSans-Regular-65"/>
      </g>
     </g>
    </g>
    <g id="ytick_24">
     <g id="text_43">
      <!-- Immigrant -->
      <g style="fill:#262626;" transform="translate(54.129063 423.064999)scale(0.1 -0.1)">
       <use xlink:href="#WorkSans-Regular-49"/>
       <use x="29.599991" xlink:href="#WorkSans-Regular-6d"/>
       <use x="124.899979" xlink:href="#WorkSans-Regular-6d"/>
       <use x="220.199966" xlink:href="#WorkSans-Regular-69"/>
       <use x="246.799957" xlink:href="#WorkSans-Regular-67"/>
       <use x="299.999954" xlink:href="#WorkSans-Regular-72"/>
       <use x="340.799942" xlink:href="#WorkSans-Regular-61"/>
       <use x="397.399933" xlink:href="#WorkSans-Regular-6e"/>
       <use x="459.299927" xlink:href="#WorkSans-Regular-74"/>
      </g>
     </g>
    </g>
    <g id="ytick_25">
     <g id="text_44">
      <!-- Work Mask -->
      <g style="fill:#262626;" transform="translate(50.338438 408.617642)scale(0.1 -0.1)">
       <use xlink:href="#WorkSans-Regular-57"/>
       <use x="96.099991" xlink:href="#WorkSans-Regular-6f"/>
       <use x="156.099976" xlink:href="#WorkSans-Regular-72"/>
       <use x="196.899963" xlink:href="#WorkSans-Regular-6b"/>
       <use x="253.59996" xlink:href="#WorkSans-Regular-20"/>
       <use x="287.699951" xlink:href="#WorkSans-Regular-4d"/>
       <use x="373.099945" xlink:href="#WorkSans-Regular-61"/>
       <use x="429.699936" xlink:href="#WorkSans-Regular-73"/>
       <use x="482.399933" xlink:href="#WorkSans-Regular-6b"/>
      </g>
     </g>
    </g>
    <g id="ytick_26">
     <g id="text_45">
      <!-- Waist Circumference -->
      <g style="fill:#262626;" transform="translate(1.44 394.145284)scale(0.1 -0.1)">
       <use xlink:href="#WorkSans-Regular-57"/>
       <use x="96.099991" xlink:href="#WorkSans-Regular-61"/>
       <use x="152.699982" xlink:href="#WorkSans-Regular-69"/>
       <use x="179.299973" xlink:href="#WorkSans-Regular-73"/>
       <use x="231.999969" xlink:href="#WorkSans-Regular-74"/>
       <use x="273.899963" xlink:href="#WorkSans-Regular-20"/>
       <use x="307.999954" xlink:href="#WorkSans-Regular-43"/>
       <use x="376.599945" xlink:href="#WorkSans-Regular-69"/>
       <use x="403.199936" xlink:href="#WorkSans-Regular-72"/>
       <use x="443.999924" xlink:href="#WorkSans-Regular-63"/>
       <use x="499.999908" xlink:href="#WorkSans-Regular-75"/>
       <use x="561.699905" xlink:href="#WorkSans-Regular-6d"/>
       <use x="656.999893" xlink:href="#WorkSans-Regular-66"/>
       <use x="696.299881" xlink:href="#WorkSans-Regular-65"/>
       <use x="753.999878" xlink:href="#WorkSans-Regular-72"/>
       <use x="794.799866" xlink:href="#WorkSans-Regular-65"/>
       <use x="852.499863" xlink:href="#WorkSans-Regular-6e"/>
       <use x="914.399857" xlink:href="#WorkSans-Regular-63"/>
       <use x="970.399841" xlink:href="#WorkSans-Regular-65"/>
      </g>
     </g>
    </g>
    <g id="ytick_27">
     <g id="text_46">
      <!-- Veteran -->
      <g style="fill:#262626;" transform="translate(66.107188 379.672927)scale(0.1 -0.1)">
       <use xlink:href="#WorkSans-Regular-56"/>
       <use x="64.799988" xlink:href="#WorkSans-Regular-65"/>
       <use x="122.499985" xlink:href="#WorkSans-Regular-74"/>
       <use x="164.399979" xlink:href="#WorkSans-Regular-65"/>
       <use x="222.099976" xlink:href="#WorkSans-Regular-72"/>
       <use x="262.899963" xlink:href="#WorkSans-Regular-61"/>
       <use x="319.499954" xlink:href="#WorkSans-Regular-6e"/>
      </g>
     </g>
    </g>
    <g id="ytick_28">
     <g id="text_47">
      <!-- Work Exhaust -->
      <g style="fill:#262626;" transform="translate(36.288438 365.20057)scale(0.1 -0.1)">
       <use xlink:href="#WorkSans-Regular-57"/>
       <use x="96.099991" xlink:href="#WorkSans-Regular-6f"/>
       <use x="156.099976" xlink:href="#WorkSans-Regular-72"/>
       <use x="196.899963" xlink:href="#WorkSans-Regular-6b"/>
       <use x="253.59996" xlink:href="#WorkSans-Regular-20"/>
       <use x="287.699951" xlink:href="#WorkSans-Regular-45"/>
       <use x="351.499939" xlink:href="#WorkSans-Regular-78"/>
       <use x="404.799927" xlink:href="#WorkSans-Regular-68"/>
       <use x="466.699921" xlink:href="#WorkSans-Regular-61"/>
       <use x="523.299911" xlink:href="#WorkSans-Regular-75"/>
       <use x="584.999908" xlink:href="#WorkSans-Regular-73"/>
       <use x="637.699905" xlink:href="#WorkSans-Regular-74"/>
      </g>
     </g>
    </g>
    <g id="ytick_29">
     <g id="text_48">
      <!-- Married -->
      <g style="fill:#262626;" transform="translate(67.188438 350.728213)scale(0.1 -0.1)">
       <defs>
        <path d="M 1843 -64 
Q 1446 -64 1113 134 
Q 781 333 582 707 
Q 384 1082 384 1600 
Q 384 2131 595 2502 
Q 806 2874 1152 3069 
Q 1498 3264 1894 3264 
Q 2291 3264 2582 3059 
Q 2874 2854 2970 2515 
L 2906 2470 
L 2906 4672 
L 3418 4672 
L 3418 0 
L 2970 0 
L 2925 774 
L 2995 813 
Q 2950 531 2780 336 
Q 2611 141 2364 38 
Q 2118 -64 1843 -64 
z
M 1894 384 
Q 2202 384 2429 537 
Q 2656 691 2781 976 
Q 2906 1261 2906 1645 
Q 2906 2010 2781 2272 
Q 2656 2534 2435 2675 
Q 2214 2816 1920 2816 
Q 1434 2816 1165 2483 
Q 896 2150 896 1600 
Q 896 1050 1158 717 
Q 1421 384 1894 384 
z
" id="WorkSans-Regular-64" transform="scale(0.015625)"/>
       </defs>
       <use xlink:href="#WorkSans-Regular-4d"/>
       <use x="85.399994" xlink:href="#WorkSans-Regular-61"/>
       <use x="141.999985" xlink:href="#WorkSans-Regular-72"/>
       <use x="182.799973" xlink:href="#WorkSans-Regular-72"/>
       <use x="223.59996" xlink:href="#WorkSans-Regular-69"/>
       <use x="250.199951" xlink:href="#WorkSans-Regular-65"/>
       <use x="307.899948" xlink:href="#WorkSans-Regular-64"/>
      </g>
     </g>
    </g>
    <g id="ytick_30">
     <g id="text_49">
      <!-- Arm Length -->
      <g style="fill:#262626;" transform="translate(46.986875 336.255855)scale(0.1 -0.1)">
       <use xlink:href="#WorkSans-Regular-41"/>
       <use x="65.999985" xlink:href="#WorkSans-Regular-72"/>
       <use x="106.799973" xlink:href="#WorkSans-Regular-6d"/>
       <use x="202.09996" xlink:href="#WorkSans-Regular-20"/>
       <use x="236.199951" xlink:href="#WorkSans-Regular-4c"/>
       <use x="295.999939" xlink:href="#WorkSans-Regular-65"/>
       <use x="353.699936" xlink:href="#WorkSans-Regular-6e"/>
       <use x="415.59993" xlink:href="#WorkSans-Regular-67"/>
       <use x="468.799927" xlink:href="#WorkSans-Regular-74"/>
       <use x="510.699921" xlink:href="#WorkSans-Regular-68"/>
      </g>
     </g>
    </g>
   </g>
   <g id="patch_70">
    <path clip-path="url(#pc535898aa3)" d="M 215.768398 540.157549 
L 298.546529 540.157549 
L 298.546529 537.878153 
L 215.768398 537.878153 
z
" style="fill:#ffd166;stroke:#ffffff;stroke-linejoin:miter;stroke-width:0.3;"/>
   </g>
   <g id="patch_71">
    <path clip-path="url(#pc535898aa3)" d="M 215.768398 525.685192 
L 382.830663 525.685192 
L 382.830663 523.405795 
L 215.768398 523.405795 
z
" style="fill:#ffd166;stroke:#ffffff;stroke-linejoin:miter;stroke-width:0.3;"/>
   </g>
   <g id="patch_72">
    <path clip-path="url(#pc535898aa3)" d="M 215.768398 511.212834 
L 143.319354 511.212834 
L 143.319354 508.933438 
L 215.768398 508.933438 
z
" style="fill:#ffd166;stroke:#ffffff;stroke-linejoin:miter;stroke-width:0.3;"/>
   </g>
   <g id="patch_73">
    <path clip-path="url(#pc535898aa3)" d="M 215.768398 496.740477 
L 138.659183 496.740477 
L 138.659183 494.461081 
L 215.768398 494.461081 
z
" style="fill:#ffd166;stroke:#ffffff;stroke-linejoin:miter;stroke-width:0.3;"/>
   </g>
   <g id="patch_74">
    <path clip-path="url(#pc535898aa3)" d="M 215.768398 482.26812 
L 270.404242 482.26812 
L 270.404242 479.988724 
L 215.768398 479.988724 
z
" style="fill:#ffd166;stroke:#ffffff;stroke-linejoin:miter;stroke-width:0.3;"/>
   </g>
   <g id="patch_75">
    <path clip-path="url(#pc535898aa3)" d="M 215.768398 467.795763 
L 152.48958 467.795763 
L 152.48958 465.516366 
L 215.768398 465.516366 
z
" style="fill:#ffd166;stroke:#ffffff;stroke-linejoin:miter;stroke-width:0.3;"/>
   </g>
   <g id="patch_76">
    <path clip-path="url(#pc535898aa3)" d="M 215.768398 453.323405 
L 215.768398 453.323405 
L 215.768398 451.044009 
L 215.768398 451.044009 
z
" style="fill:#ffd166;stroke:#ffffff;stroke-linejoin:miter;stroke-width:0.3;"/>
   </g>
   <g id="patch_77">
    <path clip-path="url(#pc535898aa3)" d="M 215.768398 438.851048 
L 252.776217 438.851048 
L 252.776217 436.571652 
L 215.768398 436.571652 
z
" style="fill:#ffd166;stroke:#ffffff;stroke-linejoin:miter;stroke-width:0.3;"/>
   </g>
   <g id="patch_78">
    <path clip-path="url(#pc535898aa3)" d="M 215.768398 424.378691 
L 211.692033 424.378691 
L 211.692033 422.099295 
L 215.768398 422.099295 
z
" style="fill:#ffd166;stroke:#ffffff;stroke-linejoin:miter;stroke-width:0.3;"/>
   </g>
   <g id="patch_79">
    <path clip-path="url(#pc535898aa3)" d="M 215.768398 409.906334 
L 259.295042 409.906334 
L 259.295042 407.626937 
L 215.768398 407.626937 
z
" style="fill:#ffd166;stroke:#ffffff;stroke-linejoin:miter;stroke-width:0.3;"/>
   </g>
   <g id="patch_80">
    <path clip-path="url(#pc535898aa3)" d="M 215.768398 395.433976 
L 188.058512 395.433976 
L 188.058512 393.15458 
L 215.768398 393.15458 
z
" style="fill:#ffd166;stroke:#ffffff;stroke-linejoin:miter;stroke-width:0.3;"/>
   </g>
   <g id="patch_81">
    <path clip-path="url(#pc535898aa3)" d="M 215.768398 380.961619 
L 289.7463 380.961619 
L 289.7463 378.682223 
L 215.768398 378.682223 
z
" style="fill:#ffd166;stroke:#ffffff;stroke-linejoin:miter;stroke-width:0.3;"/>
   </g>
   <g id="patch_82">
    <path clip-path="url(#pc535898aa3)" d="M 215.768398 366.489262 
L 215.768398 366.489262 
L 215.768398 364.209866 
L 215.768398 364.209866 
z
" style="fill:#ffd166;stroke:#ffffff;stroke-linejoin:miter;stroke-width:0.3;"/>
   </g>
   <g id="patch_83">
    <path clip-path="url(#pc535898aa3)" d="M 215.768398 352.016905 
L 251.586344 352.016905 
L 251.586344 349.737508 
L 215.768398 349.737508 
z
" style="fill:#ffd166;stroke:#ffffff;stroke-linejoin:miter;stroke-width:0.3;"/>
   </g>
   <g id="patch_84">
    <path clip-path="url(#pc535898aa3)" d="M 215.768398 337.544547 
L 235.416491 337.544547 
L 235.416491 335.265151 
L 215.768398 335.265151 
z
" style="fill:#ffd166;stroke:#ffffff;stroke-linejoin:miter;stroke-width:0.3;"/>
   </g>
   <g id="patch_85">
    <path clip-path="url(#pc535898aa3)" d="M 215.768398 537.624886 
L 469.100844 537.624886 
L 469.100844 535.34549 
L 215.768398 535.34549 
z
" style="fill:#c94cc2;stroke:#ffffff;stroke-linejoin:miter;stroke-width:0.3;"/>
   </g>
   <g id="patch_86">
    <path clip-path="url(#pc535898aa3)" d="M 215.768398 523.152529 
L 304.452709 523.152529 
L 304.452709 520.873133 
L 215.768398 520.873133 
z
" style="fill:#c94cc2;stroke:#ffffff;stroke-linejoin:miter;stroke-width:0.3;"/>
   </g>
   <g id="patch_87">
    <path clip-path="url(#pc535898aa3)" d="M 215.768398 508.680172 
L 130.342761 508.680172 
L 130.342761 506.400776 
L 215.768398 506.400776 
z
" style="fill:#c94cc2;stroke:#ffffff;stroke-linejoin:miter;stroke-width:0.3;"/>
   </g>
   <g id="patch_88">
    <path clip-path="url(#pc535898aa3)" d="M 215.768398 494.207815 
L 140.220248 494.207815 
L 140.220248 491.928418 
L 215.768398 491.928418 
z
" style="fill:#c94cc2;stroke:#ffffff;stroke-linejoin:miter;stroke-width:0.3;"/>
   </g>
   <g id="patch_89">
    <path clip-path="url(#pc535898aa3)" d="M 215.768398 479.735457 
L 318.639902 479.735457 
L 318.639902 477.456061 
L 215.768398 477.456061 
z
" style="fill:#c94cc2;stroke:#ffffff;stroke-linejoin:miter;stroke-width:0.3;"/>
   </g>
   <g id="patch_90">
    <path clip-path="url(#pc535898aa3)" d="M 215.768398 465.2631 
L 159.718131 465.2631 
L 159.718131 462.983704 
L 215.768398 462.983704 
z
" style="fill:#c94cc2;stroke:#ffffff;stroke-linejoin:miter;stroke-width:0.3;"/>
   </g>
   <g id="patch_91">
    <path clip-path="url(#pc535898aa3)" d="M 215.768398 450.790743 
L 215.768398 450.790743 
L 215.768398 448.511347 
L 215.768398 448.511347 
z
" style="fill:#c94cc2;stroke:#ffffff;stroke-linejoin:miter;stroke-width:0.3;"/>
   </g>
   <g id="patch_92">
    <path clip-path="url(#pc535898aa3)" d="M 215.768398 436.318386 
L 262.808032 436.318386 
L 262.808032 434.038989 
L 215.768398 434.038989 
z
" style="fill:#c94cc2;stroke:#ffffff;stroke-linejoin:miter;stroke-width:0.3;"/>
   </g>
   <g id="patch_93">
    <path clip-path="url(#pc535898aa3)" d="M 215.768398 421.846028 
L 146.884925 421.846028 
L 146.884925 419.566632 
L 215.768398 419.566632 
z
" style="fill:#c94cc2;stroke:#ffffff;stroke-linejoin:miter;stroke-width:0.3;"/>
   </g>
   <g id="patch_94">
    <path clip-path="url(#pc535898aa3)" d="M 215.768398 407.373671 
L 215.768398 407.373671 
L 215.768398 405.094275 
L 215.768398 405.094275 
z
" style="fill:#c94cc2;stroke:#ffffff;stroke-linejoin:miter;stroke-width:0.3;"/>
   </g>
   <g id="patch_95">
    <path clip-path="url(#pc535898aa3)" d="M 215.768398 392.901314 
L 143.077442 392.901314 
L 143.077442 390.621918 
L 215.768398 390.621918 
z
" style="fill:#c94cc2;stroke:#ffffff;stroke-linejoin:miter;stroke-width:0.3;"/>
   </g>
   <g id="patch_96">
    <path clip-path="url(#pc535898aa3)" d="M 215.768398 378.428957 
L 226.903671 378.428957 
L 226.903671 376.14956 
L 215.768398 376.14956 
z
" style="fill:#c94cc2;stroke:#ffffff;stroke-linejoin:miter;stroke-width:0.3;"/>
   </g>
   <g id="patch_97">
    <path clip-path="url(#pc535898aa3)" d="M 215.768398 363.956599 
L 215.768398 363.956599 
L 215.768398 361.677203 
L 215.768398 361.677203 
z
" style="fill:#c94cc2;stroke:#ffffff;stroke-linejoin:miter;stroke-width:0.3;"/>
   </g>
   <g id="patch_98">
    <path clip-path="url(#pc535898aa3)" d="M 215.768398 349.484242 
L 230.234861 349.484242 
L 230.234861 347.204846 
L 215.768398 347.204846 
z
" style="fill:#c94cc2;stroke:#ffffff;stroke-linejoin:miter;stroke-width:0.3;"/>
   </g>
   <g id="patch_99">
    <path clip-path="url(#pc535898aa3)" d="M 215.768398 335.011885 
L 200.07179 335.011885 
L 200.07179 332.732489 
L 215.768398 332.732489 
z
" style="fill:#c94cc2;stroke:#ffffff;stroke-linejoin:miter;stroke-width:0.3;"/>
   </g>
   <g id="patch_100">
    <path clip-path="url(#pc535898aa3)" d="M 215.768398 535.092224 
L 478.048084 535.092224 
L 478.048084 532.812828 
L 215.768398 532.812828 
z
" style="fill:#ff6f61;stroke:#ffffff;stroke-linejoin:miter;stroke-width:0.3;"/>
   </g>
   <g id="patch_101">
    <path clip-path="url(#pc535898aa3)" d="M 215.768398 520.619867 
L 271.255956 520.619867 
L 271.255956 518.34047 
L 215.768398 518.34047 
z
" style="fill:#ff6f61;stroke:#ffffff;stroke-linejoin:miter;stroke-width:0.3;"/>
   </g>
   <g id="patch_102">
    <path clip-path="url(#pc535898aa3)" d="M 215.768398 506.147509 
L 128.38389 506.147509 
L 128.38389 503.868113 
L 215.768398 503.868113 
z
" style="fill:#ff6f61;stroke:#ffffff;stroke-linejoin:miter;stroke-width:0.3;"/>
   </g>
   <g id="patch_103">
    <path clip-path="url(#pc535898aa3)" d="M 215.768398 491.675152 
L 123.952587 491.675152 
L 123.952587 489.395756 
L 215.768398 489.395756 
z
" style="fill:#ff6f61;stroke:#ffffff;stroke-linejoin:miter;stroke-width:0.3;"/>
   </g>
   <g id="patch_104">
    <path clip-path="url(#pc535898aa3)" d="M 215.768398 477.202795 
L 270.246605 477.202795 
L 270.246605 474.923399 
L 215.768398 474.923399 
z
" style="fill:#ff6f61;stroke:#ffffff;stroke-linejoin:miter;stroke-width:0.3;"/>
   </g>
   <g id="patch_105">
    <path clip-path="url(#pc535898aa3)" d="M 215.768398 462.730438 
L 178.229751 462.730438 
L 178.229751 460.451041 
L 215.768398 460.451041 
z
" style="fill:#ff6f61;stroke:#ffffff;stroke-linejoin:miter;stroke-width:0.3;"/>
   </g>
   <g id="patch_106">
    <path clip-path="url(#pc535898aa3)" d="M 215.768398 448.25808 
L 215.768398 448.25808 
L 215.768398 445.978684 
L 215.768398 445.978684 
z
" style="fill:#ff6f61;stroke:#ffffff;stroke-linejoin:miter;stroke-width:0.3;"/>
   </g>
   <g id="patch_107">
    <path clip-path="url(#pc535898aa3)" d="M 215.768398 433.785723 
L 282.456091 433.785723 
L 282.456091 431.506327 
L 215.768398 431.506327 
z
" style="fill:#ff6f61;stroke:#ffffff;stroke-linejoin:miter;stroke-width:0.3;"/>
   </g>
   <g id="patch_108">
    <path clip-path="url(#pc535898aa3)" d="M 215.768398 419.313366 
L 170.035556 419.313366 
L 170.035556 417.03397 
L 215.768398 417.03397 
z
" style="fill:#ff6f61;stroke:#ffffff;stroke-linejoin:miter;stroke-width:0.3;"/>
   </g>
   <g id="patch_109">
    <path clip-path="url(#pc535898aa3)" d="M 215.768398 404.841009 
L 215.768398 404.841009 
L 215.768398 402.561612 
L 215.768398 402.561612 
z
" style="fill:#ff6f61;stroke:#ffffff;stroke-linejoin:miter;stroke-width:0.3;"/>
   </g>
   <g id="patch_110">
    <path clip-path="url(#pc535898aa3)" d="M 215.768398 390.368651 
L 151.629911 390.368651 
L 151.629911 388.089255 
L 215.768398 388.089255 
z
" style="fill:#ff6f61;stroke:#ffffff;stroke-linejoin:miter;stroke-width:0.3;"/>
   </g>
   <g id="patch_111">
    <path clip-path="url(#pc535898aa3)" d="M 215.768398 375.896294 
L 256.254491 375.896294 
L 256.254491 373.616898 
L 215.768398 373.616898 
z
" style="fill:#ff6f61;stroke:#ffffff;stroke-linejoin:miter;stroke-width:0.3;"/>
   </g>
   <g id="patch_112">
    <path clip-path="url(#pc535898aa3)" d="M 215.768398 361.423937 
L 215.768398 361.423937 
L 215.768398 359.144541 
L 215.768398 359.144541 
z
" style="fill:#ff6f61;stroke:#ffffff;stroke-linejoin:miter;stroke-width:0.3;"/>
   </g>
   <g id="patch_113">
    <path clip-path="url(#pc535898aa3)" d="M 215.768398 346.95158 
L 242.565803 346.95158 
L 242.565803 344.672183 
L 215.768398 344.672183 
z
" style="fill:#ff6f61;stroke:#ffffff;stroke-linejoin:miter;stroke-width:0.3;"/>
   </g>
   <g id="patch_114">
    <path clip-path="url(#pc535898aa3)" d="M 215.768398 332.479222 
L 177.698927 332.479222 
L 177.698927 330.199826 
L 215.768398 330.199826 
z
" style="fill:#ff6f61;stroke:#ffffff;stroke-linejoin:miter;stroke-width:0.3;"/>
   </g>
   <g id="patch_115">
    <path clip-path="url(#pc535898aa3)" d="M 215.768398 532.559561 
L 442.247636 532.559561 
L 442.247636 530.280165 
L 215.768398 530.280165 
z
" style="fill:#118ab2;stroke:#ffffff;stroke-linejoin:miter;stroke-width:0.3;"/>
   </g>
   <g id="patch_116">
    <path clip-path="url(#pc535898aa3)" d="M 215.768398 518.087204 
L 261.683195 518.087204 
L 261.683195 515.807808 
L 215.768398 515.807808 
z
" style="fill:#118ab2;stroke:#ffffff;stroke-linejoin:miter;stroke-width:0.3;"/>
   </g>
   <g id="patch_117">
    <path clip-path="url(#pc535898aa3)" d="M 215.768398 503.614847 
L 215.768398 503.614847 
L 215.768398 501.33545 
L 215.768398 501.33545 
z
" style="fill:#118ab2;stroke:#ffffff;stroke-linejoin:miter;stroke-width:0.3;"/>
   </g>
   <g id="patch_118">
    <path clip-path="url(#pc535898aa3)" d="M 215.768398 489.14249 
L 215.768398 489.14249 
L 215.768398 486.863093 
L 215.768398 486.863093 
z
" style="fill:#118ab2;stroke:#ffffff;stroke-linejoin:miter;stroke-width:0.3;"/>
   </g>
   <g id="patch_119">
    <path clip-path="url(#pc535898aa3)" d="M 215.768398 474.670132 
L 319.852132 474.670132 
L 319.852132 472.390736 
L 215.768398 472.390736 
z
" style="fill:#118ab2;stroke:#ffffff;stroke-linejoin:miter;stroke-width:0.3;"/>
   </g>
   <g id="patch_120">
    <path clip-path="url(#pc535898aa3)" d="M 215.768398 460.197775 
L 126.866607 460.197775 
L 126.866607 457.918379 
L 215.768398 457.918379 
z
" style="fill:#118ab2;stroke:#ffffff;stroke-linejoin:miter;stroke-width:0.3;"/>
   </g>
   <g id="patch_121">
    <path clip-path="url(#pc535898aa3)" d="M 215.768398 445.725418 
L 154.589349 445.725418 
L 154.589349 443.446022 
L 215.768398 443.446022 
z
" style="fill:#118ab2;stroke:#ffffff;stroke-linejoin:miter;stroke-width:0.3;"/>
   </g>
   <g id="patch_122">
    <path clip-path="url(#pc535898aa3)" d="M 215.768398 431.253061 
L 215.768398 431.253061 
L 215.768398 428.973664 
L 215.768398 428.973664 
z
" style="fill:#118ab2;stroke:#ffffff;stroke-linejoin:miter;stroke-width:0.3;"/>
   </g>
   <g id="patch_123">
    <path clip-path="url(#pc535898aa3)" d="M 215.768398 416.780703 
L 141.920741 416.780703 
L 141.920741 414.501307 
L 215.768398 414.501307 
z
" style="fill:#118ab2;stroke:#ffffff;stroke-linejoin:miter;stroke-width:0.3;"/>
   </g>
   <g id="patch_124">
    <path clip-path="url(#pc535898aa3)" d="M 215.768398 402.308346 
L 215.768398 402.308346 
L 215.768398 400.02895 
L 215.768398 400.02895 
z
" style="fill:#118ab2;stroke:#ffffff;stroke-linejoin:miter;stroke-width:0.3;"/>
   </g>
   <g id="patch_125">
    <path clip-path="url(#pc535898aa3)" d="M 215.768398 387.835989 
L 210.061252 387.835989 
L 210.061252 385.556593 
L 215.768398 385.556593 
z
" style="fill:#118ab2;stroke:#ffffff;stroke-linejoin:miter;stroke-width:0.3;"/>
   </g>
   <g id="patch_126">
    <path clip-path="url(#pc535898aa3)" d="M 215.768398 373.363632 
L 215.768398 373.363632 
L 215.768398 371.084235 
L 215.768398 371.084235 
z
" style="fill:#118ab2;stroke:#ffffff;stroke-linejoin:miter;stroke-width:0.3;"/>
   </g>
   <g id="patch_127">
    <path clip-path="url(#pc535898aa3)" d="M 215.768398 358.891274 
L 250.001376 358.891274 
L 250.001376 356.611878 
L 215.768398 356.611878 
z
" style="fill:#118ab2;stroke:#ffffff;stroke-linejoin:miter;stroke-width:0.3;"/>
   </g>
   <g id="patch_128">
    <path clip-path="url(#pc535898aa3)" d="M 215.768398 344.418917 
L 215.768398 344.418917 
L 215.768398 342.139521 
L 215.768398 342.139521 
z
" style="fill:#118ab2;stroke:#ffffff;stroke-linejoin:miter;stroke-width:0.3;"/>
   </g>
   <g id="patch_129">
    <path clip-path="url(#pc535898aa3)" d="M 215.768398 329.94656 
L 215.768398 329.94656 
L 215.768398 327.667164 
L 215.768398 327.667164 
z
" style="fill:#118ab2;stroke:#ffffff;stroke-linejoin:miter;stroke-width:0.3;"/>
   </g>
   <g id="line2d_2">
    <path clip-path="url(#pc535898aa3)" d="M 215.768398 550.782068 
L 215.768398 317.042644 
" style="fill:none;stroke:#808080;stroke-dasharray:1.48,0.64;stroke-dashoffset:0;stroke-width:0.4;"/>
   </g>
   <g id="patch_130">
    <path d="M 106.247813 550.782068 
L 106.247813 317.042644 
" style="fill:none;stroke:#333333;stroke-linecap:square;stroke-linejoin:miter;stroke-width:0.5;"/>
   </g>
   <g id="patch_131">
    <path d="M 106.247812 550.782068 
L 495.752859 550.782068 
" style="fill:none;stroke:#333333;stroke-linecap:square;stroke-linejoin:miter;stroke-width:0.5;"/>
   </g>
   <g id="text_50">
    <!-- b -->
    <g style="fill:#262626;" transform="translate(47.822056 300.789014)scale(0.1 -0.1)">
     <defs>
      <path d="M 2445 -64 
Q 2131 -64 1891 77 
Q 1651 218 1497 464 
Q 1344 710 1299 1024 
L 1402 1158 
L 1344 0 
L 390 0 
L 390 4557 
L 1478 4557 
L 1478 2195 
L 1376 2349 
Q 1466 2746 1741 3005 
Q 2016 3264 2483 3264 
Q 2854 3264 3145 3065 
Q 3437 2867 3600 2492 
Q 3763 2118 3763 1587 
Q 3763 1069 3596 697 
Q 3430 326 3136 131 
Q 2842 -64 2445 -64 
z
M 2067 736 
Q 2349 736 2509 944 
Q 2669 1152 2669 1600 
Q 2669 2048 2509 2256 
Q 2349 2464 2067 2464 
Q 1882 2464 1750 2358 
Q 1619 2253 1548 2061 
Q 1478 1869 1478 1594 
Q 1478 1318 1548 1126 
Q 1619 934 1753 835 
Q 1888 736 2067 736 
z
" id="WorkSans-Bold-62" transform="scale(0.015625)"/>
     </defs>
     <use xlink:href="#WorkSans-Bold-62"/>
    </g>
   </g>
   <g id="text_51">
    <!-- FVC -->
    <g style="fill:#262626;" transform="translate(505.85296 423.220872)rotate(-270)scale(0.11 -0.11)">
     <use xlink:href="#WorkSans-Regular-46"/>
     <use x="60.999985" xlink:href="#WorkSans-Regular-56"/>
     <use x="125.799973" xlink:href="#WorkSans-Regular-43"/>
    </g>
   </g>
  </g>
 </g>
 <defs>
  <clipPath id="p4b2c632b21">
   <rect height="233.739424" width="389.505046" x="106.247813" y="33.500914"/>
  </clipPath>
  <clipPath id="pc535898aa3">
   <rect height="233.739424" width="389.505046" x="106.247813" y="317.042644"/>
  </clipPath>
 </defs>
</svg>
